%TF.GenerationSoftware,KiCad,Pcbnew,(5.99.0-10355-gafe0c79a1e)*%
%TF.CreationDate,2021-05-03T14:32:18+02:00*%
%TF.ProjectId,orgel,6f726765-6c2e-46b6-9963-61645f706362,rev?*%
%TF.SameCoordinates,Original*%
%TF.FileFunction,Copper,L1,Top*%
%TF.FilePolarity,Positive*%
%FSLAX46Y46*%
G04 Gerber Fmt 4.6, Leading zero omitted, Abs format (unit mm)*
G04 Created by KiCad (PCBNEW (5.99.0-10355-gafe0c79a1e)) date 2021-05-03 14:32:18*
%MOMM*%
%LPD*%
G01*
G04 APERTURE LIST*
G04 Aperture macros list*
%AMRoundRect*
0 Rectangle with rounded corners*
0 $1 Rounding radius*
0 $2 $3 $4 $5 $6 $7 $8 $9 X,Y pos of 4 corners*
0 Add a 4 corners polygon primitive as box body*
4,1,4,$2,$3,$4,$5,$6,$7,$8,$9,$2,$3,0*
0 Add four circle primitives for the rounded corners*
1,1,$1+$1,$2,$3*
1,1,$1+$1,$4,$5*
1,1,$1+$1,$6,$7*
1,1,$1+$1,$8,$9*
0 Add four rect primitives between the rounded corners*
20,1,$1+$1,$2,$3,$4,$5,0*
20,1,$1+$1,$4,$5,$6,$7,0*
20,1,$1+$1,$6,$7,$8,$9,0*
20,1,$1+$1,$8,$9,$2,$3,0*%
G04 Aperture macros list end*
%TA.AperFunction,SMDPad,CuDef*%
%ADD10R,1.900000X1.300000*%
%TD*%
%TA.AperFunction,SMDPad,CuDef*%
%ADD11R,1.500000X2.000000*%
%TD*%
%TA.AperFunction,SMDPad,CuDef*%
%ADD12R,1.200000X2.500000*%
%TD*%
%TA.AperFunction,SMDPad,CuDef*%
%ADD13R,2.120000X4.510000*%
%TD*%
%TA.AperFunction,SMDPad,CuDef*%
%ADD14R,1.800000X1.100000*%
%TD*%
%TA.AperFunction,SMDPad,CuDef*%
%ADD15RoundRect,0.250000X-0.300000X0.250000X-0.300000X-0.250000X0.300000X-0.250000X0.300000X0.250000X0*%
%TD*%
%TA.AperFunction,SMDPad,CuDef*%
%ADD16RoundRect,0.250000X0.300000X-0.250000X0.300000X0.250000X-0.300000X0.250000X-0.300000X-0.250000X0*%
%TD*%
%TA.AperFunction,SMDPad,CuDef*%
%ADD17RoundRect,0.250000X-0.250000X-0.300000X0.250000X-0.300000X0.250000X0.300000X-0.250000X0.300000X0*%
%TD*%
%TA.AperFunction,SMDPad,CuDef*%
%ADD18RoundRect,0.150000X0.625000X0.150000X-0.625000X0.150000X-0.625000X-0.150000X0.625000X-0.150000X0*%
%TD*%
%TA.AperFunction,SMDPad,CuDef*%
%ADD19R,1.550000X0.600000*%
%TD*%
%TA.AperFunction,SMDPad,CuDef*%
%ADD20RoundRect,0.250000X0.250000X0.300000X-0.250000X0.300000X-0.250000X-0.300000X0.250000X-0.300000X0*%
%TD*%
%TA.AperFunction,ComponentPad*%
%ADD21C,1.500000*%
%TD*%
%TA.AperFunction,SMDPad,CuDef*%
%ADD22RoundRect,0.150000X-0.625000X-0.150000X0.625000X-0.150000X0.625000X0.150000X-0.625000X0.150000X0*%
%TD*%
%TA.AperFunction,ComponentPad*%
%ADD23R,2.000000X2.000000*%
%TD*%
%TA.AperFunction,ComponentPad*%
%ADD24C,2.000000*%
%TD*%
%TA.AperFunction,ViaPad*%
%ADD25C,0.600000*%
%TD*%
%TA.AperFunction,Conductor*%
%ADD26C,0.250000*%
%TD*%
%TA.AperFunction,Conductor*%
%ADD27C,0.200000*%
%TD*%
G04 APERTURE END LIST*
D10*
%TO.P,RV1,1,1*%
%TO.N,Net-(RV1-Pad1)*%
X89450000Y-107750000D03*
D11*
%TO.P,RV1,2,2*%
%TO.N,Net-(R1-Pad1)*%
X94550000Y-109000000D03*
D10*
%TO.P,RV1,3,3*%
X89450000Y-110250000D03*
%TD*%
D12*
%TO.P,SW7,1,A*%
%TO.N,unconnected-(SW7-Pad1)*%
X110400000Y-91225000D03*
%TO.P,SW7,2,B*%
%TO.N,unconnected-(SW7-Pad2)*%
X107900000Y-91225000D03*
%TO.P,SW7,3,C*%
%TO.N,unconnected-(SW7-Pad3)*%
X105400000Y-91225000D03*
%TO.P,SW7,4,A*%
%TO.N,Net-(C2-Pad1)*%
X105400000Y-96725000D03*
%TO.P,SW7,5,B*%
%TO.N,Net-(R1-Pad2)*%
X107900000Y-96725000D03*
%TO.P,SW7,6,C*%
%TO.N,Net-(C1-Pad1)*%
X110400000Y-96725000D03*
%TD*%
D13*
%TO.P,C9,1*%
%TO.N,Net-(C7-Pad2)*%
X153850000Y-94475000D03*
%TO.P,C9,2*%
%TO.N,Net-(C9-Pad2)*%
X153850000Y-103475000D03*
%TD*%
D14*
%TO.P,SW2,1*%
%TO.N,VCC*%
X83100000Y-102850000D03*
X76900000Y-102850000D03*
%TO.P,SW2,2*%
%TO.N,Net-(RV2-Pad1)*%
X76900000Y-99150000D03*
X83100000Y-99150000D03*
%TD*%
D15*
%TO.P,R2,1*%
%TO.N,Net-(C6-Pad1)*%
X148540000Y-80725000D03*
%TO.P,R2,2*%
%TO.N,Net-(R2-Pad2)*%
X147270000Y-80725000D03*
%TD*%
D14*
%TO.P,SW1,1*%
%TO.N,VCC*%
X83100000Y-111850000D03*
X76900000Y-111850000D03*
%TO.P,SW1,2*%
%TO.N,Net-(RV1-Pad1)*%
X83100000Y-108150000D03*
X76900000Y-108150000D03*
%TD*%
D10*
%TO.P,RV6,1,1*%
%TO.N,Net-(RV6-Pad1)*%
X89450000Y-56750000D03*
D11*
%TO.P,RV6,2,2*%
%TO.N,Net-(R1-Pad1)*%
X94550000Y-58000000D03*
D10*
%TO.P,RV6,3,3*%
X89450000Y-59250000D03*
%TD*%
D16*
%TO.P,C8,1*%
%TO.N,Net-(C8-Pad1)*%
X157250000Y-85200000D03*
%TO.P,C8,2*%
%TO.N,GND*%
X158520000Y-85200000D03*
%TD*%
D10*
%TO.P,RV3,1,1*%
%TO.N,Net-(RV3-Pad1)*%
X89450000Y-88750000D03*
D11*
%TO.P,RV3,2,2*%
%TO.N,Net-(R1-Pad1)*%
X94550000Y-90000000D03*
D10*
%TO.P,RV3,3,3*%
X89450000Y-91250000D03*
%TD*%
D14*
%TO.P,SW5,1*%
%TO.N,VCC*%
X83100000Y-69850000D03*
X76900000Y-69850000D03*
%TO.P,SW5,2*%
%TO.N,Net-(RV5-Pad1)*%
X76900000Y-66150000D03*
X83100000Y-66150000D03*
%TD*%
D17*
%TO.P,R3,1*%
%TO.N,Net-(C7-Pad1)*%
X162600000Y-99365000D03*
%TO.P,R3,2*%
%TO.N,GND*%
X162600000Y-100635000D03*
%TD*%
D14*
%TO.P,SW8,1*%
%TO.N,VCC*%
X83100000Y-47850000D03*
X76900000Y-47850000D03*
%TO.P,SW8,2*%
%TO.N,Net-(RV7-Pad1)*%
X83100000Y-44150000D03*
X76900000Y-44150000D03*
%TD*%
D18*
%TO.P,U1,1,GND*%
%TO.N,GND*%
X117522705Y-88000000D03*
D19*
%TO.P,U1,2,TRIG*%
%TO.N,Net-(R1-Pad2)*%
X117522705Y-86730000D03*
%TO.P,U1,3,OUT*%
%TO.N,Net-(C4-Pad1)*%
X117522705Y-85460000D03*
%TO.P,U1,4,RESET*%
%TO.N,VCC*%
X117522705Y-84190000D03*
%TO.P,U1,5,CONT*%
%TO.N,Net-(C3-Pad1)*%
X112122705Y-84190000D03*
%TO.P,U1,6,THRES*%
%TO.N,Net-(R1-Pad2)*%
X112122705Y-85460000D03*
%TO.P,U1,7,DISCH*%
%TO.N,Net-(R1-Pad1)*%
X112122705Y-86730000D03*
%TO.P,U1,8,Vcc*%
%TO.N,VCC*%
X112122705Y-88000000D03*
%TD*%
D20*
%TO.P,C7,1*%
%TO.N,Net-(C7-Pad1)*%
X162625000Y-96945000D03*
%TO.P,C7,2*%
%TO.N,Net-(C7-Pad2)*%
X162625000Y-95675000D03*
%TD*%
D10*
%TO.P,RV4,1,1*%
%TO.N,Net-(RV4-Pad1)*%
X89450000Y-77750000D03*
D11*
%TO.P,RV4,2,2*%
%TO.N,Net-(R1-Pad1)*%
X94550000Y-79000000D03*
D10*
%TO.P,RV4,3,3*%
X89450000Y-80250000D03*
%TD*%
D21*
%TO.P,CON1,1*%
%TO.N,/synth/osc_out*%
X127850000Y-85475000D03*
%TO.P,CON1,2*%
%TO.N,/audio amp/SYNTH_IN*%
X130390000Y-85475000D03*
%TD*%
D14*
%TO.P,SW6,1*%
%TO.N,VCC*%
X76900000Y-59850000D03*
X83100000Y-59850000D03*
%TO.P,SW6,2*%
%TO.N,Net-(RV6-Pad1)*%
X83100000Y-56150000D03*
X76900000Y-56150000D03*
%TD*%
D17*
%TO.P,C11,1*%
%TO.N,VCC*%
X89835000Y-125470000D03*
%TO.P,C11,2*%
%TO.N,GND*%
X89835000Y-126740000D03*
%TD*%
D16*
%TO.P,C6,1*%
%TO.N,Net-(C6-Pad1)*%
X151515000Y-80755000D03*
%TO.P,C6,2*%
%TO.N,Net-(C6-Pad2)*%
X152785000Y-80755000D03*
%TD*%
D22*
%TO.P,U2,1,GAIN*%
%TO.N,Net-(R2-Pad2)*%
X147335000Y-83950000D03*
D19*
%TO.P,U2,2,-INPUT*%
%TO.N,GND*%
X147335000Y-85220000D03*
%TO.P,U2,3,+INPUT*%
%TO.N,Net-(RV9-Pad2)*%
X147335000Y-86490000D03*
%TO.P,U2,4,GND*%
%TO.N,GND*%
X147335000Y-87760000D03*
%TO.P,U2,5,VOUT*%
%TO.N,Net-(C7-Pad2)*%
X152735000Y-87760000D03*
%TO.P,U2,6,VS*%
%TO.N,VCC*%
X152735000Y-86490000D03*
%TO.P,U2,7,BYPASS*%
%TO.N,Net-(C8-Pad1)*%
X152735000Y-85220000D03*
%TO.P,U2,8,GAIN*%
%TO.N,unconnected-(U2-Pad8)*%
X152735000Y-83950000D03*
%TD*%
D14*
%TO.P,SW4,1*%
%TO.N,VCC*%
X83100000Y-81850000D03*
X76900000Y-81850000D03*
%TO.P,SW4,2*%
%TO.N,Net-(RV4-Pad1)*%
X83100000Y-78150000D03*
X76900000Y-78150000D03*
%TD*%
D16*
%TO.P,C4,1*%
%TO.N,Net-(C4-Pad1)*%
X121315000Y-85480000D03*
%TO.P,C4,2*%
%TO.N,/synth/osc_out*%
X122585000Y-85480000D03*
%TD*%
D10*
%TO.P,RV9,1,1*%
%TO.N,/audio amp/SYNTH_IN*%
X136075000Y-85425000D03*
D11*
%TO.P,RV9,2,2*%
%TO.N,Net-(RV9-Pad2)*%
X141175000Y-86675000D03*
D10*
%TO.P,RV9,3,3*%
%TO.N,GND*%
X136075000Y-87925000D03*
%TD*%
D23*
%TO.P,J2,1,Pin_1*%
%TO.N,GND*%
X85630000Y-128700000D03*
D24*
%TO.P,J2,2,Pin_2*%
%TO.N,VCC*%
X85630000Y-123700000D03*
%TD*%
D10*
%TO.P,RV2,1,1*%
%TO.N,Net-(RV2-Pad1)*%
X89450000Y-98750000D03*
D11*
%TO.P,RV2,2,2*%
%TO.N,Net-(R1-Pad1)*%
X94550000Y-100000000D03*
D10*
%TO.P,RV2,3,3*%
X89450000Y-101250000D03*
%TD*%
D24*
%TO.P,J1,1,Pin_1*%
%TO.N,Net-(C9-Pad2)*%
X165900000Y-111190000D03*
%TO.P,J1,2,Pin_2*%
%TO.N,GND*%
X165900000Y-116190000D03*
%TD*%
D20*
%TO.P,C3,1*%
%TO.N,Net-(C3-Pad1)*%
X112025000Y-81420000D03*
%TO.P,C3,2*%
%TO.N,GND*%
X112025000Y-80150000D03*
%TD*%
D14*
%TO.P,SW10,1*%
%TO.N,Net-(C7-Pad2)*%
X162750000Y-87375000D03*
X168950000Y-87375000D03*
%TO.P,SW10,2*%
%TO.N,Net-(C6-Pad2)*%
X162750000Y-91075000D03*
X168950000Y-91075000D03*
%TD*%
D17*
%TO.P,C2,1*%
%TO.N,Net-(C2-Pad1)*%
X105425000Y-100425000D03*
%TO.P,C2,2*%
%TO.N,GND*%
X105425000Y-101695000D03*
%TD*%
D13*
%TO.P,C5,1*%
%TO.N,VCC*%
X101925000Y-120975000D03*
%TO.P,C5,2*%
%TO.N,GND*%
X101925000Y-129975000D03*
%TD*%
D10*
%TO.P,RV5,1,1*%
%TO.N,Net-(RV5-Pad1)*%
X89450000Y-65750000D03*
D11*
%TO.P,RV5,2,2*%
%TO.N,Net-(R1-Pad1)*%
X94550000Y-67000000D03*
D10*
%TO.P,RV5,3,3*%
X89450000Y-68250000D03*
%TD*%
D20*
%TO.P,R1,1*%
%TO.N,Net-(R1-Pad1)*%
X108000000Y-86270000D03*
%TO.P,R1,2*%
%TO.N,Net-(R1-Pad2)*%
X108000000Y-85000000D03*
%TD*%
D10*
%TO.P,RV7,1,1*%
%TO.N,Net-(RV7-Pad1)*%
X89450000Y-43750000D03*
D11*
%TO.P,RV7,2,2*%
%TO.N,Net-(R1-Pad1)*%
X94550000Y-45000000D03*
D10*
%TO.P,RV7,3,3*%
X89450000Y-46250000D03*
%TD*%
D17*
%TO.P,C1,1*%
%TO.N,Net-(C1-Pad1)*%
X110825000Y-100455000D03*
%TO.P,C1,2*%
%TO.N,GND*%
X110825000Y-101725000D03*
%TD*%
%TO.P,C10,1*%
%TO.N,VCC*%
X92755000Y-125510000D03*
%TO.P,C10,2*%
%TO.N,GND*%
X92755000Y-126780000D03*
%TD*%
D14*
%TO.P,SW3,1*%
%TO.N,VCC*%
X83100000Y-92850000D03*
X76900000Y-92850000D03*
%TO.P,SW3,2*%
%TO.N,Net-(RV3-Pad1)*%
X83100000Y-89150000D03*
X76900000Y-89150000D03*
%TD*%
D25*
%TO.N,GND*%
X150050000Y-86550000D03*
X117522705Y-92177295D03*
X133500000Y-90050000D03*
X162600000Y-103000000D03*
X108250000Y-101725000D03*
X111925000Y-76975000D03*
X158500000Y-81950000D03*
%TO.N,Net-(C6-Pad2)*%
X165700000Y-90250000D03*
X163425000Y-80775000D03*
%TO.N,Net-(R1-Pad2)*%
X109350000Y-88800000D03*
X114490000Y-85460000D03*
%TD*%
D26*
%TO.N,Net-(C1-Pad1)*%
X110700000Y-97025000D02*
X110700000Y-100330000D01*
X110700000Y-100330000D02*
X110825000Y-100455000D01*
X110400000Y-96725000D02*
X110700000Y-97025000D01*
%TO.N,GND*%
X117522705Y-92177295D02*
X117522705Y-92202295D01*
X112025000Y-77075000D02*
X111925000Y-76975000D01*
X110825000Y-101725000D02*
X108250000Y-101725000D01*
X162600000Y-100635000D02*
X162600000Y-103000000D01*
X112025000Y-80150000D02*
X112025000Y-77075000D01*
X158520000Y-81970000D02*
X158500000Y-81950000D01*
X101925000Y-129975000D02*
X95950000Y-129975000D01*
X95950000Y-129975000D02*
X92755000Y-126780000D01*
X89835000Y-126740000D02*
X87590000Y-126740000D01*
X89875000Y-126780000D02*
X89835000Y-126740000D01*
X150050000Y-85375000D02*
X150050000Y-86550000D01*
X150050000Y-87350000D02*
X149640000Y-87760000D01*
X92755000Y-126780000D02*
X89875000Y-126780000D01*
X87590000Y-126740000D02*
X85630000Y-128700000D01*
X117522705Y-88000000D02*
X117522705Y-92177295D01*
X149895000Y-85220000D02*
X150050000Y-85375000D01*
X136075000Y-87925000D02*
X133950000Y-90050000D01*
X149640000Y-87760000D02*
X147335000Y-87760000D01*
X150050000Y-86550000D02*
X150050000Y-87350000D01*
X158520000Y-85200000D02*
X158520000Y-81970000D01*
X108250000Y-101725000D02*
X105455000Y-101725000D01*
X147335000Y-85220000D02*
X149895000Y-85220000D01*
X117522705Y-92202295D02*
X117450000Y-92275000D01*
X133950000Y-90050000D02*
X133500000Y-90050000D01*
X105455000Y-101725000D02*
X105425000Y-101695000D01*
%TO.N,Net-(C2-Pad1)*%
X105425000Y-96750000D02*
X105400000Y-96725000D01*
X105425000Y-100425000D02*
X105425000Y-96750000D01*
%TO.N,Net-(C3-Pad1)*%
X112025000Y-84092295D02*
X112122705Y-84190000D01*
X112025000Y-81420000D02*
X112025000Y-84092295D01*
%TO.N,Net-(C4-Pad1)*%
X117542705Y-85480000D02*
X117522705Y-85460000D01*
X121315000Y-85480000D02*
X117542705Y-85480000D01*
%TO.N,/synth/osc_out*%
X122590000Y-85475000D02*
X122585000Y-85480000D01*
X127850000Y-85475000D02*
X122590000Y-85475000D01*
%TO.N,VCC*%
X97290000Y-120975000D02*
X92755000Y-125510000D01*
X101925000Y-120975000D02*
X97290000Y-120975000D01*
%TO.N,Net-(C6-Pad1)*%
X151485000Y-80725000D02*
X151515000Y-80755000D01*
X148540000Y-80725000D02*
X151485000Y-80725000D01*
%TO.N,Net-(C6-Pad2)*%
X152785000Y-80755000D02*
X163405000Y-80755000D01*
X165800000Y-91075000D02*
X165800000Y-90350000D01*
X168950000Y-91075000D02*
X165800000Y-91075000D01*
X163405000Y-80755000D02*
X163425000Y-80775000D01*
X165800000Y-91075000D02*
X162750000Y-91075000D01*
X165800000Y-90350000D02*
X165700000Y-90250000D01*
%TO.N,Net-(C7-Pad1)*%
X162625000Y-96945000D02*
X162625000Y-99340000D01*
X162625000Y-99340000D02*
X162600000Y-99365000D01*
%TO.N,Net-(C7-Pad2)*%
X160600000Y-87375000D02*
X153120000Y-87375000D01*
X153850000Y-94475000D02*
X153850000Y-88875000D01*
X162625000Y-93350000D02*
X160600000Y-91325000D01*
X168950000Y-87375000D02*
X162750000Y-87375000D01*
X153850000Y-88875000D02*
X152735000Y-87760000D01*
X162750000Y-87375000D02*
X160600000Y-87375000D01*
X162625000Y-95675000D02*
X162625000Y-93350000D01*
X160600000Y-91325000D02*
X160600000Y-87375000D01*
X153120000Y-87375000D02*
X152735000Y-87760000D01*
%TO.N,Net-(C8-Pad1)*%
X152735000Y-85220000D02*
X157230000Y-85220000D01*
X157230000Y-85220000D02*
X157250000Y-85200000D01*
%TO.N,Net-(C9-Pad2)*%
X153850000Y-103475000D02*
X153850000Y-108575000D01*
X156465000Y-111190000D02*
X165900000Y-111190000D01*
X153850000Y-108575000D02*
X156465000Y-111190000D01*
D27*
%TO.N,/audio amp/SYNTH_IN*%
X136075000Y-85425000D02*
X130440000Y-85425000D01*
X130440000Y-85425000D02*
X130390000Y-85475000D01*
D26*
%TO.N,Net-(R1-Pad1)*%
X109470000Y-86270000D02*
X109930000Y-86730000D01*
X89450000Y-46250000D02*
X93300000Y-46250000D01*
X89450000Y-80250000D02*
X93300000Y-80250000D01*
X94550000Y-45000000D02*
X94550000Y-86350000D01*
X89450000Y-101250000D02*
X93300000Y-101250000D01*
X89450000Y-110250000D02*
X93300000Y-110250000D01*
X93300000Y-110250000D02*
X94550000Y-109000000D01*
X94550000Y-86350000D02*
X94550000Y-109000000D01*
X93300000Y-101250000D02*
X94550000Y-100000000D01*
X89450000Y-59250000D02*
X93300000Y-59250000D01*
X94630000Y-86270000D02*
X94550000Y-86350000D01*
X93300000Y-59250000D02*
X94550000Y-58000000D01*
X109930000Y-86730000D02*
X112122705Y-86730000D01*
X89450000Y-68250000D02*
X93300000Y-68250000D01*
X93300000Y-46250000D02*
X94550000Y-45000000D01*
X108000000Y-86270000D02*
X94630000Y-86270000D01*
X93300000Y-80250000D02*
X94550000Y-79000000D01*
X108000000Y-86270000D02*
X109470000Y-86270000D01*
X93300000Y-91250000D02*
X94550000Y-90000000D01*
X89450000Y-91250000D02*
X93300000Y-91250000D01*
X93300000Y-68250000D02*
X94550000Y-67000000D01*
%TO.N,Net-(R1-Pad2)*%
X110075000Y-85000000D02*
X110535000Y-85460000D01*
X114490000Y-85460000D02*
X112122705Y-85460000D01*
X108000000Y-85000000D02*
X110075000Y-85000000D01*
X115777705Y-85460000D02*
X114490000Y-85460000D01*
X107900000Y-95400000D02*
X108825000Y-94475000D01*
X117522705Y-86730000D02*
X117047705Y-86730000D01*
X109350000Y-93950000D02*
X109350000Y-88800000D01*
X108825000Y-94475000D02*
X109350000Y-93950000D01*
X110535000Y-85460000D02*
X112122705Y-85460000D01*
X107900000Y-96725000D02*
X107900000Y-95400000D01*
X117047705Y-86730000D02*
X115777705Y-85460000D01*
%TO.N,Net-(R2-Pad2)*%
X147335000Y-83950000D02*
X147335000Y-80790000D01*
X147335000Y-80790000D02*
X147270000Y-80725000D01*
%TO.N,Net-(RV1-Pad1)*%
X76900000Y-108150000D02*
X83100000Y-108150000D01*
X83500000Y-107750000D02*
X83100000Y-108150000D01*
X89050000Y-108150000D02*
X89450000Y-107750000D01*
X83100000Y-108150000D02*
X89050000Y-108150000D01*
%TO.N,Net-(RV2-Pad1)*%
X89050000Y-99150000D02*
X89450000Y-98750000D01*
X76900000Y-99150000D02*
X89050000Y-99150000D01*
%TO.N,Net-(RV3-Pad1)*%
X76900000Y-89150000D02*
X89050000Y-89150000D01*
X89050000Y-89150000D02*
X89450000Y-88750000D01*
%TO.N,Net-(RV4-Pad1)*%
X89050000Y-78150000D02*
X89450000Y-77750000D01*
X76900000Y-78150000D02*
X89050000Y-78150000D01*
%TO.N,Net-(RV5-Pad1)*%
X76900000Y-66150000D02*
X89050000Y-66150000D01*
X89050000Y-66150000D02*
X89450000Y-65750000D01*
%TO.N,Net-(RV6-Pad1)*%
X76900000Y-56150000D02*
X88850000Y-56150000D01*
X88850000Y-56150000D02*
X89450000Y-56750000D01*
%TO.N,Net-(RV7-Pad1)*%
X76900000Y-44150000D02*
X83100000Y-44150000D01*
X83500000Y-43750000D02*
X83100000Y-44150000D01*
X89450000Y-43750000D02*
X83500000Y-43750000D01*
%TO.N,Net-(RV9-Pad2)*%
X147335000Y-86490000D02*
X141360000Y-86490000D01*
X141360000Y-86490000D02*
X141175000Y-86675000D01*
%TD*%
%TA.AperFunction,Conductor*%
%TO.N,VCC*%
G36*
X173929191Y-35768907D02*
G01*
X173965155Y-35818407D01*
X173970000Y-35849000D01*
X173970000Y-135251000D01*
X173951093Y-135309191D01*
X173901593Y-135345155D01*
X173871000Y-135350000D01*
X74469000Y-135350000D01*
X74410809Y-135331093D01*
X74374845Y-135281593D01*
X74370000Y-135251000D01*
X74370000Y-127700000D01*
X84424500Y-127700000D01*
X84424500Y-129700000D01*
X84440143Y-129778641D01*
X84484690Y-129845310D01*
X84551359Y-129889857D01*
X84560922Y-129891759D01*
X84560924Y-129891760D01*
X84586200Y-129896787D01*
X84630000Y-129905500D01*
X86630000Y-129905500D01*
X86673800Y-129896787D01*
X86699076Y-129891760D01*
X86699078Y-129891759D01*
X86708641Y-129889857D01*
X86775310Y-129845310D01*
X86819857Y-129778641D01*
X86835500Y-129700000D01*
X86835500Y-127995835D01*
X86854407Y-127937644D01*
X86864496Y-127925831D01*
X87695830Y-127094496D01*
X87750347Y-127066719D01*
X87765834Y-127065500D01*
X89048105Y-127065500D01*
X89106296Y-127084407D01*
X89142260Y-127133907D01*
X89146004Y-127149779D01*
X89149636Y-127173935D01*
X89152839Y-127180606D01*
X89152840Y-127180608D01*
X89168844Y-127213935D01*
X89208265Y-127296029D01*
X89300202Y-127395486D01*
X89350300Y-127424585D01*
X89410917Y-127459795D01*
X89410920Y-127459796D01*
X89417319Y-127463513D01*
X89425909Y-127465504D01*
X89528246Y-127489225D01*
X89528249Y-127489225D01*
X89533748Y-127490500D01*
X90118258Y-127490500D01*
X90154697Y-127485022D01*
X90211614Y-127476465D01*
X90211616Y-127476464D01*
X90218935Y-127475364D01*
X90225606Y-127472161D01*
X90225608Y-127472160D01*
X90334361Y-127419937D01*
X90341029Y-127416735D01*
X90440486Y-127324798D01*
X90469585Y-127274700D01*
X90504795Y-127214083D01*
X90504796Y-127214080D01*
X90508513Y-127207681D01*
X90514432Y-127182145D01*
X90545991Y-127129726D01*
X90602334Y-127105869D01*
X90610875Y-127105500D01*
X91968105Y-127105500D01*
X92026296Y-127124407D01*
X92062260Y-127173907D01*
X92066004Y-127189779D01*
X92069636Y-127213935D01*
X92072839Y-127220606D01*
X92072840Y-127220608D01*
X92119799Y-127318398D01*
X92128265Y-127336029D01*
X92220202Y-127435486D01*
X92262053Y-127459795D01*
X92330917Y-127499795D01*
X92330920Y-127499796D01*
X92337319Y-127503513D01*
X92357713Y-127508240D01*
X92448246Y-127529225D01*
X92448249Y-127529225D01*
X92453748Y-127530500D01*
X93004165Y-127530500D01*
X93062356Y-127549407D01*
X93074169Y-127559496D01*
X95706907Y-130192234D01*
X95712741Y-130198601D01*
X95737559Y-130228178D01*
X95771214Y-130247608D01*
X95778497Y-130252248D01*
X95803228Y-130269565D01*
X95803230Y-130269566D01*
X95810325Y-130274534D01*
X95818694Y-130276776D01*
X95823994Y-130279248D01*
X95829463Y-130281239D01*
X95836962Y-130285568D01*
X95845489Y-130287072D01*
X95845490Y-130287072D01*
X95861800Y-130289948D01*
X95875233Y-130292317D01*
X95883658Y-130294184D01*
X95921194Y-130304242D01*
X95959656Y-130300877D01*
X95968284Y-130300500D01*
X100560500Y-130300500D01*
X100618691Y-130319407D01*
X100654655Y-130368907D01*
X100659500Y-130399500D01*
X100659500Y-132230000D01*
X100675143Y-132308641D01*
X100719690Y-132375310D01*
X100786359Y-132419857D01*
X100795922Y-132421759D01*
X100795924Y-132421760D01*
X100821200Y-132426787D01*
X100865000Y-132435500D01*
X102985000Y-132435500D01*
X103028800Y-132426787D01*
X103054076Y-132421760D01*
X103054078Y-132421759D01*
X103063641Y-132419857D01*
X103130310Y-132375310D01*
X103174857Y-132308641D01*
X103190500Y-132230000D01*
X103190500Y-127720000D01*
X103174857Y-127641359D01*
X103130310Y-127574690D01*
X103063641Y-127530143D01*
X103054078Y-127528241D01*
X103054076Y-127528240D01*
X103028800Y-127523213D01*
X102985000Y-127514500D01*
X100865000Y-127514500D01*
X100821200Y-127523213D01*
X100795924Y-127528240D01*
X100795922Y-127528241D01*
X100786359Y-127530143D01*
X100719690Y-127574690D01*
X100675143Y-127641359D01*
X100659500Y-127720000D01*
X100659500Y-129550500D01*
X100640593Y-129608691D01*
X100591093Y-129644655D01*
X100560500Y-129649500D01*
X96125835Y-129649500D01*
X96067644Y-129630593D01*
X96055831Y-129620504D01*
X93484496Y-127049169D01*
X93456719Y-126994652D01*
X93455500Y-126979165D01*
X93455500Y-126446742D01*
X93445143Y-126377854D01*
X93441465Y-126353386D01*
X93441464Y-126353384D01*
X93440364Y-126346065D01*
X93427624Y-126319533D01*
X93384937Y-126230639D01*
X93381735Y-126223971D01*
X93371669Y-126213081D01*
X93346051Y-126157517D01*
X93357987Y-126097507D01*
X93360549Y-126093706D01*
X93424330Y-125983899D01*
X93429720Y-125970283D01*
X93453725Y-125866720D01*
X93455000Y-125855571D01*
X93455000Y-125725680D01*
X93450878Y-125712995D01*
X93446757Y-125710000D01*
X92070680Y-125710000D01*
X92057995Y-125714122D01*
X92055000Y-125718243D01*
X92055000Y-125839558D01*
X92055550Y-125846914D01*
X92069014Y-125936471D01*
X92073317Y-125950459D01*
X92125474Y-126059076D01*
X92133701Y-126071182D01*
X92138301Y-126076158D01*
X92163918Y-126131723D01*
X92151982Y-126191733D01*
X92149859Y-126194883D01*
X92149514Y-126195202D01*
X92148704Y-126196597D01*
X92148701Y-126196601D01*
X92085205Y-126305917D01*
X92085204Y-126305920D01*
X92081487Y-126312319D01*
X92068067Y-126370219D01*
X92066297Y-126377854D01*
X92034739Y-126430273D01*
X91978397Y-126454131D01*
X91969854Y-126454500D01*
X90627909Y-126454500D01*
X90569718Y-126435593D01*
X90533754Y-126386093D01*
X90530009Y-126370219D01*
X90527478Y-126353386D01*
X90520364Y-126306065D01*
X90507624Y-126279533D01*
X90464937Y-126190639D01*
X90461735Y-126183971D01*
X90451669Y-126173081D01*
X90426051Y-126117517D01*
X90437987Y-126057507D01*
X90440549Y-126053706D01*
X90504330Y-125943899D01*
X90509720Y-125930283D01*
X90533725Y-125826720D01*
X90535000Y-125815571D01*
X90535000Y-125685680D01*
X90530878Y-125672995D01*
X90526757Y-125670000D01*
X89150680Y-125670000D01*
X89137995Y-125674122D01*
X89135000Y-125678243D01*
X89135000Y-125799558D01*
X89135550Y-125806914D01*
X89149014Y-125896471D01*
X89153317Y-125910459D01*
X89205474Y-126019076D01*
X89213701Y-126031182D01*
X89218301Y-126036158D01*
X89243918Y-126091723D01*
X89231982Y-126151733D01*
X89229859Y-126154883D01*
X89229514Y-126155202D01*
X89228704Y-126156597D01*
X89228701Y-126156601D01*
X89165205Y-126265917D01*
X89165204Y-126265920D01*
X89161487Y-126272319D01*
X89150544Y-126319533D01*
X89146297Y-126337854D01*
X89114739Y-126390273D01*
X89058397Y-126414131D01*
X89049854Y-126414500D01*
X87608297Y-126414500D01*
X87599668Y-126414123D01*
X87599167Y-126414079D01*
X87561195Y-126410757D01*
X87552833Y-126412998D01*
X87552828Y-126412998D01*
X87523648Y-126420817D01*
X87515218Y-126422686D01*
X87508373Y-126423893D01*
X87485489Y-126427928D01*
X87485487Y-126427929D01*
X87476962Y-126429432D01*
X87469464Y-126433761D01*
X87463982Y-126435756D01*
X87458693Y-126438223D01*
X87450325Y-126440465D01*
X87430808Y-126454131D01*
X87418497Y-126462751D01*
X87411216Y-126467390D01*
X87377559Y-126486822D01*
X87371993Y-126493455D01*
X87371991Y-126493457D01*
X87352737Y-126516404D01*
X87346902Y-126522772D01*
X86404169Y-127465504D01*
X86349652Y-127493281D01*
X86334165Y-127494500D01*
X84630000Y-127494500D01*
X84586200Y-127503213D01*
X84560924Y-127508240D01*
X84560922Y-127508241D01*
X84551359Y-127510143D01*
X84484690Y-127554690D01*
X84440143Y-127621359D01*
X84438241Y-127630922D01*
X84438240Y-127630924D01*
X84434262Y-127650924D01*
X84424500Y-127700000D01*
X74370000Y-127700000D01*
X74370000Y-125124429D01*
X89135000Y-125124429D01*
X89135000Y-125254320D01*
X89139122Y-125267005D01*
X89143243Y-125270000D01*
X89619320Y-125270000D01*
X89632005Y-125265878D01*
X89635000Y-125261757D01*
X89635000Y-124735680D01*
X89632583Y-124728243D01*
X90035000Y-124728243D01*
X90035000Y-125254320D01*
X90039122Y-125267005D01*
X90043243Y-125270000D01*
X90519320Y-125270000D01*
X90532005Y-125265878D01*
X90535000Y-125261757D01*
X90535000Y-125164429D01*
X92055000Y-125164429D01*
X92055000Y-125294320D01*
X92059122Y-125307005D01*
X92063243Y-125310000D01*
X92539320Y-125310000D01*
X92552005Y-125305878D01*
X92555000Y-125301757D01*
X92555000Y-124775680D01*
X92552583Y-124768243D01*
X92955000Y-124768243D01*
X92955000Y-125294320D01*
X92959122Y-125307005D01*
X92963243Y-125310000D01*
X93439320Y-125310000D01*
X93452005Y-125305878D01*
X93455000Y-125301757D01*
X93455000Y-125180443D01*
X93454450Y-125173086D01*
X93440986Y-125083529D01*
X93436683Y-125069541D01*
X93384524Y-124960921D01*
X93376302Y-124948821D01*
X93294508Y-124860338D01*
X93283085Y-124851186D01*
X93178899Y-124790670D01*
X93165283Y-124785280D01*
X93061720Y-124761275D01*
X93050571Y-124760000D01*
X92970680Y-124760000D01*
X92957995Y-124764122D01*
X92955000Y-124768243D01*
X92552583Y-124768243D01*
X92550878Y-124762995D01*
X92546757Y-124760000D01*
X92475443Y-124760000D01*
X92468086Y-124760550D01*
X92378529Y-124774014D01*
X92364541Y-124778317D01*
X92255921Y-124830476D01*
X92243821Y-124838698D01*
X92155338Y-124920492D01*
X92146186Y-124931915D01*
X92085670Y-125036101D01*
X92080280Y-125049717D01*
X92056275Y-125153280D01*
X92055000Y-125164429D01*
X90535000Y-125164429D01*
X90535000Y-125140443D01*
X90534450Y-125133086D01*
X90520986Y-125043529D01*
X90516683Y-125029541D01*
X90464524Y-124920921D01*
X90456302Y-124908821D01*
X90374508Y-124820338D01*
X90363085Y-124811186D01*
X90258899Y-124750670D01*
X90245283Y-124745280D01*
X90141720Y-124721275D01*
X90130571Y-124720000D01*
X90050680Y-124720000D01*
X90037995Y-124724122D01*
X90035000Y-124728243D01*
X89632583Y-124728243D01*
X89630878Y-124722995D01*
X89626757Y-124720000D01*
X89555443Y-124720000D01*
X89548086Y-124720550D01*
X89458529Y-124734014D01*
X89444541Y-124738317D01*
X89335921Y-124790476D01*
X89323821Y-124798698D01*
X89235338Y-124880492D01*
X89226186Y-124891915D01*
X89165670Y-124996101D01*
X89160280Y-125009717D01*
X89136275Y-125113280D01*
X89135000Y-125124429D01*
X74370000Y-125124429D01*
X74370000Y-124679200D01*
X84939472Y-124679200D01*
X84939479Y-124679245D01*
X84945002Y-124685460D01*
X85051246Y-124756451D01*
X85059201Y-124760769D01*
X85253456Y-124844228D01*
X85262067Y-124847026D01*
X85468290Y-124893690D01*
X85477249Y-124894869D01*
X85688532Y-124903171D01*
X85697559Y-124902697D01*
X85906808Y-124872358D01*
X85915599Y-124870247D01*
X86115821Y-124802281D01*
X86124079Y-124798604D01*
X86308552Y-124695294D01*
X86315660Y-124690409D01*
X86322710Y-124679236D01*
X86322525Y-124676405D01*
X86320523Y-124673366D01*
X85641086Y-123993929D01*
X85629203Y-123987875D01*
X85624172Y-123988671D01*
X84945526Y-124667317D01*
X84939472Y-124679200D01*
X74370000Y-124679200D01*
X74370000Y-123672984D01*
X84425710Y-123672984D01*
X84439539Y-123883978D01*
X84440952Y-123892899D01*
X84492999Y-124097835D01*
X84496019Y-124106363D01*
X84584538Y-124298376D01*
X84589059Y-124306207D01*
X84642905Y-124382397D01*
X84653592Y-124390377D01*
X84654341Y-124390387D01*
X84660472Y-124386685D01*
X85336071Y-123711086D01*
X85341313Y-123700797D01*
X85917875Y-123700797D01*
X85918671Y-123705828D01*
X86599405Y-124386562D01*
X86611288Y-124392616D01*
X86614089Y-124392173D01*
X86616936Y-124389898D01*
X86620164Y-124386017D01*
X86625294Y-124378552D01*
X86728604Y-124194079D01*
X86732281Y-124185821D01*
X86800247Y-123985599D01*
X86802358Y-123976808D01*
X86832929Y-123765964D01*
X86833426Y-123760140D01*
X86834924Y-123702914D01*
X86834734Y-123697101D01*
X86815237Y-123484924D01*
X86813590Y-123476038D01*
X86756196Y-123272536D01*
X86752955Y-123264093D01*
X86659442Y-123074466D01*
X86654712Y-123066748D01*
X86617660Y-123017129D01*
X86606768Y-123009431D01*
X86605319Y-123009450D01*
X86600226Y-123012617D01*
X85923929Y-123688914D01*
X85917875Y-123700797D01*
X85341313Y-123700797D01*
X85342125Y-123699203D01*
X85341329Y-123694172D01*
X84661991Y-123014834D01*
X84650108Y-123008780D01*
X84647991Y-123009115D01*
X84644261Y-123012176D01*
X84622212Y-123040145D01*
X84617288Y-123047728D01*
X84518835Y-123234855D01*
X84515381Y-123243195D01*
X84452679Y-123445127D01*
X84450798Y-123453977D01*
X84425946Y-123663952D01*
X84425710Y-123672984D01*
X74370000Y-123672984D01*
X74370000Y-122720468D01*
X84937131Y-122720468D01*
X84941827Y-122728984D01*
X85618914Y-123406071D01*
X85630797Y-123412125D01*
X85635828Y-123411329D01*
X86315432Y-122731725D01*
X86321310Y-122720187D01*
X86315217Y-122713509D01*
X86180896Y-122628758D01*
X86172843Y-122624655D01*
X85976451Y-122546303D01*
X85967792Y-122543738D01*
X85760411Y-122502487D01*
X85751418Y-122501542D01*
X85539997Y-122498774D01*
X85530979Y-122499484D01*
X85322595Y-122535291D01*
X85313868Y-122537629D01*
X85115493Y-122610814D01*
X85107331Y-122614707D01*
X84945388Y-122711053D01*
X84937131Y-122720468D01*
X74370000Y-122720468D01*
X74370000Y-121183243D01*
X100660000Y-121183243D01*
X100660000Y-123225142D01*
X100660948Y-123234763D01*
X100673703Y-123298888D01*
X100681022Y-123316557D01*
X100714624Y-123366847D01*
X100728153Y-123380376D01*
X100778443Y-123413978D01*
X100796112Y-123421297D01*
X100860237Y-123434052D01*
X100869858Y-123435000D01*
X101709320Y-123435000D01*
X101722005Y-123430878D01*
X101725000Y-123426757D01*
X101725000Y-121190680D01*
X101722583Y-121183243D01*
X102125000Y-121183243D01*
X102125000Y-123419320D01*
X102129122Y-123432005D01*
X102133243Y-123435000D01*
X102980142Y-123435000D01*
X102989763Y-123434052D01*
X103053888Y-123421297D01*
X103071557Y-123413978D01*
X103121847Y-123380376D01*
X103135376Y-123366847D01*
X103168978Y-123316557D01*
X103176297Y-123298888D01*
X103189052Y-123234763D01*
X103190000Y-123225142D01*
X103190000Y-121190680D01*
X103185878Y-121177995D01*
X103181757Y-121175000D01*
X102140680Y-121175000D01*
X102127995Y-121179122D01*
X102125000Y-121183243D01*
X101722583Y-121183243D01*
X101720878Y-121177995D01*
X101716757Y-121175000D01*
X100675680Y-121175000D01*
X100662995Y-121179122D01*
X100660000Y-121183243D01*
X74370000Y-121183243D01*
X74370000Y-118724858D01*
X100660000Y-118724858D01*
X100660000Y-120759320D01*
X100664122Y-120772005D01*
X100668243Y-120775000D01*
X101709320Y-120775000D01*
X101722005Y-120770878D01*
X101725000Y-120766757D01*
X101725000Y-118530680D01*
X101722583Y-118523243D01*
X102125000Y-118523243D01*
X102125000Y-120759320D01*
X102129122Y-120772005D01*
X102133243Y-120775000D01*
X103174320Y-120775000D01*
X103187005Y-120770878D01*
X103190000Y-120766757D01*
X103190000Y-118724858D01*
X103189052Y-118715237D01*
X103176297Y-118651112D01*
X103168978Y-118633443D01*
X103135376Y-118583153D01*
X103121847Y-118569624D01*
X103071557Y-118536022D01*
X103053888Y-118528703D01*
X102989763Y-118515948D01*
X102980142Y-118515000D01*
X102140680Y-118515000D01*
X102127995Y-118519122D01*
X102125000Y-118523243D01*
X101722583Y-118523243D01*
X101720878Y-118517995D01*
X101716757Y-118515000D01*
X100869858Y-118515000D01*
X100860237Y-118515948D01*
X100796112Y-118528703D01*
X100778443Y-118536022D01*
X100728153Y-118569624D01*
X100714624Y-118583153D01*
X100681022Y-118633443D01*
X100673703Y-118651112D01*
X100660948Y-118715237D01*
X100660000Y-118724858D01*
X74370000Y-118724858D01*
X74370000Y-116158444D01*
X164694913Y-116158444D01*
X164709342Y-116378582D01*
X164763646Y-116592404D01*
X164856006Y-116792750D01*
X164983331Y-116972910D01*
X165141354Y-117126849D01*
X165324785Y-117249414D01*
X165527480Y-117336499D01*
X165742651Y-117385187D01*
X165852871Y-117389518D01*
X165958558Y-117393670D01*
X165958559Y-117393670D01*
X165963091Y-117393848D01*
X166072255Y-117378020D01*
X166176924Y-117362844D01*
X166176928Y-117362843D01*
X166181418Y-117362192D01*
X166198960Y-117356237D01*
X166386024Y-117292738D01*
X166386027Y-117292736D01*
X166390321Y-117291279D01*
X166582803Y-117183484D01*
X166752417Y-117042417D01*
X166893484Y-116872803D01*
X167001279Y-116680321D01*
X167072192Y-116471418D01*
X167085016Y-116382977D01*
X167103428Y-116255990D01*
X167103428Y-116255984D01*
X167103848Y-116253091D01*
X167105500Y-116190000D01*
X167103017Y-116162971D01*
X167085729Y-115974833D01*
X167085314Y-115970315D01*
X167025431Y-115757987D01*
X166927858Y-115560128D01*
X166795861Y-115383363D01*
X166633862Y-115233613D01*
X166608685Y-115217727D01*
X166451123Y-115118313D01*
X166447286Y-115115892D01*
X166242380Y-115034143D01*
X166026009Y-114991104D01*
X165917318Y-114989681D01*
X165809958Y-114988275D01*
X165809953Y-114988275D01*
X165805418Y-114988216D01*
X165800945Y-114988985D01*
X165800940Y-114988985D01*
X165693033Y-115007527D01*
X165587994Y-115025576D01*
X165381019Y-115101933D01*
X165191425Y-115214730D01*
X165188010Y-115217725D01*
X165188007Y-115217727D01*
X165169893Y-115233613D01*
X165025561Y-115360189D01*
X164888983Y-115533438D01*
X164886870Y-115537453D01*
X164886870Y-115537454D01*
X164872796Y-115564205D01*
X164786263Y-115728675D01*
X164720843Y-115939362D01*
X164694913Y-116158444D01*
X74370000Y-116158444D01*
X74370000Y-112058243D01*
X75795000Y-112058243D01*
X75795000Y-112395142D01*
X75795948Y-112404763D01*
X75808703Y-112468888D01*
X75816022Y-112486557D01*
X75849624Y-112536847D01*
X75863153Y-112550376D01*
X75913443Y-112583978D01*
X75931112Y-112591297D01*
X75995237Y-112604052D01*
X76004858Y-112605000D01*
X76684320Y-112605000D01*
X76697005Y-112600878D01*
X76700000Y-112596757D01*
X76700000Y-112065680D01*
X76697583Y-112058243D01*
X77100000Y-112058243D01*
X77100000Y-112589320D01*
X77104122Y-112602005D01*
X77108243Y-112605000D01*
X77795142Y-112605000D01*
X77804763Y-112604052D01*
X77868888Y-112591297D01*
X77886557Y-112583978D01*
X77936847Y-112550376D01*
X77950376Y-112536847D01*
X77983978Y-112486557D01*
X77991297Y-112468888D01*
X78004052Y-112404763D01*
X78005000Y-112395142D01*
X78005000Y-112065680D01*
X78002583Y-112058243D01*
X81995000Y-112058243D01*
X81995000Y-112395142D01*
X81995948Y-112404763D01*
X82008703Y-112468888D01*
X82016022Y-112486557D01*
X82049624Y-112536847D01*
X82063153Y-112550376D01*
X82113443Y-112583978D01*
X82131112Y-112591297D01*
X82195237Y-112604052D01*
X82204858Y-112605000D01*
X82884320Y-112605000D01*
X82897005Y-112600878D01*
X82900000Y-112596757D01*
X82900000Y-112065680D01*
X82897583Y-112058243D01*
X83300000Y-112058243D01*
X83300000Y-112589320D01*
X83304122Y-112602005D01*
X83308243Y-112605000D01*
X83995142Y-112605000D01*
X84004763Y-112604052D01*
X84068888Y-112591297D01*
X84086557Y-112583978D01*
X84136847Y-112550376D01*
X84150376Y-112536847D01*
X84183978Y-112486557D01*
X84191297Y-112468888D01*
X84204052Y-112404763D01*
X84205000Y-112395142D01*
X84205000Y-112065680D01*
X84200878Y-112052995D01*
X84196757Y-112050000D01*
X83315680Y-112050000D01*
X83302995Y-112054122D01*
X83300000Y-112058243D01*
X82897583Y-112058243D01*
X82895878Y-112052995D01*
X82891757Y-112050000D01*
X82010680Y-112050000D01*
X81997995Y-112054122D01*
X81995000Y-112058243D01*
X78002583Y-112058243D01*
X78000878Y-112052995D01*
X77996757Y-112050000D01*
X77115680Y-112050000D01*
X77102995Y-112054122D01*
X77100000Y-112058243D01*
X76697583Y-112058243D01*
X76695878Y-112052995D01*
X76691757Y-112050000D01*
X75810680Y-112050000D01*
X75797995Y-112054122D01*
X75795000Y-112058243D01*
X74370000Y-112058243D01*
X74370000Y-111304858D01*
X75795000Y-111304858D01*
X75795000Y-111634320D01*
X75799122Y-111647005D01*
X75803243Y-111650000D01*
X76684320Y-111650000D01*
X76697005Y-111645878D01*
X76700000Y-111641757D01*
X76700000Y-111110680D01*
X76697583Y-111103243D01*
X77100000Y-111103243D01*
X77100000Y-111634320D01*
X77104122Y-111647005D01*
X77108243Y-111650000D01*
X77989320Y-111650000D01*
X78002005Y-111645878D01*
X78005000Y-111641757D01*
X78005000Y-111304858D01*
X81995000Y-111304858D01*
X81995000Y-111634320D01*
X81999122Y-111647005D01*
X82003243Y-111650000D01*
X82884320Y-111650000D01*
X82897005Y-111645878D01*
X82900000Y-111641757D01*
X82900000Y-111110680D01*
X82897583Y-111103243D01*
X83300000Y-111103243D01*
X83300000Y-111634320D01*
X83304122Y-111647005D01*
X83308243Y-111650000D01*
X84189320Y-111650000D01*
X84202005Y-111645878D01*
X84205000Y-111641757D01*
X84205000Y-111304858D01*
X84204052Y-111295237D01*
X84191297Y-111231112D01*
X84183978Y-111213443D01*
X84150376Y-111163153D01*
X84136847Y-111149624D01*
X84086557Y-111116022D01*
X84068888Y-111108703D01*
X84004763Y-111095948D01*
X83995142Y-111095000D01*
X83315680Y-111095000D01*
X83302995Y-111099122D01*
X83300000Y-111103243D01*
X82897583Y-111103243D01*
X82895878Y-111097995D01*
X82891757Y-111095000D01*
X82204858Y-111095000D01*
X82195237Y-111095948D01*
X82131112Y-111108703D01*
X82113443Y-111116022D01*
X82063153Y-111149624D01*
X82049624Y-111163153D01*
X82016022Y-111213443D01*
X82008703Y-111231112D01*
X81995948Y-111295237D01*
X81995000Y-111304858D01*
X78005000Y-111304858D01*
X78004052Y-111295237D01*
X77991297Y-111231112D01*
X77983978Y-111213443D01*
X77950376Y-111163153D01*
X77936847Y-111149624D01*
X77886557Y-111116022D01*
X77868888Y-111108703D01*
X77804763Y-111095948D01*
X77795142Y-111095000D01*
X77115680Y-111095000D01*
X77102995Y-111099122D01*
X77100000Y-111103243D01*
X76697583Y-111103243D01*
X76695878Y-111097995D01*
X76691757Y-111095000D01*
X76004858Y-111095000D01*
X75995237Y-111095948D01*
X75931112Y-111108703D01*
X75913443Y-111116022D01*
X75863153Y-111149624D01*
X75849624Y-111163153D01*
X75816022Y-111213443D01*
X75808703Y-111231112D01*
X75795948Y-111295237D01*
X75795000Y-111304858D01*
X74370000Y-111304858D01*
X74370000Y-107600000D01*
X75794500Y-107600000D01*
X75794500Y-108700000D01*
X75810143Y-108778641D01*
X75854690Y-108845310D01*
X75921359Y-108889857D01*
X75930922Y-108891759D01*
X75930924Y-108891760D01*
X75956200Y-108896787D01*
X76000000Y-108905500D01*
X77800000Y-108905500D01*
X77843800Y-108896787D01*
X77869076Y-108891760D01*
X77869078Y-108891759D01*
X77878641Y-108889857D01*
X77945310Y-108845310D01*
X77989857Y-108778641D01*
X78005500Y-108700000D01*
X78005500Y-108574500D01*
X78024407Y-108516309D01*
X78073907Y-108480345D01*
X78104500Y-108475500D01*
X81895500Y-108475500D01*
X81953691Y-108494407D01*
X81989655Y-108543907D01*
X81994500Y-108574500D01*
X81994500Y-108700000D01*
X82010143Y-108778641D01*
X82054690Y-108845310D01*
X82121359Y-108889857D01*
X82130922Y-108891759D01*
X82130924Y-108891760D01*
X82156200Y-108896787D01*
X82200000Y-108905500D01*
X84000000Y-108905500D01*
X84043800Y-108896787D01*
X84069076Y-108891760D01*
X84069078Y-108891759D01*
X84078641Y-108889857D01*
X84145310Y-108845310D01*
X84189857Y-108778641D01*
X84205500Y-108700000D01*
X84205500Y-108574500D01*
X84224407Y-108516309D01*
X84273907Y-108480345D01*
X84304500Y-108475500D01*
X88255128Y-108475500D01*
X88313319Y-108494407D01*
X88337443Y-108519498D01*
X88354690Y-108545310D01*
X88421359Y-108589857D01*
X88430922Y-108591759D01*
X88430924Y-108591760D01*
X88456200Y-108596787D01*
X88500000Y-108605500D01*
X90400000Y-108605500D01*
X90443800Y-108596787D01*
X90469076Y-108591760D01*
X90469078Y-108591759D01*
X90478641Y-108589857D01*
X90545310Y-108545310D01*
X90589857Y-108478641D01*
X90605500Y-108400000D01*
X90605500Y-107100000D01*
X90589857Y-107021359D01*
X90545310Y-106954690D01*
X90478641Y-106910143D01*
X90469078Y-106908241D01*
X90469076Y-106908240D01*
X90443800Y-106903213D01*
X90400000Y-106894500D01*
X88500000Y-106894500D01*
X88456200Y-106903213D01*
X88430924Y-106908240D01*
X88430922Y-106908241D01*
X88421359Y-106910143D01*
X88354690Y-106954690D01*
X88310143Y-107021359D01*
X88294500Y-107100000D01*
X88294500Y-107725500D01*
X88275593Y-107783691D01*
X88226093Y-107819655D01*
X88195500Y-107824500D01*
X84304500Y-107824500D01*
X84246309Y-107805593D01*
X84210345Y-107756093D01*
X84205500Y-107725500D01*
X84205500Y-107600000D01*
X84189857Y-107521359D01*
X84145310Y-107454690D01*
X84078641Y-107410143D01*
X84069078Y-107408241D01*
X84069076Y-107408240D01*
X84043800Y-107403213D01*
X84000000Y-107394500D01*
X82200000Y-107394500D01*
X82156200Y-107403213D01*
X82130924Y-107408240D01*
X82130922Y-107408241D01*
X82121359Y-107410143D01*
X82054690Y-107454690D01*
X82010143Y-107521359D01*
X81994500Y-107600000D01*
X81994500Y-107725500D01*
X81975593Y-107783691D01*
X81926093Y-107819655D01*
X81895500Y-107824500D01*
X78104500Y-107824500D01*
X78046309Y-107805593D01*
X78010345Y-107756093D01*
X78005500Y-107725500D01*
X78005500Y-107600000D01*
X77989857Y-107521359D01*
X77945310Y-107454690D01*
X77878641Y-107410143D01*
X77869078Y-107408241D01*
X77869076Y-107408240D01*
X77843800Y-107403213D01*
X77800000Y-107394500D01*
X76000000Y-107394500D01*
X75956200Y-107403213D01*
X75930924Y-107408240D01*
X75930922Y-107408241D01*
X75921359Y-107410143D01*
X75854690Y-107454690D01*
X75810143Y-107521359D01*
X75794500Y-107600000D01*
X74370000Y-107600000D01*
X74370000Y-103058243D01*
X75795000Y-103058243D01*
X75795000Y-103395142D01*
X75795948Y-103404763D01*
X75808703Y-103468888D01*
X75816022Y-103486557D01*
X75849624Y-103536847D01*
X75863153Y-103550376D01*
X75913443Y-103583978D01*
X75931112Y-103591297D01*
X75995237Y-103604052D01*
X76004858Y-103605000D01*
X76684320Y-103605000D01*
X76697005Y-103600878D01*
X76700000Y-103596757D01*
X76700000Y-103065680D01*
X76697583Y-103058243D01*
X77100000Y-103058243D01*
X77100000Y-103589320D01*
X77104122Y-103602005D01*
X77108243Y-103605000D01*
X77795142Y-103605000D01*
X77804763Y-103604052D01*
X77868888Y-103591297D01*
X77886557Y-103583978D01*
X77936847Y-103550376D01*
X77950376Y-103536847D01*
X77983978Y-103486557D01*
X77991297Y-103468888D01*
X78004052Y-103404763D01*
X78005000Y-103395142D01*
X78005000Y-103065680D01*
X78002583Y-103058243D01*
X81995000Y-103058243D01*
X81995000Y-103395142D01*
X81995948Y-103404763D01*
X82008703Y-103468888D01*
X82016022Y-103486557D01*
X82049624Y-103536847D01*
X82063153Y-103550376D01*
X82113443Y-103583978D01*
X82131112Y-103591297D01*
X82195237Y-103604052D01*
X82204858Y-103605000D01*
X82884320Y-103605000D01*
X82897005Y-103600878D01*
X82900000Y-103596757D01*
X82900000Y-103065680D01*
X82897583Y-103058243D01*
X83300000Y-103058243D01*
X83300000Y-103589320D01*
X83304122Y-103602005D01*
X83308243Y-103605000D01*
X83995142Y-103605000D01*
X84004763Y-103604052D01*
X84068888Y-103591297D01*
X84086557Y-103583978D01*
X84136847Y-103550376D01*
X84150376Y-103536847D01*
X84183978Y-103486557D01*
X84191297Y-103468888D01*
X84204052Y-103404763D01*
X84205000Y-103395142D01*
X84205000Y-103065680D01*
X84200878Y-103052995D01*
X84196757Y-103050000D01*
X83315680Y-103050000D01*
X83302995Y-103054122D01*
X83300000Y-103058243D01*
X82897583Y-103058243D01*
X82895878Y-103052995D01*
X82891757Y-103050000D01*
X82010680Y-103050000D01*
X81997995Y-103054122D01*
X81995000Y-103058243D01*
X78002583Y-103058243D01*
X78000878Y-103052995D01*
X77996757Y-103050000D01*
X77115680Y-103050000D01*
X77102995Y-103054122D01*
X77100000Y-103058243D01*
X76697583Y-103058243D01*
X76695878Y-103052995D01*
X76691757Y-103050000D01*
X75810680Y-103050000D01*
X75797995Y-103054122D01*
X75795000Y-103058243D01*
X74370000Y-103058243D01*
X74370000Y-102304858D01*
X75795000Y-102304858D01*
X75795000Y-102634320D01*
X75799122Y-102647005D01*
X75803243Y-102650000D01*
X76684320Y-102650000D01*
X76697005Y-102645878D01*
X76700000Y-102641757D01*
X76700000Y-102110680D01*
X76697583Y-102103243D01*
X77100000Y-102103243D01*
X77100000Y-102634320D01*
X77104122Y-102647005D01*
X77108243Y-102650000D01*
X77989320Y-102650000D01*
X78002005Y-102645878D01*
X78005000Y-102641757D01*
X78005000Y-102304858D01*
X81995000Y-102304858D01*
X81995000Y-102634320D01*
X81999122Y-102647005D01*
X82003243Y-102650000D01*
X82884320Y-102650000D01*
X82897005Y-102645878D01*
X82900000Y-102641757D01*
X82900000Y-102110680D01*
X82897583Y-102103243D01*
X83300000Y-102103243D01*
X83300000Y-102634320D01*
X83304122Y-102647005D01*
X83308243Y-102650000D01*
X84189320Y-102650000D01*
X84202005Y-102645878D01*
X84205000Y-102641757D01*
X84205000Y-102304858D01*
X84204052Y-102295237D01*
X84191297Y-102231112D01*
X84183978Y-102213443D01*
X84150376Y-102163153D01*
X84136847Y-102149624D01*
X84086557Y-102116022D01*
X84068888Y-102108703D01*
X84004763Y-102095948D01*
X83995142Y-102095000D01*
X83315680Y-102095000D01*
X83302995Y-102099122D01*
X83300000Y-102103243D01*
X82897583Y-102103243D01*
X82895878Y-102097995D01*
X82891757Y-102095000D01*
X82204858Y-102095000D01*
X82195237Y-102095948D01*
X82131112Y-102108703D01*
X82113443Y-102116022D01*
X82063153Y-102149624D01*
X82049624Y-102163153D01*
X82016022Y-102213443D01*
X82008703Y-102231112D01*
X81995948Y-102295237D01*
X81995000Y-102304858D01*
X78005000Y-102304858D01*
X78004052Y-102295237D01*
X77991297Y-102231112D01*
X77983978Y-102213443D01*
X77950376Y-102163153D01*
X77936847Y-102149624D01*
X77886557Y-102116022D01*
X77868888Y-102108703D01*
X77804763Y-102095948D01*
X77795142Y-102095000D01*
X77115680Y-102095000D01*
X77102995Y-102099122D01*
X77100000Y-102103243D01*
X76697583Y-102103243D01*
X76695878Y-102097995D01*
X76691757Y-102095000D01*
X76004858Y-102095000D01*
X75995237Y-102095948D01*
X75931112Y-102108703D01*
X75913443Y-102116022D01*
X75863153Y-102149624D01*
X75849624Y-102163153D01*
X75816022Y-102213443D01*
X75808703Y-102231112D01*
X75795948Y-102295237D01*
X75795000Y-102304858D01*
X74370000Y-102304858D01*
X74370000Y-98600000D01*
X75794500Y-98600000D01*
X75794500Y-99700000D01*
X75810143Y-99778641D01*
X75815562Y-99786751D01*
X75846252Y-99832681D01*
X75854690Y-99845310D01*
X75862800Y-99850729D01*
X75884424Y-99865178D01*
X75921359Y-99889857D01*
X75930922Y-99891759D01*
X75930924Y-99891760D01*
X75956200Y-99896787D01*
X76000000Y-99905500D01*
X77800000Y-99905500D01*
X77843800Y-99896787D01*
X77869076Y-99891760D01*
X77869078Y-99891759D01*
X77878641Y-99889857D01*
X77915576Y-99865178D01*
X77937200Y-99850729D01*
X77945310Y-99845310D01*
X77953749Y-99832681D01*
X77984438Y-99786751D01*
X77989857Y-99778641D01*
X78005500Y-99700000D01*
X78005500Y-99574500D01*
X78024407Y-99516309D01*
X78073907Y-99480345D01*
X78104500Y-99475500D01*
X81895500Y-99475500D01*
X81953691Y-99494407D01*
X81989655Y-99543907D01*
X81994500Y-99574500D01*
X81994500Y-99700000D01*
X82010143Y-99778641D01*
X82015562Y-99786751D01*
X82046252Y-99832681D01*
X82054690Y-99845310D01*
X82062800Y-99850729D01*
X82084424Y-99865178D01*
X82121359Y-99889857D01*
X82130922Y-99891759D01*
X82130924Y-99891760D01*
X82156200Y-99896787D01*
X82200000Y-99905500D01*
X84000000Y-99905500D01*
X84043800Y-99896787D01*
X84069076Y-99891760D01*
X84069078Y-99891759D01*
X84078641Y-99889857D01*
X84115576Y-99865178D01*
X84137200Y-99850729D01*
X84145310Y-99845310D01*
X84153749Y-99832681D01*
X84184438Y-99786751D01*
X84189857Y-99778641D01*
X84205500Y-99700000D01*
X84205500Y-99574500D01*
X84224407Y-99516309D01*
X84273907Y-99480345D01*
X84304500Y-99475500D01*
X88255128Y-99475500D01*
X88313319Y-99494407D01*
X88337443Y-99519498D01*
X88354690Y-99545310D01*
X88421359Y-99589857D01*
X88430922Y-99591759D01*
X88430924Y-99591760D01*
X88456200Y-99596787D01*
X88500000Y-99605500D01*
X90400000Y-99605500D01*
X90443800Y-99596787D01*
X90469076Y-99591760D01*
X90469078Y-99591759D01*
X90478641Y-99589857D01*
X90545310Y-99545310D01*
X90589857Y-99478641D01*
X90605500Y-99400000D01*
X90605500Y-98100000D01*
X90589857Y-98021359D01*
X90545310Y-97954690D01*
X90478641Y-97910143D01*
X90469078Y-97908241D01*
X90469076Y-97908240D01*
X90443800Y-97903213D01*
X90400000Y-97894500D01*
X88500000Y-97894500D01*
X88456200Y-97903213D01*
X88430924Y-97908240D01*
X88430922Y-97908241D01*
X88421359Y-97910143D01*
X88354690Y-97954690D01*
X88310143Y-98021359D01*
X88294500Y-98100000D01*
X88294500Y-98725500D01*
X88275593Y-98783691D01*
X88226093Y-98819655D01*
X88195500Y-98824500D01*
X84304500Y-98824500D01*
X84246309Y-98805593D01*
X84210345Y-98756093D01*
X84205500Y-98725500D01*
X84205500Y-98600000D01*
X84189857Y-98521359D01*
X84145310Y-98454690D01*
X84078641Y-98410143D01*
X84069078Y-98408241D01*
X84069076Y-98408240D01*
X84043800Y-98403213D01*
X84000000Y-98394500D01*
X82200000Y-98394500D01*
X82156200Y-98403213D01*
X82130924Y-98408240D01*
X82130922Y-98408241D01*
X82121359Y-98410143D01*
X82054690Y-98454690D01*
X82010143Y-98521359D01*
X81994500Y-98600000D01*
X81994500Y-98725500D01*
X81975593Y-98783691D01*
X81926093Y-98819655D01*
X81895500Y-98824500D01*
X78104500Y-98824500D01*
X78046309Y-98805593D01*
X78010345Y-98756093D01*
X78005500Y-98725500D01*
X78005500Y-98600000D01*
X77989857Y-98521359D01*
X77945310Y-98454690D01*
X77878641Y-98410143D01*
X77869078Y-98408241D01*
X77869076Y-98408240D01*
X77843800Y-98403213D01*
X77800000Y-98394500D01*
X76000000Y-98394500D01*
X75956200Y-98403213D01*
X75930924Y-98408240D01*
X75930922Y-98408241D01*
X75921359Y-98410143D01*
X75854690Y-98454690D01*
X75810143Y-98521359D01*
X75794500Y-98600000D01*
X74370000Y-98600000D01*
X74370000Y-93058243D01*
X75795000Y-93058243D01*
X75795000Y-93395142D01*
X75795948Y-93404763D01*
X75808703Y-93468888D01*
X75816022Y-93486557D01*
X75849624Y-93536847D01*
X75863153Y-93550376D01*
X75913443Y-93583978D01*
X75931112Y-93591297D01*
X75995237Y-93604052D01*
X76004858Y-93605000D01*
X76684320Y-93605000D01*
X76697005Y-93600878D01*
X76700000Y-93596757D01*
X76700000Y-93065680D01*
X76697583Y-93058243D01*
X77100000Y-93058243D01*
X77100000Y-93589320D01*
X77104122Y-93602005D01*
X77108243Y-93605000D01*
X77795142Y-93605000D01*
X77804763Y-93604052D01*
X77868888Y-93591297D01*
X77886557Y-93583978D01*
X77936847Y-93550376D01*
X77950376Y-93536847D01*
X77983978Y-93486557D01*
X77991297Y-93468888D01*
X78004052Y-93404763D01*
X78005000Y-93395142D01*
X78005000Y-93065680D01*
X78002583Y-93058243D01*
X81995000Y-93058243D01*
X81995000Y-93395142D01*
X81995948Y-93404763D01*
X82008703Y-93468888D01*
X82016022Y-93486557D01*
X82049624Y-93536847D01*
X82063153Y-93550376D01*
X82113443Y-93583978D01*
X82131112Y-93591297D01*
X82195237Y-93604052D01*
X82204858Y-93605000D01*
X82884320Y-93605000D01*
X82897005Y-93600878D01*
X82900000Y-93596757D01*
X82900000Y-93065680D01*
X82897583Y-93058243D01*
X83300000Y-93058243D01*
X83300000Y-93589320D01*
X83304122Y-93602005D01*
X83308243Y-93605000D01*
X83995142Y-93605000D01*
X84004763Y-93604052D01*
X84068888Y-93591297D01*
X84086557Y-93583978D01*
X84136847Y-93550376D01*
X84150376Y-93536847D01*
X84183978Y-93486557D01*
X84191297Y-93468888D01*
X84204052Y-93404763D01*
X84205000Y-93395142D01*
X84205000Y-93065680D01*
X84200878Y-93052995D01*
X84196757Y-93050000D01*
X83315680Y-93050000D01*
X83302995Y-93054122D01*
X83300000Y-93058243D01*
X82897583Y-93058243D01*
X82895878Y-93052995D01*
X82891757Y-93050000D01*
X82010680Y-93050000D01*
X81997995Y-93054122D01*
X81995000Y-93058243D01*
X78002583Y-93058243D01*
X78000878Y-93052995D01*
X77996757Y-93050000D01*
X77115680Y-93050000D01*
X77102995Y-93054122D01*
X77100000Y-93058243D01*
X76697583Y-93058243D01*
X76695878Y-93052995D01*
X76691757Y-93050000D01*
X75810680Y-93050000D01*
X75797995Y-93054122D01*
X75795000Y-93058243D01*
X74370000Y-93058243D01*
X74370000Y-92304858D01*
X75795000Y-92304858D01*
X75795000Y-92634320D01*
X75799122Y-92647005D01*
X75803243Y-92650000D01*
X76684320Y-92650000D01*
X76697005Y-92645878D01*
X76700000Y-92641757D01*
X76700000Y-92110680D01*
X76697583Y-92103243D01*
X77100000Y-92103243D01*
X77100000Y-92634320D01*
X77104122Y-92647005D01*
X77108243Y-92650000D01*
X77989320Y-92650000D01*
X78002005Y-92645878D01*
X78005000Y-92641757D01*
X78005000Y-92304858D01*
X81995000Y-92304858D01*
X81995000Y-92634320D01*
X81999122Y-92647005D01*
X82003243Y-92650000D01*
X82884320Y-92650000D01*
X82897005Y-92645878D01*
X82900000Y-92641757D01*
X82900000Y-92110680D01*
X82897583Y-92103243D01*
X83300000Y-92103243D01*
X83300000Y-92634320D01*
X83304122Y-92647005D01*
X83308243Y-92650000D01*
X84189320Y-92650000D01*
X84202005Y-92645878D01*
X84205000Y-92641757D01*
X84205000Y-92304858D01*
X84204052Y-92295237D01*
X84191297Y-92231112D01*
X84183978Y-92213443D01*
X84150376Y-92163153D01*
X84136847Y-92149624D01*
X84086557Y-92116022D01*
X84068888Y-92108703D01*
X84004763Y-92095948D01*
X83995142Y-92095000D01*
X83315680Y-92095000D01*
X83302995Y-92099122D01*
X83300000Y-92103243D01*
X82897583Y-92103243D01*
X82895878Y-92097995D01*
X82891757Y-92095000D01*
X82204858Y-92095000D01*
X82195237Y-92095948D01*
X82131112Y-92108703D01*
X82113443Y-92116022D01*
X82063153Y-92149624D01*
X82049624Y-92163153D01*
X82016022Y-92213443D01*
X82008703Y-92231112D01*
X81995948Y-92295237D01*
X81995000Y-92304858D01*
X78005000Y-92304858D01*
X78004052Y-92295237D01*
X77991297Y-92231112D01*
X77983978Y-92213443D01*
X77950376Y-92163153D01*
X77936847Y-92149624D01*
X77886557Y-92116022D01*
X77868888Y-92108703D01*
X77804763Y-92095948D01*
X77795142Y-92095000D01*
X77115680Y-92095000D01*
X77102995Y-92099122D01*
X77100000Y-92103243D01*
X76697583Y-92103243D01*
X76695878Y-92097995D01*
X76691757Y-92095000D01*
X76004858Y-92095000D01*
X75995237Y-92095948D01*
X75931112Y-92108703D01*
X75913443Y-92116022D01*
X75863153Y-92149624D01*
X75849624Y-92163153D01*
X75816022Y-92213443D01*
X75808703Y-92231112D01*
X75795948Y-92295237D01*
X75795000Y-92304858D01*
X74370000Y-92304858D01*
X74370000Y-88600000D01*
X75794500Y-88600000D01*
X75794500Y-89700000D01*
X75810143Y-89778641D01*
X75854690Y-89845310D01*
X75921359Y-89889857D01*
X75930922Y-89891759D01*
X75930924Y-89891760D01*
X75951351Y-89895823D01*
X76000000Y-89905500D01*
X77800000Y-89905500D01*
X77848649Y-89895823D01*
X77869076Y-89891760D01*
X77869078Y-89891759D01*
X77878641Y-89889857D01*
X77945310Y-89845310D01*
X77989857Y-89778641D01*
X78005500Y-89700000D01*
X78005500Y-89574500D01*
X78024407Y-89516309D01*
X78073907Y-89480345D01*
X78104500Y-89475500D01*
X81895500Y-89475500D01*
X81953691Y-89494407D01*
X81989655Y-89543907D01*
X81994500Y-89574500D01*
X81994500Y-89700000D01*
X82010143Y-89778641D01*
X82054690Y-89845310D01*
X82121359Y-89889857D01*
X82130922Y-89891759D01*
X82130924Y-89891760D01*
X82151351Y-89895823D01*
X82200000Y-89905500D01*
X84000000Y-89905500D01*
X84048649Y-89895823D01*
X84069076Y-89891760D01*
X84069078Y-89891759D01*
X84078641Y-89889857D01*
X84145310Y-89845310D01*
X84189857Y-89778641D01*
X84205500Y-89700000D01*
X84205500Y-89574500D01*
X84224407Y-89516309D01*
X84273907Y-89480345D01*
X84304500Y-89475500D01*
X88255128Y-89475500D01*
X88313319Y-89494407D01*
X88337443Y-89519498D01*
X88354690Y-89545310D01*
X88421359Y-89589857D01*
X88430922Y-89591759D01*
X88430924Y-89591760D01*
X88456200Y-89596787D01*
X88500000Y-89605500D01*
X90400000Y-89605500D01*
X90443800Y-89596787D01*
X90469076Y-89591760D01*
X90469078Y-89591759D01*
X90478641Y-89589857D01*
X90545310Y-89545310D01*
X90589857Y-89478641D01*
X90605500Y-89400000D01*
X90605500Y-88100000D01*
X90596462Y-88054566D01*
X90591760Y-88030924D01*
X90591759Y-88030922D01*
X90589857Y-88021359D01*
X90562414Y-87980288D01*
X90550729Y-87962800D01*
X90545310Y-87954690D01*
X90478641Y-87910143D01*
X90469078Y-87908241D01*
X90469076Y-87908240D01*
X90443800Y-87903213D01*
X90400000Y-87894500D01*
X88500000Y-87894500D01*
X88456200Y-87903213D01*
X88430924Y-87908240D01*
X88430922Y-87908241D01*
X88421359Y-87910143D01*
X88354690Y-87954690D01*
X88349271Y-87962800D01*
X88337586Y-87980288D01*
X88310143Y-88021359D01*
X88308241Y-88030922D01*
X88308240Y-88030924D01*
X88303538Y-88054566D01*
X88294500Y-88100000D01*
X88294500Y-88725500D01*
X88275593Y-88783691D01*
X88226093Y-88819655D01*
X88195500Y-88824500D01*
X84304500Y-88824500D01*
X84246309Y-88805593D01*
X84210345Y-88756093D01*
X84205500Y-88725500D01*
X84205500Y-88600000D01*
X84196787Y-88556200D01*
X84191760Y-88530924D01*
X84191759Y-88530922D01*
X84189857Y-88521359D01*
X84145310Y-88454690D01*
X84078641Y-88410143D01*
X84069078Y-88408241D01*
X84069076Y-88408240D01*
X84043800Y-88403213D01*
X84000000Y-88394500D01*
X82200000Y-88394500D01*
X82156200Y-88403213D01*
X82130924Y-88408240D01*
X82130922Y-88408241D01*
X82121359Y-88410143D01*
X82054690Y-88454690D01*
X82010143Y-88521359D01*
X82008241Y-88530922D01*
X82008240Y-88530924D01*
X82003213Y-88556200D01*
X81994500Y-88600000D01*
X81994500Y-88725500D01*
X81975593Y-88783691D01*
X81926093Y-88819655D01*
X81895500Y-88824500D01*
X78104500Y-88824500D01*
X78046309Y-88805593D01*
X78010345Y-88756093D01*
X78005500Y-88725500D01*
X78005500Y-88600000D01*
X77996787Y-88556200D01*
X77991760Y-88530924D01*
X77991759Y-88530922D01*
X77989857Y-88521359D01*
X77945310Y-88454690D01*
X77878641Y-88410143D01*
X77869078Y-88408241D01*
X77869076Y-88408240D01*
X77843800Y-88403213D01*
X77800000Y-88394500D01*
X76000000Y-88394500D01*
X75956200Y-88403213D01*
X75930924Y-88408240D01*
X75930922Y-88408241D01*
X75921359Y-88410143D01*
X75854690Y-88454690D01*
X75810143Y-88521359D01*
X75808241Y-88530922D01*
X75808240Y-88530924D01*
X75803213Y-88556200D01*
X75794500Y-88600000D01*
X74370000Y-88600000D01*
X74370000Y-82058243D01*
X75795000Y-82058243D01*
X75795000Y-82395142D01*
X75795948Y-82404763D01*
X75808703Y-82468888D01*
X75816022Y-82486557D01*
X75849624Y-82536847D01*
X75863153Y-82550376D01*
X75913443Y-82583978D01*
X75931112Y-82591297D01*
X75995237Y-82604052D01*
X76004858Y-82605000D01*
X76684320Y-82605000D01*
X76697005Y-82600878D01*
X76700000Y-82596757D01*
X76700000Y-82065680D01*
X76697583Y-82058243D01*
X77100000Y-82058243D01*
X77100000Y-82589320D01*
X77104122Y-82602005D01*
X77108243Y-82605000D01*
X77795142Y-82605000D01*
X77804763Y-82604052D01*
X77868888Y-82591297D01*
X77886557Y-82583978D01*
X77936847Y-82550376D01*
X77950376Y-82536847D01*
X77983978Y-82486557D01*
X77991297Y-82468888D01*
X78004052Y-82404763D01*
X78005000Y-82395142D01*
X78005000Y-82065680D01*
X78002583Y-82058243D01*
X81995000Y-82058243D01*
X81995000Y-82395142D01*
X81995948Y-82404763D01*
X82008703Y-82468888D01*
X82016022Y-82486557D01*
X82049624Y-82536847D01*
X82063153Y-82550376D01*
X82113443Y-82583978D01*
X82131112Y-82591297D01*
X82195237Y-82604052D01*
X82204858Y-82605000D01*
X82884320Y-82605000D01*
X82897005Y-82600878D01*
X82900000Y-82596757D01*
X82900000Y-82065680D01*
X82897583Y-82058243D01*
X83300000Y-82058243D01*
X83300000Y-82589320D01*
X83304122Y-82602005D01*
X83308243Y-82605000D01*
X83995142Y-82605000D01*
X84004763Y-82604052D01*
X84068888Y-82591297D01*
X84086557Y-82583978D01*
X84136847Y-82550376D01*
X84150376Y-82536847D01*
X84183978Y-82486557D01*
X84191297Y-82468888D01*
X84204052Y-82404763D01*
X84205000Y-82395142D01*
X84205000Y-82065680D01*
X84200878Y-82052995D01*
X84196757Y-82050000D01*
X83315680Y-82050000D01*
X83302995Y-82054122D01*
X83300000Y-82058243D01*
X82897583Y-82058243D01*
X82895878Y-82052995D01*
X82891757Y-82050000D01*
X82010680Y-82050000D01*
X81997995Y-82054122D01*
X81995000Y-82058243D01*
X78002583Y-82058243D01*
X78000878Y-82052995D01*
X77996757Y-82050000D01*
X77115680Y-82050000D01*
X77102995Y-82054122D01*
X77100000Y-82058243D01*
X76697583Y-82058243D01*
X76695878Y-82052995D01*
X76691757Y-82050000D01*
X75810680Y-82050000D01*
X75797995Y-82054122D01*
X75795000Y-82058243D01*
X74370000Y-82058243D01*
X74370000Y-81304858D01*
X75795000Y-81304858D01*
X75795000Y-81634320D01*
X75799122Y-81647005D01*
X75803243Y-81650000D01*
X76684320Y-81650000D01*
X76697005Y-81645878D01*
X76700000Y-81641757D01*
X76700000Y-81110680D01*
X76697583Y-81103243D01*
X77100000Y-81103243D01*
X77100000Y-81634320D01*
X77104122Y-81647005D01*
X77108243Y-81650000D01*
X77989320Y-81650000D01*
X78002005Y-81645878D01*
X78005000Y-81641757D01*
X78005000Y-81304858D01*
X81995000Y-81304858D01*
X81995000Y-81634320D01*
X81999122Y-81647005D01*
X82003243Y-81650000D01*
X82884320Y-81650000D01*
X82897005Y-81645878D01*
X82900000Y-81641757D01*
X82900000Y-81110680D01*
X82897583Y-81103243D01*
X83300000Y-81103243D01*
X83300000Y-81634320D01*
X83304122Y-81647005D01*
X83308243Y-81650000D01*
X84189320Y-81650000D01*
X84202005Y-81645878D01*
X84205000Y-81641757D01*
X84205000Y-81304858D01*
X84204052Y-81295237D01*
X84191297Y-81231112D01*
X84183978Y-81213443D01*
X84150376Y-81163153D01*
X84136847Y-81149624D01*
X84086557Y-81116022D01*
X84068888Y-81108703D01*
X84004763Y-81095948D01*
X83995142Y-81095000D01*
X83315680Y-81095000D01*
X83302995Y-81099122D01*
X83300000Y-81103243D01*
X82897583Y-81103243D01*
X82895878Y-81097995D01*
X82891757Y-81095000D01*
X82204858Y-81095000D01*
X82195237Y-81095948D01*
X82131112Y-81108703D01*
X82113443Y-81116022D01*
X82063153Y-81149624D01*
X82049624Y-81163153D01*
X82016022Y-81213443D01*
X82008703Y-81231112D01*
X81995948Y-81295237D01*
X81995000Y-81304858D01*
X78005000Y-81304858D01*
X78004052Y-81295237D01*
X77991297Y-81231112D01*
X77983978Y-81213443D01*
X77950376Y-81163153D01*
X77936847Y-81149624D01*
X77886557Y-81116022D01*
X77868888Y-81108703D01*
X77804763Y-81095948D01*
X77795142Y-81095000D01*
X77115680Y-81095000D01*
X77102995Y-81099122D01*
X77100000Y-81103243D01*
X76697583Y-81103243D01*
X76695878Y-81097995D01*
X76691757Y-81095000D01*
X76004858Y-81095000D01*
X75995237Y-81095948D01*
X75931112Y-81108703D01*
X75913443Y-81116022D01*
X75863153Y-81149624D01*
X75849624Y-81163153D01*
X75816022Y-81213443D01*
X75808703Y-81231112D01*
X75795948Y-81295237D01*
X75795000Y-81304858D01*
X74370000Y-81304858D01*
X74370000Y-77600000D01*
X75794500Y-77600000D01*
X75794500Y-78700000D01*
X75810143Y-78778641D01*
X75854690Y-78845310D01*
X75921359Y-78889857D01*
X75930922Y-78891759D01*
X75930924Y-78891760D01*
X75956200Y-78896787D01*
X76000000Y-78905500D01*
X77800000Y-78905500D01*
X77843800Y-78896787D01*
X77869076Y-78891760D01*
X77869078Y-78891759D01*
X77878641Y-78889857D01*
X77945310Y-78845310D01*
X77989857Y-78778641D01*
X78005500Y-78700000D01*
X78005500Y-78574500D01*
X78024407Y-78516309D01*
X78073907Y-78480345D01*
X78104500Y-78475500D01*
X81895500Y-78475500D01*
X81953691Y-78494407D01*
X81989655Y-78543907D01*
X81994500Y-78574500D01*
X81994500Y-78700000D01*
X82010143Y-78778641D01*
X82054690Y-78845310D01*
X82121359Y-78889857D01*
X82130922Y-78891759D01*
X82130924Y-78891760D01*
X82156200Y-78896787D01*
X82200000Y-78905500D01*
X84000000Y-78905500D01*
X84043800Y-78896787D01*
X84069076Y-78891760D01*
X84069078Y-78891759D01*
X84078641Y-78889857D01*
X84145310Y-78845310D01*
X84189857Y-78778641D01*
X84205500Y-78700000D01*
X84205500Y-78574500D01*
X84224407Y-78516309D01*
X84273907Y-78480345D01*
X84304500Y-78475500D01*
X88255128Y-78475500D01*
X88313319Y-78494407D01*
X88337443Y-78519498D01*
X88354690Y-78545310D01*
X88421359Y-78589857D01*
X88430922Y-78591759D01*
X88430924Y-78591760D01*
X88456200Y-78596787D01*
X88500000Y-78605500D01*
X90400000Y-78605500D01*
X90443800Y-78596787D01*
X90469076Y-78591760D01*
X90469078Y-78591759D01*
X90478641Y-78589857D01*
X90545310Y-78545310D01*
X90589857Y-78478641D01*
X90605500Y-78400000D01*
X90605500Y-77100000D01*
X90589857Y-77021359D01*
X90545310Y-76954690D01*
X90478641Y-76910143D01*
X90469078Y-76908241D01*
X90469076Y-76908240D01*
X90443800Y-76903213D01*
X90400000Y-76894500D01*
X88500000Y-76894500D01*
X88456200Y-76903213D01*
X88430924Y-76908240D01*
X88430922Y-76908241D01*
X88421359Y-76910143D01*
X88354690Y-76954690D01*
X88310143Y-77021359D01*
X88294500Y-77100000D01*
X88294500Y-77725500D01*
X88275593Y-77783691D01*
X88226093Y-77819655D01*
X88195500Y-77824500D01*
X84304500Y-77824500D01*
X84246309Y-77805593D01*
X84210345Y-77756093D01*
X84205500Y-77725500D01*
X84205500Y-77600000D01*
X84189857Y-77521359D01*
X84145310Y-77454690D01*
X84078641Y-77410143D01*
X84069078Y-77408241D01*
X84069076Y-77408240D01*
X84043800Y-77403213D01*
X84000000Y-77394500D01*
X82200000Y-77394500D01*
X82156200Y-77403213D01*
X82130924Y-77408240D01*
X82130922Y-77408241D01*
X82121359Y-77410143D01*
X82054690Y-77454690D01*
X82010143Y-77521359D01*
X81994500Y-77600000D01*
X81994500Y-77725500D01*
X81975593Y-77783691D01*
X81926093Y-77819655D01*
X81895500Y-77824500D01*
X78104500Y-77824500D01*
X78046309Y-77805593D01*
X78010345Y-77756093D01*
X78005500Y-77725500D01*
X78005500Y-77600000D01*
X77989857Y-77521359D01*
X77945310Y-77454690D01*
X77878641Y-77410143D01*
X77869078Y-77408241D01*
X77869076Y-77408240D01*
X77843800Y-77403213D01*
X77800000Y-77394500D01*
X76000000Y-77394500D01*
X75956200Y-77403213D01*
X75930924Y-77408240D01*
X75930922Y-77408241D01*
X75921359Y-77410143D01*
X75854690Y-77454690D01*
X75810143Y-77521359D01*
X75794500Y-77600000D01*
X74370000Y-77600000D01*
X74370000Y-70058243D01*
X75795000Y-70058243D01*
X75795000Y-70395142D01*
X75795948Y-70404763D01*
X75808703Y-70468888D01*
X75816022Y-70486557D01*
X75849624Y-70536847D01*
X75863153Y-70550376D01*
X75913443Y-70583978D01*
X75931112Y-70591297D01*
X75995237Y-70604052D01*
X76004858Y-70605000D01*
X76684320Y-70605000D01*
X76697005Y-70600878D01*
X76700000Y-70596757D01*
X76700000Y-70065680D01*
X76697583Y-70058243D01*
X77100000Y-70058243D01*
X77100000Y-70589320D01*
X77104122Y-70602005D01*
X77108243Y-70605000D01*
X77795142Y-70605000D01*
X77804763Y-70604052D01*
X77868888Y-70591297D01*
X77886557Y-70583978D01*
X77936847Y-70550376D01*
X77950376Y-70536847D01*
X77983978Y-70486557D01*
X77991297Y-70468888D01*
X78004052Y-70404763D01*
X78005000Y-70395142D01*
X78005000Y-70065680D01*
X78002583Y-70058243D01*
X81995000Y-70058243D01*
X81995000Y-70395142D01*
X81995948Y-70404763D01*
X82008703Y-70468888D01*
X82016022Y-70486557D01*
X82049624Y-70536847D01*
X82063153Y-70550376D01*
X82113443Y-70583978D01*
X82131112Y-70591297D01*
X82195237Y-70604052D01*
X82204858Y-70605000D01*
X82884320Y-70605000D01*
X82897005Y-70600878D01*
X82900000Y-70596757D01*
X82900000Y-70065680D01*
X82897583Y-70058243D01*
X83300000Y-70058243D01*
X83300000Y-70589320D01*
X83304122Y-70602005D01*
X83308243Y-70605000D01*
X83995142Y-70605000D01*
X84004763Y-70604052D01*
X84068888Y-70591297D01*
X84086557Y-70583978D01*
X84136847Y-70550376D01*
X84150376Y-70536847D01*
X84183978Y-70486557D01*
X84191297Y-70468888D01*
X84204052Y-70404763D01*
X84205000Y-70395142D01*
X84205000Y-70065680D01*
X84200878Y-70052995D01*
X84196757Y-70050000D01*
X83315680Y-70050000D01*
X83302995Y-70054122D01*
X83300000Y-70058243D01*
X82897583Y-70058243D01*
X82895878Y-70052995D01*
X82891757Y-70050000D01*
X82010680Y-70050000D01*
X81997995Y-70054122D01*
X81995000Y-70058243D01*
X78002583Y-70058243D01*
X78000878Y-70052995D01*
X77996757Y-70050000D01*
X77115680Y-70050000D01*
X77102995Y-70054122D01*
X77100000Y-70058243D01*
X76697583Y-70058243D01*
X76695878Y-70052995D01*
X76691757Y-70050000D01*
X75810680Y-70050000D01*
X75797995Y-70054122D01*
X75795000Y-70058243D01*
X74370000Y-70058243D01*
X74370000Y-69304858D01*
X75795000Y-69304858D01*
X75795000Y-69634320D01*
X75799122Y-69647005D01*
X75803243Y-69650000D01*
X76684320Y-69650000D01*
X76697005Y-69645878D01*
X76700000Y-69641757D01*
X76700000Y-69110680D01*
X76697583Y-69103243D01*
X77100000Y-69103243D01*
X77100000Y-69634320D01*
X77104122Y-69647005D01*
X77108243Y-69650000D01*
X77989320Y-69650000D01*
X78002005Y-69645878D01*
X78005000Y-69641757D01*
X78005000Y-69304858D01*
X81995000Y-69304858D01*
X81995000Y-69634320D01*
X81999122Y-69647005D01*
X82003243Y-69650000D01*
X82884320Y-69650000D01*
X82897005Y-69645878D01*
X82900000Y-69641757D01*
X82900000Y-69110680D01*
X82897583Y-69103243D01*
X83300000Y-69103243D01*
X83300000Y-69634320D01*
X83304122Y-69647005D01*
X83308243Y-69650000D01*
X84189320Y-69650000D01*
X84202005Y-69645878D01*
X84205000Y-69641757D01*
X84205000Y-69304858D01*
X84204052Y-69295237D01*
X84191297Y-69231112D01*
X84183978Y-69213443D01*
X84150376Y-69163153D01*
X84136847Y-69149624D01*
X84086557Y-69116022D01*
X84068888Y-69108703D01*
X84004763Y-69095948D01*
X83995142Y-69095000D01*
X83315680Y-69095000D01*
X83302995Y-69099122D01*
X83300000Y-69103243D01*
X82897583Y-69103243D01*
X82895878Y-69097995D01*
X82891757Y-69095000D01*
X82204858Y-69095000D01*
X82195237Y-69095948D01*
X82131112Y-69108703D01*
X82113443Y-69116022D01*
X82063153Y-69149624D01*
X82049624Y-69163153D01*
X82016022Y-69213443D01*
X82008703Y-69231112D01*
X81995948Y-69295237D01*
X81995000Y-69304858D01*
X78005000Y-69304858D01*
X78004052Y-69295237D01*
X77991297Y-69231112D01*
X77983978Y-69213443D01*
X77950376Y-69163153D01*
X77936847Y-69149624D01*
X77886557Y-69116022D01*
X77868888Y-69108703D01*
X77804763Y-69095948D01*
X77795142Y-69095000D01*
X77115680Y-69095000D01*
X77102995Y-69099122D01*
X77100000Y-69103243D01*
X76697583Y-69103243D01*
X76695878Y-69097995D01*
X76691757Y-69095000D01*
X76004858Y-69095000D01*
X75995237Y-69095948D01*
X75931112Y-69108703D01*
X75913443Y-69116022D01*
X75863153Y-69149624D01*
X75849624Y-69163153D01*
X75816022Y-69213443D01*
X75808703Y-69231112D01*
X75795948Y-69295237D01*
X75795000Y-69304858D01*
X74370000Y-69304858D01*
X74370000Y-65600000D01*
X75794500Y-65600000D01*
X75794500Y-66700000D01*
X75810143Y-66778641D01*
X75854690Y-66845310D01*
X75921359Y-66889857D01*
X75930922Y-66891759D01*
X75930924Y-66891760D01*
X75956200Y-66896787D01*
X76000000Y-66905500D01*
X77800000Y-66905500D01*
X77843800Y-66896787D01*
X77869076Y-66891760D01*
X77869078Y-66891759D01*
X77878641Y-66889857D01*
X77945310Y-66845310D01*
X77989857Y-66778641D01*
X78005500Y-66700000D01*
X78005500Y-66574500D01*
X78024407Y-66516309D01*
X78073907Y-66480345D01*
X78104500Y-66475500D01*
X81895500Y-66475500D01*
X81953691Y-66494407D01*
X81989655Y-66543907D01*
X81994500Y-66574500D01*
X81994500Y-66700000D01*
X82010143Y-66778641D01*
X82054690Y-66845310D01*
X82121359Y-66889857D01*
X82130922Y-66891759D01*
X82130924Y-66891760D01*
X82156200Y-66896787D01*
X82200000Y-66905500D01*
X84000000Y-66905500D01*
X84043800Y-66896787D01*
X84069076Y-66891760D01*
X84069078Y-66891759D01*
X84078641Y-66889857D01*
X84145310Y-66845310D01*
X84189857Y-66778641D01*
X84205500Y-66700000D01*
X84205500Y-66574500D01*
X84224407Y-66516309D01*
X84273907Y-66480345D01*
X84304500Y-66475500D01*
X88255128Y-66475500D01*
X88313319Y-66494407D01*
X88337443Y-66519498D01*
X88354690Y-66545310D01*
X88421359Y-66589857D01*
X88430922Y-66591759D01*
X88430924Y-66591760D01*
X88456200Y-66596787D01*
X88500000Y-66605500D01*
X90400000Y-66605500D01*
X90443800Y-66596787D01*
X90469076Y-66591760D01*
X90469078Y-66591759D01*
X90478641Y-66589857D01*
X90545310Y-66545310D01*
X90589857Y-66478641D01*
X90605500Y-66400000D01*
X90605500Y-65100000D01*
X90589857Y-65021359D01*
X90545310Y-64954690D01*
X90478641Y-64910143D01*
X90469078Y-64908241D01*
X90469076Y-64908240D01*
X90443800Y-64903213D01*
X90400000Y-64894500D01*
X88500000Y-64894500D01*
X88456200Y-64903213D01*
X88430924Y-64908240D01*
X88430922Y-64908241D01*
X88421359Y-64910143D01*
X88354690Y-64954690D01*
X88310143Y-65021359D01*
X88294500Y-65100000D01*
X88294500Y-65725500D01*
X88275593Y-65783691D01*
X88226093Y-65819655D01*
X88195500Y-65824500D01*
X84304500Y-65824500D01*
X84246309Y-65805593D01*
X84210345Y-65756093D01*
X84205500Y-65725500D01*
X84205500Y-65600000D01*
X84189857Y-65521359D01*
X84145310Y-65454690D01*
X84078641Y-65410143D01*
X84069078Y-65408241D01*
X84069076Y-65408240D01*
X84043800Y-65403213D01*
X84000000Y-65394500D01*
X82200000Y-65394500D01*
X82156200Y-65403213D01*
X82130924Y-65408240D01*
X82130922Y-65408241D01*
X82121359Y-65410143D01*
X82054690Y-65454690D01*
X82010143Y-65521359D01*
X81994500Y-65600000D01*
X81994500Y-65725500D01*
X81975593Y-65783691D01*
X81926093Y-65819655D01*
X81895500Y-65824500D01*
X78104500Y-65824500D01*
X78046309Y-65805593D01*
X78010345Y-65756093D01*
X78005500Y-65725500D01*
X78005500Y-65600000D01*
X77989857Y-65521359D01*
X77945310Y-65454690D01*
X77878641Y-65410143D01*
X77869078Y-65408241D01*
X77869076Y-65408240D01*
X77843800Y-65403213D01*
X77800000Y-65394500D01*
X76000000Y-65394500D01*
X75956200Y-65403213D01*
X75930924Y-65408240D01*
X75930922Y-65408241D01*
X75921359Y-65410143D01*
X75854690Y-65454690D01*
X75810143Y-65521359D01*
X75794500Y-65600000D01*
X74370000Y-65600000D01*
X74370000Y-60058243D01*
X75795000Y-60058243D01*
X75795000Y-60395142D01*
X75795948Y-60404763D01*
X75808703Y-60468888D01*
X75816022Y-60486557D01*
X75849624Y-60536847D01*
X75863153Y-60550376D01*
X75913443Y-60583978D01*
X75931112Y-60591297D01*
X75995237Y-60604052D01*
X76004858Y-60605000D01*
X76684320Y-60605000D01*
X76697005Y-60600878D01*
X76700000Y-60596757D01*
X76700000Y-60065680D01*
X76697583Y-60058243D01*
X77100000Y-60058243D01*
X77100000Y-60589320D01*
X77104122Y-60602005D01*
X77108243Y-60605000D01*
X77795142Y-60605000D01*
X77804763Y-60604052D01*
X77868888Y-60591297D01*
X77886557Y-60583978D01*
X77936847Y-60550376D01*
X77950376Y-60536847D01*
X77983978Y-60486557D01*
X77991297Y-60468888D01*
X78004052Y-60404763D01*
X78005000Y-60395142D01*
X78005000Y-60065680D01*
X78002583Y-60058243D01*
X81995000Y-60058243D01*
X81995000Y-60395142D01*
X81995948Y-60404763D01*
X82008703Y-60468888D01*
X82016022Y-60486557D01*
X82049624Y-60536847D01*
X82063153Y-60550376D01*
X82113443Y-60583978D01*
X82131112Y-60591297D01*
X82195237Y-60604052D01*
X82204858Y-60605000D01*
X82884320Y-60605000D01*
X82897005Y-60600878D01*
X82900000Y-60596757D01*
X82900000Y-60065680D01*
X82897583Y-60058243D01*
X83300000Y-60058243D01*
X83300000Y-60589320D01*
X83304122Y-60602005D01*
X83308243Y-60605000D01*
X83995142Y-60605000D01*
X84004763Y-60604052D01*
X84068888Y-60591297D01*
X84086557Y-60583978D01*
X84136847Y-60550376D01*
X84150376Y-60536847D01*
X84183978Y-60486557D01*
X84191297Y-60468888D01*
X84204052Y-60404763D01*
X84205000Y-60395142D01*
X84205000Y-60065680D01*
X84200878Y-60052995D01*
X84196757Y-60050000D01*
X83315680Y-60050000D01*
X83302995Y-60054122D01*
X83300000Y-60058243D01*
X82897583Y-60058243D01*
X82895878Y-60052995D01*
X82891757Y-60050000D01*
X82010680Y-60050000D01*
X81997995Y-60054122D01*
X81995000Y-60058243D01*
X78002583Y-60058243D01*
X78000878Y-60052995D01*
X77996757Y-60050000D01*
X77115680Y-60050000D01*
X77102995Y-60054122D01*
X77100000Y-60058243D01*
X76697583Y-60058243D01*
X76695878Y-60052995D01*
X76691757Y-60050000D01*
X75810680Y-60050000D01*
X75797995Y-60054122D01*
X75795000Y-60058243D01*
X74370000Y-60058243D01*
X74370000Y-59304858D01*
X75795000Y-59304858D01*
X75795000Y-59634320D01*
X75799122Y-59647005D01*
X75803243Y-59650000D01*
X76684320Y-59650000D01*
X76697005Y-59645878D01*
X76700000Y-59641757D01*
X76700000Y-59110680D01*
X76697583Y-59103243D01*
X77100000Y-59103243D01*
X77100000Y-59634320D01*
X77104122Y-59647005D01*
X77108243Y-59650000D01*
X77989320Y-59650000D01*
X78002005Y-59645878D01*
X78005000Y-59641757D01*
X78005000Y-59304858D01*
X81995000Y-59304858D01*
X81995000Y-59634320D01*
X81999122Y-59647005D01*
X82003243Y-59650000D01*
X82884320Y-59650000D01*
X82897005Y-59645878D01*
X82900000Y-59641757D01*
X82900000Y-59110680D01*
X82897583Y-59103243D01*
X83300000Y-59103243D01*
X83300000Y-59634320D01*
X83304122Y-59647005D01*
X83308243Y-59650000D01*
X84189320Y-59650000D01*
X84202005Y-59645878D01*
X84205000Y-59641757D01*
X84205000Y-59304858D01*
X84204052Y-59295237D01*
X84191297Y-59231112D01*
X84183978Y-59213443D01*
X84150376Y-59163153D01*
X84136847Y-59149624D01*
X84086557Y-59116022D01*
X84068888Y-59108703D01*
X84004763Y-59095948D01*
X83995142Y-59095000D01*
X83315680Y-59095000D01*
X83302995Y-59099122D01*
X83300000Y-59103243D01*
X82897583Y-59103243D01*
X82895878Y-59097995D01*
X82891757Y-59095000D01*
X82204858Y-59095000D01*
X82195237Y-59095948D01*
X82131112Y-59108703D01*
X82113443Y-59116022D01*
X82063153Y-59149624D01*
X82049624Y-59163153D01*
X82016022Y-59213443D01*
X82008703Y-59231112D01*
X81995948Y-59295237D01*
X81995000Y-59304858D01*
X78005000Y-59304858D01*
X78004052Y-59295237D01*
X77991297Y-59231112D01*
X77983978Y-59213443D01*
X77950376Y-59163153D01*
X77936847Y-59149624D01*
X77886557Y-59116022D01*
X77868888Y-59108703D01*
X77804763Y-59095948D01*
X77795142Y-59095000D01*
X77115680Y-59095000D01*
X77102995Y-59099122D01*
X77100000Y-59103243D01*
X76697583Y-59103243D01*
X76695878Y-59097995D01*
X76691757Y-59095000D01*
X76004858Y-59095000D01*
X75995237Y-59095948D01*
X75931112Y-59108703D01*
X75913443Y-59116022D01*
X75863153Y-59149624D01*
X75849624Y-59163153D01*
X75816022Y-59213443D01*
X75808703Y-59231112D01*
X75795948Y-59295237D01*
X75795000Y-59304858D01*
X74370000Y-59304858D01*
X74370000Y-55600000D01*
X75794500Y-55600000D01*
X75794500Y-56700000D01*
X75810143Y-56778641D01*
X75854690Y-56845310D01*
X75862800Y-56850729D01*
X75888025Y-56867584D01*
X75921359Y-56889857D01*
X75930922Y-56891759D01*
X75930924Y-56891760D01*
X75956200Y-56896787D01*
X76000000Y-56905500D01*
X77800000Y-56905500D01*
X77843800Y-56896787D01*
X77869076Y-56891760D01*
X77869078Y-56891759D01*
X77878641Y-56889857D01*
X77911976Y-56867583D01*
X77937200Y-56850729D01*
X77945310Y-56845310D01*
X77989857Y-56778641D01*
X78005500Y-56700000D01*
X78005500Y-56574500D01*
X78024407Y-56516309D01*
X78073907Y-56480345D01*
X78104500Y-56475500D01*
X81895500Y-56475500D01*
X81953691Y-56494407D01*
X81989655Y-56543907D01*
X81994500Y-56574500D01*
X81994500Y-56700000D01*
X82010143Y-56778641D01*
X82054690Y-56845310D01*
X82062800Y-56850729D01*
X82088025Y-56867584D01*
X82121359Y-56889857D01*
X82130922Y-56891759D01*
X82130924Y-56891760D01*
X82156200Y-56896787D01*
X82200000Y-56905500D01*
X84000000Y-56905500D01*
X84043800Y-56896787D01*
X84069076Y-56891760D01*
X84069078Y-56891759D01*
X84078641Y-56889857D01*
X84111976Y-56867583D01*
X84137200Y-56850729D01*
X84145310Y-56845310D01*
X84189857Y-56778641D01*
X84205500Y-56700000D01*
X84205500Y-56574500D01*
X84224407Y-56516309D01*
X84273907Y-56480345D01*
X84304500Y-56475500D01*
X88195500Y-56475500D01*
X88253691Y-56494407D01*
X88289655Y-56543907D01*
X88294500Y-56574500D01*
X88294500Y-57400000D01*
X88310143Y-57478641D01*
X88354690Y-57545310D01*
X88421359Y-57589857D01*
X88430922Y-57591759D01*
X88430924Y-57591760D01*
X88456200Y-57596787D01*
X88500000Y-57605500D01*
X90400000Y-57605500D01*
X90443800Y-57596787D01*
X90469076Y-57591760D01*
X90469078Y-57591759D01*
X90478641Y-57589857D01*
X90545310Y-57545310D01*
X90589857Y-57478641D01*
X90605500Y-57400000D01*
X90605500Y-56100000D01*
X90589857Y-56021359D01*
X90545310Y-55954690D01*
X90478641Y-55910143D01*
X90469078Y-55908241D01*
X90469076Y-55908240D01*
X90443800Y-55903213D01*
X90400000Y-55894500D01*
X89084945Y-55894500D01*
X89035450Y-55881239D01*
X89028777Y-55877386D01*
X89021513Y-55872758D01*
X88996772Y-55855434D01*
X88996771Y-55855433D01*
X88989675Y-55850465D01*
X88981306Y-55848223D01*
X88976017Y-55845757D01*
X88970539Y-55843763D01*
X88963038Y-55839432D01*
X88954510Y-55837928D01*
X88954509Y-55837928D01*
X88924774Y-55832685D01*
X88916342Y-55830816D01*
X88887168Y-55822999D01*
X88887169Y-55822999D01*
X88878805Y-55820758D01*
X88840383Y-55824120D01*
X88840344Y-55824123D01*
X88831715Y-55824500D01*
X84304500Y-55824500D01*
X84246309Y-55805593D01*
X84210345Y-55756093D01*
X84205500Y-55725500D01*
X84205500Y-55600000D01*
X84189857Y-55521359D01*
X84145310Y-55454690D01*
X84078641Y-55410143D01*
X84069078Y-55408241D01*
X84069076Y-55408240D01*
X84043800Y-55403213D01*
X84000000Y-55394500D01*
X82200000Y-55394500D01*
X82156200Y-55403213D01*
X82130924Y-55408240D01*
X82130922Y-55408241D01*
X82121359Y-55410143D01*
X82054690Y-55454690D01*
X82010143Y-55521359D01*
X81994500Y-55600000D01*
X81994500Y-55725500D01*
X81975593Y-55783691D01*
X81926093Y-55819655D01*
X81895500Y-55824500D01*
X78104500Y-55824500D01*
X78046309Y-55805593D01*
X78010345Y-55756093D01*
X78005500Y-55725500D01*
X78005500Y-55600000D01*
X77989857Y-55521359D01*
X77945310Y-55454690D01*
X77878641Y-55410143D01*
X77869078Y-55408241D01*
X77869076Y-55408240D01*
X77843800Y-55403213D01*
X77800000Y-55394500D01*
X76000000Y-55394500D01*
X75956200Y-55403213D01*
X75930924Y-55408240D01*
X75930922Y-55408241D01*
X75921359Y-55410143D01*
X75854690Y-55454690D01*
X75810143Y-55521359D01*
X75794500Y-55600000D01*
X74370000Y-55600000D01*
X74370000Y-48058243D01*
X75795000Y-48058243D01*
X75795000Y-48395142D01*
X75795948Y-48404763D01*
X75808703Y-48468888D01*
X75816022Y-48486557D01*
X75849624Y-48536847D01*
X75863153Y-48550376D01*
X75913443Y-48583978D01*
X75931112Y-48591297D01*
X75995237Y-48604052D01*
X76004858Y-48605000D01*
X76684320Y-48605000D01*
X76697005Y-48600878D01*
X76700000Y-48596757D01*
X76700000Y-48065680D01*
X76697583Y-48058243D01*
X77100000Y-48058243D01*
X77100000Y-48589320D01*
X77104122Y-48602005D01*
X77108243Y-48605000D01*
X77795142Y-48605000D01*
X77804763Y-48604052D01*
X77868888Y-48591297D01*
X77886557Y-48583978D01*
X77936847Y-48550376D01*
X77950376Y-48536847D01*
X77983978Y-48486557D01*
X77991297Y-48468888D01*
X78004052Y-48404763D01*
X78005000Y-48395142D01*
X78005000Y-48065680D01*
X78002583Y-48058243D01*
X81995000Y-48058243D01*
X81995000Y-48395142D01*
X81995948Y-48404763D01*
X82008703Y-48468888D01*
X82016022Y-48486557D01*
X82049624Y-48536847D01*
X82063153Y-48550376D01*
X82113443Y-48583978D01*
X82131112Y-48591297D01*
X82195237Y-48604052D01*
X82204858Y-48605000D01*
X82884320Y-48605000D01*
X82897005Y-48600878D01*
X82900000Y-48596757D01*
X82900000Y-48065680D01*
X82897583Y-48058243D01*
X83300000Y-48058243D01*
X83300000Y-48589320D01*
X83304122Y-48602005D01*
X83308243Y-48605000D01*
X83995142Y-48605000D01*
X84004763Y-48604052D01*
X84068888Y-48591297D01*
X84086557Y-48583978D01*
X84136847Y-48550376D01*
X84150376Y-48536847D01*
X84183978Y-48486557D01*
X84191297Y-48468888D01*
X84204052Y-48404763D01*
X84205000Y-48395142D01*
X84205000Y-48065680D01*
X84200878Y-48052995D01*
X84196757Y-48050000D01*
X83315680Y-48050000D01*
X83302995Y-48054122D01*
X83300000Y-48058243D01*
X82897583Y-48058243D01*
X82895878Y-48052995D01*
X82891757Y-48050000D01*
X82010680Y-48050000D01*
X81997995Y-48054122D01*
X81995000Y-48058243D01*
X78002583Y-48058243D01*
X78000878Y-48052995D01*
X77996757Y-48050000D01*
X77115680Y-48050000D01*
X77102995Y-48054122D01*
X77100000Y-48058243D01*
X76697583Y-48058243D01*
X76695878Y-48052995D01*
X76691757Y-48050000D01*
X75810680Y-48050000D01*
X75797995Y-48054122D01*
X75795000Y-48058243D01*
X74370000Y-48058243D01*
X74370000Y-47304858D01*
X75795000Y-47304858D01*
X75795000Y-47634320D01*
X75799122Y-47647005D01*
X75803243Y-47650000D01*
X76684320Y-47650000D01*
X76697005Y-47645878D01*
X76700000Y-47641757D01*
X76700000Y-47110680D01*
X76697583Y-47103243D01*
X77100000Y-47103243D01*
X77100000Y-47634320D01*
X77104122Y-47647005D01*
X77108243Y-47650000D01*
X77989320Y-47650000D01*
X78002005Y-47645878D01*
X78005000Y-47641757D01*
X78005000Y-47304858D01*
X81995000Y-47304858D01*
X81995000Y-47634320D01*
X81999122Y-47647005D01*
X82003243Y-47650000D01*
X82884320Y-47650000D01*
X82897005Y-47645878D01*
X82900000Y-47641757D01*
X82900000Y-47110680D01*
X82897583Y-47103243D01*
X83300000Y-47103243D01*
X83300000Y-47634320D01*
X83304122Y-47647005D01*
X83308243Y-47650000D01*
X84189320Y-47650000D01*
X84202005Y-47645878D01*
X84205000Y-47641757D01*
X84205000Y-47304858D01*
X84204052Y-47295237D01*
X84191297Y-47231112D01*
X84183978Y-47213443D01*
X84150376Y-47163153D01*
X84136847Y-47149624D01*
X84086557Y-47116022D01*
X84068888Y-47108703D01*
X84004763Y-47095948D01*
X83995142Y-47095000D01*
X83315680Y-47095000D01*
X83302995Y-47099122D01*
X83300000Y-47103243D01*
X82897583Y-47103243D01*
X82895878Y-47097995D01*
X82891757Y-47095000D01*
X82204858Y-47095000D01*
X82195237Y-47095948D01*
X82131112Y-47108703D01*
X82113443Y-47116022D01*
X82063153Y-47149624D01*
X82049624Y-47163153D01*
X82016022Y-47213443D01*
X82008703Y-47231112D01*
X81995948Y-47295237D01*
X81995000Y-47304858D01*
X78005000Y-47304858D01*
X78004052Y-47295237D01*
X77991297Y-47231112D01*
X77983978Y-47213443D01*
X77950376Y-47163153D01*
X77936847Y-47149624D01*
X77886557Y-47116022D01*
X77868888Y-47108703D01*
X77804763Y-47095948D01*
X77795142Y-47095000D01*
X77115680Y-47095000D01*
X77102995Y-47099122D01*
X77100000Y-47103243D01*
X76697583Y-47103243D01*
X76695878Y-47097995D01*
X76691757Y-47095000D01*
X76004858Y-47095000D01*
X75995237Y-47095948D01*
X75931112Y-47108703D01*
X75913443Y-47116022D01*
X75863153Y-47149624D01*
X75849624Y-47163153D01*
X75816022Y-47213443D01*
X75808703Y-47231112D01*
X75795948Y-47295237D01*
X75795000Y-47304858D01*
X74370000Y-47304858D01*
X74370000Y-45600000D01*
X88294500Y-45600000D01*
X88294500Y-46900000D01*
X88310143Y-46978641D01*
X88354690Y-47045310D01*
X88421359Y-47089857D01*
X88430922Y-47091759D01*
X88430924Y-47091760D01*
X88451980Y-47095948D01*
X88500000Y-47105500D01*
X90400000Y-47105500D01*
X90448020Y-47095948D01*
X90469076Y-47091760D01*
X90469078Y-47091759D01*
X90478641Y-47089857D01*
X90545310Y-47045310D01*
X90589857Y-46978641D01*
X90605500Y-46900000D01*
X90605500Y-46674500D01*
X90624407Y-46616309D01*
X90673907Y-46580345D01*
X90704500Y-46575500D01*
X93281715Y-46575500D01*
X93290344Y-46575877D01*
X93328805Y-46579242D01*
X93366342Y-46569184D01*
X93374774Y-46567315D01*
X93404509Y-46562072D01*
X93404510Y-46562072D01*
X93413038Y-46560568D01*
X93420539Y-46556237D01*
X93426017Y-46554243D01*
X93431306Y-46551777D01*
X93439675Y-46549535D01*
X93446772Y-46544566D01*
X93471514Y-46527242D01*
X93478796Y-46522603D01*
X93504941Y-46507508D01*
X93504940Y-46507508D01*
X93512441Y-46503178D01*
X93537259Y-46473601D01*
X93543093Y-46467234D01*
X93775831Y-46234496D01*
X93830348Y-46206719D01*
X93845835Y-46205500D01*
X94125500Y-46205500D01*
X94183691Y-46224407D01*
X94219655Y-46273907D01*
X94224500Y-46304500D01*
X94224500Y-56695500D01*
X94205593Y-56753691D01*
X94156093Y-56789655D01*
X94125500Y-56794500D01*
X93800000Y-56794500D01*
X93756200Y-56803213D01*
X93730924Y-56808240D01*
X93730922Y-56808241D01*
X93721359Y-56810143D01*
X93713249Y-56815562D01*
X93680866Y-56837200D01*
X93654690Y-56854690D01*
X93610143Y-56921359D01*
X93594500Y-57000000D01*
X93594500Y-58454165D01*
X93575593Y-58512356D01*
X93565504Y-58524169D01*
X93194169Y-58895504D01*
X93139652Y-58923281D01*
X93124165Y-58924500D01*
X90704500Y-58924500D01*
X90646309Y-58905593D01*
X90610345Y-58856093D01*
X90605500Y-58825500D01*
X90605500Y-58600000D01*
X90589857Y-58521359D01*
X90545310Y-58454690D01*
X90478641Y-58410143D01*
X90469078Y-58408241D01*
X90469076Y-58408240D01*
X90443800Y-58403213D01*
X90400000Y-58394500D01*
X88500000Y-58394500D01*
X88456200Y-58403213D01*
X88430924Y-58408240D01*
X88430922Y-58408241D01*
X88421359Y-58410143D01*
X88354690Y-58454690D01*
X88310143Y-58521359D01*
X88294500Y-58600000D01*
X88294500Y-59900000D01*
X88310143Y-59978641D01*
X88354690Y-60045310D01*
X88362800Y-60050729D01*
X88385176Y-60065680D01*
X88421359Y-60089857D01*
X88430922Y-60091759D01*
X88430924Y-60091760D01*
X88456200Y-60096787D01*
X88500000Y-60105500D01*
X90400000Y-60105500D01*
X90443800Y-60096787D01*
X90469076Y-60091760D01*
X90469078Y-60091759D01*
X90478641Y-60089857D01*
X90514824Y-60065680D01*
X90537200Y-60050729D01*
X90545310Y-60045310D01*
X90589857Y-59978641D01*
X90605500Y-59900000D01*
X90605500Y-59674500D01*
X90624407Y-59616309D01*
X90673907Y-59580345D01*
X90704500Y-59575500D01*
X93281715Y-59575500D01*
X93290344Y-59575877D01*
X93328805Y-59579242D01*
X93366342Y-59569184D01*
X93374774Y-59567315D01*
X93404509Y-59562072D01*
X93404510Y-59562072D01*
X93413038Y-59560568D01*
X93420539Y-59556237D01*
X93426017Y-59554243D01*
X93431306Y-59551777D01*
X93439675Y-59549535D01*
X93446772Y-59544566D01*
X93471514Y-59527242D01*
X93478796Y-59522603D01*
X93504941Y-59507508D01*
X93504940Y-59507508D01*
X93512441Y-59503178D01*
X93537259Y-59473601D01*
X93543093Y-59467234D01*
X93775831Y-59234496D01*
X93830348Y-59206719D01*
X93845835Y-59205500D01*
X94125500Y-59205500D01*
X94183691Y-59224407D01*
X94219655Y-59273907D01*
X94224500Y-59304500D01*
X94224500Y-65695500D01*
X94205593Y-65753691D01*
X94156093Y-65789655D01*
X94125500Y-65794500D01*
X93800000Y-65794500D01*
X93756200Y-65803213D01*
X93730924Y-65808240D01*
X93730922Y-65808241D01*
X93721359Y-65810143D01*
X93654690Y-65854690D01*
X93610143Y-65921359D01*
X93594500Y-66000000D01*
X93594500Y-67454165D01*
X93575593Y-67512356D01*
X93565504Y-67524169D01*
X93194169Y-67895504D01*
X93139652Y-67923281D01*
X93124165Y-67924500D01*
X90704500Y-67924500D01*
X90646309Y-67905593D01*
X90610345Y-67856093D01*
X90605500Y-67825500D01*
X90605500Y-67600000D01*
X90589857Y-67521359D01*
X90545310Y-67454690D01*
X90478641Y-67410143D01*
X90469078Y-67408241D01*
X90469076Y-67408240D01*
X90443800Y-67403213D01*
X90400000Y-67394500D01*
X88500000Y-67394500D01*
X88456200Y-67403213D01*
X88430924Y-67408240D01*
X88430922Y-67408241D01*
X88421359Y-67410143D01*
X88354690Y-67454690D01*
X88310143Y-67521359D01*
X88294500Y-67600000D01*
X88294500Y-68900000D01*
X88310143Y-68978641D01*
X88354690Y-69045310D01*
X88421359Y-69089857D01*
X88430922Y-69091759D01*
X88430924Y-69091760D01*
X88451980Y-69095948D01*
X88500000Y-69105500D01*
X90400000Y-69105500D01*
X90448020Y-69095948D01*
X90469076Y-69091760D01*
X90469078Y-69091759D01*
X90478641Y-69089857D01*
X90545310Y-69045310D01*
X90589857Y-68978641D01*
X90605500Y-68900000D01*
X90605500Y-68674500D01*
X90624407Y-68616309D01*
X90673907Y-68580345D01*
X90704500Y-68575500D01*
X93281715Y-68575500D01*
X93290344Y-68575877D01*
X93328805Y-68579242D01*
X93366342Y-68569184D01*
X93374774Y-68567315D01*
X93404509Y-68562072D01*
X93404510Y-68562072D01*
X93413038Y-68560568D01*
X93420539Y-68556237D01*
X93426017Y-68554243D01*
X93431306Y-68551777D01*
X93439675Y-68549535D01*
X93446772Y-68544566D01*
X93471514Y-68527242D01*
X93478796Y-68522603D01*
X93504941Y-68507508D01*
X93504940Y-68507508D01*
X93512441Y-68503178D01*
X93537259Y-68473601D01*
X93543093Y-68467234D01*
X93775831Y-68234496D01*
X93830348Y-68206719D01*
X93845835Y-68205500D01*
X94125500Y-68205500D01*
X94183691Y-68224407D01*
X94219655Y-68273907D01*
X94224500Y-68304500D01*
X94224500Y-77695500D01*
X94205593Y-77753691D01*
X94156093Y-77789655D01*
X94125500Y-77794500D01*
X93800000Y-77794500D01*
X93756200Y-77803213D01*
X93730924Y-77808240D01*
X93730922Y-77808241D01*
X93721359Y-77810143D01*
X93654690Y-77854690D01*
X93610143Y-77921359D01*
X93594500Y-78000000D01*
X93594500Y-79454165D01*
X93575593Y-79512356D01*
X93565504Y-79524169D01*
X93194169Y-79895504D01*
X93139652Y-79923281D01*
X93124165Y-79924500D01*
X90704500Y-79924500D01*
X90646309Y-79905593D01*
X90610345Y-79856093D01*
X90605500Y-79825500D01*
X90605500Y-79600000D01*
X90589857Y-79521359D01*
X90561077Y-79478287D01*
X90550729Y-79462800D01*
X90545310Y-79454690D01*
X90478641Y-79410143D01*
X90469078Y-79408241D01*
X90469076Y-79408240D01*
X90443800Y-79403213D01*
X90400000Y-79394500D01*
X88500000Y-79394500D01*
X88456200Y-79403213D01*
X88430924Y-79408240D01*
X88430922Y-79408241D01*
X88421359Y-79410143D01*
X88354690Y-79454690D01*
X88349271Y-79462800D01*
X88338923Y-79478287D01*
X88310143Y-79521359D01*
X88294500Y-79600000D01*
X88294500Y-80900000D01*
X88310143Y-80978641D01*
X88354690Y-81045310D01*
X88421359Y-81089857D01*
X88430922Y-81091759D01*
X88430924Y-81091760D01*
X88451980Y-81095948D01*
X88500000Y-81105500D01*
X90400000Y-81105500D01*
X90448020Y-81095948D01*
X90469076Y-81091760D01*
X90469078Y-81091759D01*
X90478641Y-81089857D01*
X90545310Y-81045310D01*
X90589857Y-80978641D01*
X90605500Y-80900000D01*
X90605500Y-80674500D01*
X90624407Y-80616309D01*
X90673907Y-80580345D01*
X90704500Y-80575500D01*
X93281715Y-80575500D01*
X93290344Y-80575877D01*
X93328805Y-80579242D01*
X93366342Y-80569184D01*
X93374774Y-80567315D01*
X93404509Y-80562072D01*
X93404510Y-80562072D01*
X93413038Y-80560568D01*
X93420539Y-80556237D01*
X93426017Y-80554243D01*
X93431306Y-80551777D01*
X93439675Y-80549535D01*
X93446772Y-80544566D01*
X93471514Y-80527242D01*
X93478796Y-80522603D01*
X93512441Y-80503178D01*
X93537259Y-80473601D01*
X93543093Y-80467234D01*
X93775831Y-80234496D01*
X93830348Y-80206719D01*
X93845835Y-80205500D01*
X94125500Y-80205500D01*
X94183691Y-80224407D01*
X94219655Y-80273907D01*
X94224500Y-80304500D01*
X94224500Y-86294196D01*
X94223189Y-86304151D01*
X94223754Y-86304200D01*
X94222999Y-86312831D01*
X94220758Y-86321195D01*
X94223343Y-86350743D01*
X94224123Y-86359656D01*
X94224500Y-86368285D01*
X94224500Y-88695500D01*
X94205593Y-88753691D01*
X94156093Y-88789655D01*
X94125500Y-88794500D01*
X93800000Y-88794500D01*
X93756200Y-88803213D01*
X93730924Y-88808240D01*
X93730922Y-88808241D01*
X93721359Y-88810143D01*
X93654690Y-88854690D01*
X93610143Y-88921359D01*
X93594500Y-89000000D01*
X93594500Y-90454165D01*
X93575593Y-90512356D01*
X93565504Y-90524169D01*
X93194169Y-90895504D01*
X93139652Y-90923281D01*
X93124165Y-90924500D01*
X90704500Y-90924500D01*
X90646309Y-90905593D01*
X90610345Y-90856093D01*
X90605500Y-90825500D01*
X90605500Y-90600000D01*
X90589857Y-90521359D01*
X90545310Y-90454690D01*
X90478641Y-90410143D01*
X90469078Y-90408241D01*
X90469076Y-90408240D01*
X90443800Y-90403213D01*
X90400000Y-90394500D01*
X88500000Y-90394500D01*
X88456200Y-90403213D01*
X88430924Y-90408240D01*
X88430922Y-90408241D01*
X88421359Y-90410143D01*
X88354690Y-90454690D01*
X88310143Y-90521359D01*
X88294500Y-90600000D01*
X88294500Y-91900000D01*
X88310143Y-91978641D01*
X88354690Y-92045310D01*
X88421359Y-92089857D01*
X88430922Y-92091759D01*
X88430924Y-92091760D01*
X88451980Y-92095948D01*
X88500000Y-92105500D01*
X90400000Y-92105500D01*
X90448020Y-92095948D01*
X90469076Y-92091760D01*
X90469078Y-92091759D01*
X90478641Y-92089857D01*
X90545310Y-92045310D01*
X90589857Y-91978641D01*
X90605500Y-91900000D01*
X90605500Y-91674500D01*
X90624407Y-91616309D01*
X90673907Y-91580345D01*
X90704500Y-91575500D01*
X93281715Y-91575500D01*
X93290344Y-91575877D01*
X93328805Y-91579242D01*
X93366342Y-91569184D01*
X93374774Y-91567315D01*
X93404509Y-91562072D01*
X93404510Y-91562072D01*
X93413038Y-91560568D01*
X93420539Y-91556237D01*
X93426017Y-91554243D01*
X93431306Y-91551777D01*
X93439675Y-91549535D01*
X93446772Y-91544566D01*
X93471514Y-91527242D01*
X93478796Y-91522603D01*
X93504941Y-91507508D01*
X93504940Y-91507508D01*
X93512441Y-91503178D01*
X93537259Y-91473601D01*
X93543093Y-91467234D01*
X93775831Y-91234496D01*
X93830348Y-91206719D01*
X93845835Y-91205500D01*
X94125500Y-91205500D01*
X94183691Y-91224407D01*
X94219655Y-91273907D01*
X94224500Y-91304500D01*
X94224500Y-98695500D01*
X94205593Y-98753691D01*
X94156093Y-98789655D01*
X94125500Y-98794500D01*
X93800000Y-98794500D01*
X93756200Y-98803213D01*
X93730924Y-98808240D01*
X93730922Y-98808241D01*
X93721359Y-98810143D01*
X93654690Y-98854690D01*
X93610143Y-98921359D01*
X93594500Y-99000000D01*
X93594500Y-100454165D01*
X93575593Y-100512356D01*
X93565504Y-100524169D01*
X93194169Y-100895504D01*
X93139652Y-100923281D01*
X93124165Y-100924500D01*
X90704500Y-100924500D01*
X90646309Y-100905593D01*
X90610345Y-100856093D01*
X90605500Y-100825500D01*
X90605500Y-100600000D01*
X90589857Y-100521359D01*
X90545310Y-100454690D01*
X90478641Y-100410143D01*
X90469078Y-100408241D01*
X90469076Y-100408240D01*
X90443800Y-100403213D01*
X90400000Y-100394500D01*
X88500000Y-100394500D01*
X88456200Y-100403213D01*
X88430924Y-100408240D01*
X88430922Y-100408241D01*
X88421359Y-100410143D01*
X88354690Y-100454690D01*
X88310143Y-100521359D01*
X88294500Y-100600000D01*
X88294500Y-101900000D01*
X88310143Y-101978641D01*
X88354690Y-102045310D01*
X88421359Y-102089857D01*
X88430922Y-102091759D01*
X88430924Y-102091760D01*
X88451980Y-102095948D01*
X88500000Y-102105500D01*
X90400000Y-102105500D01*
X90448020Y-102095948D01*
X90469076Y-102091760D01*
X90469078Y-102091759D01*
X90478641Y-102089857D01*
X90545310Y-102045310D01*
X90589857Y-101978641D01*
X90605500Y-101900000D01*
X90605500Y-101674500D01*
X90624407Y-101616309D01*
X90673907Y-101580345D01*
X90704500Y-101575500D01*
X93281715Y-101575500D01*
X93290344Y-101575877D01*
X93328805Y-101579242D01*
X93366342Y-101569184D01*
X93374774Y-101567315D01*
X93404509Y-101562072D01*
X93404510Y-101562072D01*
X93413038Y-101560568D01*
X93420539Y-101556237D01*
X93426017Y-101554243D01*
X93431306Y-101551777D01*
X93439675Y-101549535D01*
X93446772Y-101544566D01*
X93471514Y-101527242D01*
X93478796Y-101522603D01*
X93504941Y-101507508D01*
X93504940Y-101507508D01*
X93512441Y-101503178D01*
X93537259Y-101473601D01*
X93543093Y-101467234D01*
X93775831Y-101234496D01*
X93830348Y-101206719D01*
X93845835Y-101205500D01*
X94125500Y-101205500D01*
X94183691Y-101224407D01*
X94219655Y-101273907D01*
X94224500Y-101304500D01*
X94224500Y-107695500D01*
X94205593Y-107753691D01*
X94156093Y-107789655D01*
X94125500Y-107794500D01*
X93800000Y-107794500D01*
X93756200Y-107803213D01*
X93730924Y-107808240D01*
X93730922Y-107808241D01*
X93721359Y-107810143D01*
X93654690Y-107854690D01*
X93610143Y-107921359D01*
X93594500Y-108000000D01*
X93594500Y-109454165D01*
X93575593Y-109512356D01*
X93565504Y-109524169D01*
X93194169Y-109895504D01*
X93139652Y-109923281D01*
X93124165Y-109924500D01*
X90704500Y-109924500D01*
X90646309Y-109905593D01*
X90610345Y-109856093D01*
X90605500Y-109825500D01*
X90605500Y-109600000D01*
X90589857Y-109521359D01*
X90545310Y-109454690D01*
X90478641Y-109410143D01*
X90469078Y-109408241D01*
X90469076Y-109408240D01*
X90443800Y-109403213D01*
X90400000Y-109394500D01*
X88500000Y-109394500D01*
X88456200Y-109403213D01*
X88430924Y-109408240D01*
X88430922Y-109408241D01*
X88421359Y-109410143D01*
X88354690Y-109454690D01*
X88310143Y-109521359D01*
X88294500Y-109600000D01*
X88294500Y-110900000D01*
X88310143Y-110978641D01*
X88354690Y-111045310D01*
X88421359Y-111089857D01*
X88430922Y-111091759D01*
X88430924Y-111091760D01*
X88451980Y-111095948D01*
X88500000Y-111105500D01*
X90400000Y-111105500D01*
X90448020Y-111095948D01*
X90469076Y-111091760D01*
X90469078Y-111091759D01*
X90478641Y-111089857D01*
X90545310Y-111045310D01*
X90589857Y-110978641D01*
X90605500Y-110900000D01*
X90605500Y-110674500D01*
X90624407Y-110616309D01*
X90673907Y-110580345D01*
X90704500Y-110575500D01*
X93281715Y-110575500D01*
X93290344Y-110575877D01*
X93328805Y-110579242D01*
X93366342Y-110569184D01*
X93374774Y-110567315D01*
X93404509Y-110562072D01*
X93404510Y-110562072D01*
X93413038Y-110560568D01*
X93420539Y-110556237D01*
X93426017Y-110554243D01*
X93431306Y-110551777D01*
X93439675Y-110549535D01*
X93456929Y-110537454D01*
X93471514Y-110527242D01*
X93478796Y-110522603D01*
X93504941Y-110507508D01*
X93504940Y-110507508D01*
X93512441Y-110503178D01*
X93537259Y-110473601D01*
X93543093Y-110467234D01*
X93775831Y-110234496D01*
X93830348Y-110206719D01*
X93845835Y-110205500D01*
X95300000Y-110205500D01*
X95343800Y-110196787D01*
X95369076Y-110191760D01*
X95369078Y-110191759D01*
X95378641Y-110189857D01*
X95445310Y-110145310D01*
X95489857Y-110078641D01*
X95505500Y-110000000D01*
X95505500Y-108000000D01*
X95489857Y-107921359D01*
X95445310Y-107854690D01*
X95378641Y-107810143D01*
X95369078Y-107808241D01*
X95369076Y-107808240D01*
X95343800Y-107803213D01*
X95300000Y-107794500D01*
X94974500Y-107794500D01*
X94916309Y-107775593D01*
X94880345Y-107726093D01*
X94875500Y-107695500D01*
X94875500Y-101304500D01*
X94894407Y-101246309D01*
X94943907Y-101210345D01*
X94974500Y-101205500D01*
X95300000Y-101205500D01*
X95345441Y-101196461D01*
X95369076Y-101191760D01*
X95369078Y-101191759D01*
X95378641Y-101189857D01*
X95445310Y-101145310D01*
X95489857Y-101078641D01*
X95493312Y-101061275D01*
X95496972Y-101042874D01*
X95505500Y-101000000D01*
X95505500Y-99000000D01*
X95489857Y-98921359D01*
X95445310Y-98854690D01*
X95378641Y-98810143D01*
X95369078Y-98808241D01*
X95369076Y-98808240D01*
X95343800Y-98803213D01*
X95300000Y-98794500D01*
X94974500Y-98794500D01*
X94916309Y-98775593D01*
X94880345Y-98726093D01*
X94875500Y-98695500D01*
X94875500Y-95475000D01*
X104594500Y-95475000D01*
X104594500Y-97975000D01*
X104610143Y-98053641D01*
X104654690Y-98120310D01*
X104721359Y-98164857D01*
X104730922Y-98166759D01*
X104730924Y-98166760D01*
X104756200Y-98171787D01*
X104800000Y-98180500D01*
X105000500Y-98180500D01*
X105058691Y-98199407D01*
X105094655Y-98248907D01*
X105099500Y-98279500D01*
X105099500Y-99599688D01*
X105080593Y-99657879D01*
X105039808Y-99687018D01*
X105041065Y-99689636D01*
X105023885Y-99697886D01*
X104918971Y-99748265D01*
X104819514Y-99840202D01*
X104805959Y-99863539D01*
X104755205Y-99950917D01*
X104755204Y-99950920D01*
X104751487Y-99957319D01*
X104749815Y-99964533D01*
X104729758Y-100051065D01*
X104724500Y-100073748D01*
X104724500Y-100758258D01*
X104728454Y-100784559D01*
X104731716Y-100806252D01*
X104739636Y-100858935D01*
X104742839Y-100865606D01*
X104742840Y-100865608D01*
X104771120Y-100924500D01*
X104798265Y-100981029D01*
X104803287Y-100986461D01*
X104803287Y-100986462D01*
X104807991Y-100991551D01*
X104833605Y-101047117D01*
X104821667Y-101107126D01*
X104819727Y-101110005D01*
X104819514Y-101110202D01*
X104819013Y-101111065D01*
X104755205Y-101220917D01*
X104755204Y-101220920D01*
X104751487Y-101227319D01*
X104749815Y-101234533D01*
X104736846Y-101290486D01*
X104724500Y-101343748D01*
X104724500Y-102028258D01*
X104727064Y-102045310D01*
X104737695Y-102116022D01*
X104739636Y-102128935D01*
X104742839Y-102135606D01*
X104742840Y-102135608D01*
X104785284Y-102223997D01*
X104798265Y-102251029D01*
X104890202Y-102350486D01*
X104932494Y-102375051D01*
X105000917Y-102414795D01*
X105000920Y-102414796D01*
X105007319Y-102418513D01*
X105044624Y-102427160D01*
X105118246Y-102444225D01*
X105118249Y-102444225D01*
X105123748Y-102445500D01*
X105708258Y-102445500D01*
X105744697Y-102440022D01*
X105801614Y-102431465D01*
X105801616Y-102431464D01*
X105808935Y-102430364D01*
X105815606Y-102427161D01*
X105815608Y-102427160D01*
X105924361Y-102374937D01*
X105931029Y-102371735D01*
X106030486Y-102279798D01*
X106081088Y-102192681D01*
X106094795Y-102169083D01*
X106094796Y-102169080D01*
X106098513Y-102162681D01*
X106101078Y-102151615D01*
X106106750Y-102127145D01*
X106138309Y-102074726D01*
X106194652Y-102050869D01*
X106203193Y-102050500D01*
X107823802Y-102050500D01*
X107881993Y-102069407D01*
X107899585Y-102085798D01*
X107908529Y-102096439D01*
X107908532Y-102096441D01*
X107913068Y-102101838D01*
X107918939Y-102105746D01*
X107918940Y-102105747D01*
X107923381Y-102108703D01*
X108032377Y-102181257D01*
X108039104Y-102183359D01*
X108039107Y-102183360D01*
X108162448Y-102221894D01*
X108162449Y-102221894D01*
X108169180Y-102223997D01*
X108240831Y-102225311D01*
X108305427Y-102226495D01*
X108305429Y-102226495D01*
X108312481Y-102226624D01*
X108319284Y-102224769D01*
X108319286Y-102224769D01*
X108366065Y-102212015D01*
X108450758Y-102188925D01*
X108572897Y-102113931D01*
X108600837Y-102083063D01*
X108653904Y-102052610D01*
X108674234Y-102050500D01*
X110038105Y-102050500D01*
X110096296Y-102069407D01*
X110132260Y-102118907D01*
X110136004Y-102134779D01*
X110139636Y-102158935D01*
X110142839Y-102165606D01*
X110142840Y-102165608D01*
X110194601Y-102273398D01*
X110198265Y-102281029D01*
X110290202Y-102380486D01*
X110340300Y-102409585D01*
X110400917Y-102444795D01*
X110400920Y-102444796D01*
X110407319Y-102448513D01*
X110444624Y-102457160D01*
X110518246Y-102474225D01*
X110518249Y-102474225D01*
X110523748Y-102475500D01*
X111108258Y-102475500D01*
X111144697Y-102470022D01*
X111201614Y-102461465D01*
X111201616Y-102461464D01*
X111208935Y-102460364D01*
X111215606Y-102457161D01*
X111215608Y-102457160D01*
X111324361Y-102404937D01*
X111331029Y-102401735D01*
X111430486Y-102309798D01*
X111468495Y-102244361D01*
X111494795Y-102199083D01*
X111494796Y-102199080D01*
X111498513Y-102192681D01*
X111516282Y-102116022D01*
X111524225Y-102081754D01*
X111524225Y-102081751D01*
X111525500Y-102076252D01*
X111525500Y-101391742D01*
X111518522Y-101345328D01*
X111511465Y-101298386D01*
X111511464Y-101298384D01*
X111510364Y-101291065D01*
X111497624Y-101264533D01*
X111476239Y-101220000D01*
X152584500Y-101220000D01*
X152584500Y-105730000D01*
X152600143Y-105808641D01*
X152644690Y-105875310D01*
X152711359Y-105919857D01*
X152720922Y-105921759D01*
X152720924Y-105921760D01*
X152746200Y-105926787D01*
X152790000Y-105935500D01*
X153425500Y-105935500D01*
X153483691Y-105954407D01*
X153519655Y-106003907D01*
X153524500Y-106034500D01*
X153524500Y-108556715D01*
X153524123Y-108565344D01*
X153520758Y-108603805D01*
X153522999Y-108612168D01*
X153530816Y-108641342D01*
X153532685Y-108649774D01*
X153539432Y-108688038D01*
X153543763Y-108695539D01*
X153545757Y-108701017D01*
X153548223Y-108706306D01*
X153550465Y-108714675D01*
X153555433Y-108721771D01*
X153555434Y-108721772D01*
X153572758Y-108746514D01*
X153577396Y-108753795D01*
X153596822Y-108787441D01*
X153626398Y-108812258D01*
X153632766Y-108818093D01*
X156221907Y-111407234D01*
X156227741Y-111413601D01*
X156252559Y-111443178D01*
X156286214Y-111462608D01*
X156293497Y-111467248D01*
X156318228Y-111484565D01*
X156318230Y-111484566D01*
X156325325Y-111489534D01*
X156333694Y-111491776D01*
X156338994Y-111494248D01*
X156344463Y-111496239D01*
X156351962Y-111500568D01*
X156360489Y-111502072D01*
X156360490Y-111502072D01*
X156376800Y-111504948D01*
X156390233Y-111507317D01*
X156398658Y-111509184D01*
X156436194Y-111519242D01*
X156474656Y-111515877D01*
X156483284Y-111515500D01*
X164667115Y-111515500D01*
X164725306Y-111534407D01*
X164761270Y-111583907D01*
X164762124Y-111586860D01*
X164762527Y-111587999D01*
X164763646Y-111592404D01*
X164856006Y-111792750D01*
X164983331Y-111972910D01*
X165141354Y-112126849D01*
X165324785Y-112249414D01*
X165527480Y-112336499D01*
X165742651Y-112385187D01*
X165852871Y-112389518D01*
X165958558Y-112393670D01*
X165958559Y-112393670D01*
X165963091Y-112393848D01*
X166072254Y-112378020D01*
X166176924Y-112362844D01*
X166176928Y-112362843D01*
X166181418Y-112362192D01*
X166198960Y-112356237D01*
X166386024Y-112292738D01*
X166386027Y-112292736D01*
X166390321Y-112291279D01*
X166582803Y-112183484D01*
X166739698Y-112052995D01*
X166748923Y-112045323D01*
X166752417Y-112042417D01*
X166893484Y-111872803D01*
X167001279Y-111680321D01*
X167012589Y-111647005D01*
X167070733Y-111475716D01*
X167072192Y-111471418D01*
X167073470Y-111462608D01*
X167103428Y-111255990D01*
X167103428Y-111255984D01*
X167103848Y-111253091D01*
X167105500Y-111190000D01*
X167098703Y-111116022D01*
X167085729Y-110974833D01*
X167085314Y-110970315D01*
X167025431Y-110757987D01*
X166984260Y-110674500D01*
X166929869Y-110564205D01*
X166929867Y-110564201D01*
X166927858Y-110560128D01*
X166795861Y-110383363D01*
X166633862Y-110233613D01*
X166608685Y-110217727D01*
X166451123Y-110118313D01*
X166447286Y-110115892D01*
X166242380Y-110034143D01*
X166026009Y-109991104D01*
X165917318Y-109989681D01*
X165809958Y-109988275D01*
X165809953Y-109988275D01*
X165805418Y-109988216D01*
X165800945Y-109988985D01*
X165800940Y-109988985D01*
X165709119Y-110004763D01*
X165587994Y-110025576D01*
X165381019Y-110101933D01*
X165191425Y-110214730D01*
X165188010Y-110217725D01*
X165188007Y-110217727D01*
X165169893Y-110233613D01*
X165025561Y-110360189D01*
X164888983Y-110533438D01*
X164886870Y-110537453D01*
X164886870Y-110537454D01*
X164866655Y-110575877D01*
X164786263Y-110728675D01*
X164784918Y-110733007D01*
X164765713Y-110794857D01*
X164730401Y-110844824D01*
X164671166Y-110864500D01*
X156640835Y-110864500D01*
X156582644Y-110845593D01*
X156570831Y-110835504D01*
X154204496Y-108469169D01*
X154176719Y-108414652D01*
X154175500Y-108399165D01*
X154175500Y-106034500D01*
X154194407Y-105976309D01*
X154243907Y-105940345D01*
X154274500Y-105935500D01*
X154910000Y-105935500D01*
X154953800Y-105926787D01*
X154979076Y-105921760D01*
X154979078Y-105921759D01*
X154988641Y-105919857D01*
X155055310Y-105875310D01*
X155099857Y-105808641D01*
X155115500Y-105730000D01*
X155115500Y-101220000D01*
X155106676Y-101175639D01*
X155101760Y-101150924D01*
X155101759Y-101150922D01*
X155099857Y-101141359D01*
X155055310Y-101074690D01*
X155035741Y-101061614D01*
X154996751Y-101035562D01*
X154988641Y-101030143D01*
X154979078Y-101028241D01*
X154979076Y-101028240D01*
X154953800Y-101023213D01*
X154910000Y-101014500D01*
X152790000Y-101014500D01*
X152746200Y-101023213D01*
X152720924Y-101028240D01*
X152720922Y-101028241D01*
X152711359Y-101030143D01*
X152703249Y-101035562D01*
X152664260Y-101061614D01*
X152644690Y-101074690D01*
X152600143Y-101141359D01*
X152598241Y-101150922D01*
X152598240Y-101150924D01*
X152593324Y-101175639D01*
X152584500Y-101220000D01*
X111476239Y-101220000D01*
X111454937Y-101175639D01*
X111451735Y-101168971D01*
X111442009Y-101158449D01*
X111416395Y-101102883D01*
X111428333Y-101042874D01*
X111430273Y-101039995D01*
X111430486Y-101039798D01*
X111472040Y-100968258D01*
X111494795Y-100929083D01*
X111494796Y-100929080D01*
X111498513Y-100922681D01*
X111513289Y-100858935D01*
X111524225Y-100811754D01*
X111524225Y-100811751D01*
X111525500Y-100806252D01*
X111525500Y-100121742D01*
X111519070Y-100078971D01*
X111511465Y-100028386D01*
X111511464Y-100028384D01*
X111510364Y-100021065D01*
X111499637Y-99998725D01*
X111454937Y-99905639D01*
X111451735Y-99898971D01*
X111359798Y-99799514D01*
X111301750Y-99765797D01*
X111249083Y-99735205D01*
X111249080Y-99735204D01*
X111242681Y-99731487D01*
X111200690Y-99721754D01*
X111131754Y-99705775D01*
X111131751Y-99705775D01*
X111126252Y-99704500D01*
X111120606Y-99704500D01*
X111115001Y-99703859D01*
X111115271Y-99701501D01*
X111066309Y-99685593D01*
X111030345Y-99636093D01*
X111025500Y-99605500D01*
X111025500Y-98250959D01*
X111044407Y-98192768D01*
X111079045Y-98165462D01*
X111078641Y-98164857D01*
X111086331Y-98159719D01*
X111086334Y-98159717D01*
X111145310Y-98120310D01*
X111189857Y-98053641D01*
X111205500Y-97975000D01*
X111205500Y-95475000D01*
X111189857Y-95396359D01*
X111145310Y-95329690D01*
X111078641Y-95285143D01*
X111069078Y-95283241D01*
X111069076Y-95283240D01*
X111043800Y-95278213D01*
X111000000Y-95269500D01*
X109800000Y-95269500D01*
X109756200Y-95278213D01*
X109730924Y-95283240D01*
X109730922Y-95283241D01*
X109721359Y-95285143D01*
X109654690Y-95329690D01*
X109610143Y-95396359D01*
X109594500Y-95475000D01*
X109594500Y-97975000D01*
X109610143Y-98053641D01*
X109654690Y-98120310D01*
X109721359Y-98164857D01*
X109730922Y-98166759D01*
X109730924Y-98166760D01*
X109756200Y-98171787D01*
X109800000Y-98180500D01*
X110275500Y-98180500D01*
X110333691Y-98199407D01*
X110369655Y-98248907D01*
X110374500Y-98279500D01*
X110374500Y-99689440D01*
X110355593Y-99747631D01*
X110331147Y-99771321D01*
X110325645Y-99775060D01*
X110318971Y-99778265D01*
X110219514Y-99870202D01*
X110206992Y-99891760D01*
X110155205Y-99980917D01*
X110155204Y-99980920D01*
X110151487Y-99987319D01*
X110149815Y-99994533D01*
X110128131Y-100088085D01*
X110124500Y-100103748D01*
X110124500Y-100788258D01*
X110139636Y-100888935D01*
X110142839Y-100895606D01*
X110142840Y-100895608D01*
X110183859Y-100981029D01*
X110198265Y-101011029D01*
X110203287Y-101016461D01*
X110203287Y-101016462D01*
X110207991Y-101021551D01*
X110233605Y-101077117D01*
X110221667Y-101137126D01*
X110219727Y-101140005D01*
X110219514Y-101140202D01*
X110213286Y-101150924D01*
X110155205Y-101250917D01*
X110155204Y-101250920D01*
X110151487Y-101257319D01*
X110149448Y-101266118D01*
X110136297Y-101322854D01*
X110104739Y-101375273D01*
X110048397Y-101399131D01*
X110039854Y-101399500D01*
X108675439Y-101399500D01*
X108617248Y-101380593D01*
X108600446Y-101365129D01*
X108582303Y-101344074D01*
X108462033Y-101266118D01*
X108455275Y-101264097D01*
X108455273Y-101264096D01*
X108331479Y-101227074D01*
X108324718Y-101225052D01*
X108238694Y-101224527D01*
X108188448Y-101224220D01*
X108181396Y-101224177D01*
X108174620Y-101226114D01*
X108174617Y-101226114D01*
X108050369Y-101261624D01*
X108050367Y-101261625D01*
X108043589Y-101263562D01*
X108037625Y-101267325D01*
X107975199Y-101306713D01*
X107922375Y-101340042D01*
X107917708Y-101345326D01*
X107917706Y-101345328D01*
X107899420Y-101366034D01*
X107846729Y-101397134D01*
X107825216Y-101399500D01*
X106216405Y-101399500D01*
X106158214Y-101380593D01*
X106122250Y-101331093D01*
X106118505Y-101315218D01*
X106118463Y-101314937D01*
X106110364Y-101261065D01*
X106103279Y-101246309D01*
X106054937Y-101145639D01*
X106051735Y-101138971D01*
X106042009Y-101128449D01*
X106016395Y-101072883D01*
X106028333Y-101012874D01*
X106030273Y-101009995D01*
X106030486Y-101009798D01*
X106085278Y-100915467D01*
X106094795Y-100899083D01*
X106094796Y-100899080D01*
X106098513Y-100892681D01*
X106117271Y-100811754D01*
X106124225Y-100781754D01*
X106124225Y-100781751D01*
X106125500Y-100776252D01*
X106125500Y-100091742D01*
X106110364Y-99991065D01*
X106097624Y-99964533D01*
X106054937Y-99875639D01*
X106051735Y-99868971D01*
X105959798Y-99769514D01*
X105858379Y-99710605D01*
X105849079Y-99705203D01*
X105849078Y-99705202D01*
X105842681Y-99701487D01*
X105827146Y-99697886D01*
X105774727Y-99666328D01*
X105750869Y-99609986D01*
X105750500Y-99601443D01*
X105750500Y-98279500D01*
X105769407Y-98221309D01*
X105818907Y-98185345D01*
X105849500Y-98180500D01*
X106000000Y-98180500D01*
X106043800Y-98171787D01*
X106069076Y-98166760D01*
X106069078Y-98166759D01*
X106078641Y-98164857D01*
X106145310Y-98120310D01*
X106189857Y-98053641D01*
X106205500Y-97975000D01*
X106205500Y-95475000D01*
X107094500Y-95475000D01*
X107094500Y-97975000D01*
X107110143Y-98053641D01*
X107154690Y-98120310D01*
X107221359Y-98164857D01*
X107230922Y-98166759D01*
X107230924Y-98166760D01*
X107256200Y-98171787D01*
X107300000Y-98180500D01*
X108500000Y-98180500D01*
X108543800Y-98171787D01*
X108569076Y-98166760D01*
X108569078Y-98166759D01*
X108578641Y-98164857D01*
X108645310Y-98120310D01*
X108689857Y-98053641D01*
X108705500Y-97975000D01*
X108705500Y-95475000D01*
X108689857Y-95396359D01*
X108645310Y-95329690D01*
X108616924Y-95310723D01*
X108579045Y-95262673D01*
X108576643Y-95201535D01*
X108601921Y-95158406D01*
X109035110Y-94725216D01*
X109035113Y-94725214D01*
X109567234Y-94193093D01*
X109573602Y-94187258D01*
X109603178Y-94162441D01*
X109622604Y-94128795D01*
X109627242Y-94121514D01*
X109644566Y-94096772D01*
X109644567Y-94096771D01*
X109649535Y-94089675D01*
X109651777Y-94081306D01*
X109654243Y-94076017D01*
X109656237Y-94070539D01*
X109660568Y-94063038D01*
X109667315Y-94024774D01*
X109669184Y-94016342D01*
X109677001Y-93987168D01*
X109679242Y-93978805D01*
X109675877Y-93940344D01*
X109675500Y-93931715D01*
X109675500Y-92776368D01*
X109694407Y-92718177D01*
X109743907Y-92682213D01*
X109790349Y-92679473D01*
X109790388Y-92679075D01*
X109792901Y-92679322D01*
X109793807Y-92679269D01*
X109795229Y-92679552D01*
X109795239Y-92679553D01*
X109800000Y-92680500D01*
X111000000Y-92680500D01*
X111043800Y-92671787D01*
X111069076Y-92666760D01*
X111069078Y-92666759D01*
X111078641Y-92664857D01*
X111145310Y-92620310D01*
X111189857Y-92553641D01*
X111205500Y-92475000D01*
X111205500Y-89975000D01*
X111189857Y-89896359D01*
X111145310Y-89829690D01*
X111078641Y-89785143D01*
X111069078Y-89783241D01*
X111069076Y-89783240D01*
X111043800Y-89778213D01*
X111000000Y-89769500D01*
X109800000Y-89769500D01*
X109795239Y-89770447D01*
X109795229Y-89770448D01*
X109793807Y-89770731D01*
X109793149Y-89770653D01*
X109790388Y-89770925D01*
X109790328Y-89770319D01*
X109733046Y-89763535D01*
X109688119Y-89721999D01*
X109675500Y-89673632D01*
X109675500Y-89224206D01*
X109694407Y-89166015D01*
X109701103Y-89157769D01*
X109764346Y-89087900D01*
X109764346Y-89087899D01*
X109769078Y-89082672D01*
X109831570Y-88953689D01*
X109834557Y-88935939D01*
X109854715Y-88816120D01*
X109854715Y-88816117D01*
X109855349Y-88812350D01*
X109855400Y-88808240D01*
X109855453Y-88803826D01*
X109855500Y-88800000D01*
X109848250Y-88749371D01*
X109836182Y-88665106D01*
X109835182Y-88658123D01*
X109830942Y-88648796D01*
X109778780Y-88534073D01*
X109778780Y-88534072D01*
X109775860Y-88527651D01*
X109682303Y-88419074D01*
X109562033Y-88341118D01*
X109555275Y-88339097D01*
X109555273Y-88339096D01*
X109431479Y-88302074D01*
X109424718Y-88300052D01*
X109338694Y-88299527D01*
X109288448Y-88299220D01*
X109281396Y-88299177D01*
X109274620Y-88301114D01*
X109274617Y-88301114D01*
X109150369Y-88336624D01*
X109150367Y-88336625D01*
X109143589Y-88338562D01*
X109022375Y-88415042D01*
X108927499Y-88522469D01*
X108866588Y-88652206D01*
X108844538Y-88793824D01*
X108845453Y-88800822D01*
X108861215Y-88921359D01*
X108863121Y-88935939D01*
X108865962Y-88942395D01*
X108865962Y-88942396D01*
X108913677Y-89050835D01*
X108920845Y-89067126D01*
X108925382Y-89072523D01*
X108925383Y-89072525D01*
X109001283Y-89162818D01*
X109024253Y-89219528D01*
X109024500Y-89226520D01*
X109024500Y-93774165D01*
X109005593Y-93832356D01*
X108995504Y-93844169D01*
X108574786Y-94264887D01*
X108574784Y-94264890D01*
X107682767Y-95156906D01*
X107676399Y-95162740D01*
X107653459Y-95181989D01*
X107653456Y-95181992D01*
X107646822Y-95187559D01*
X107631248Y-95214533D01*
X107628092Y-95220000D01*
X107582623Y-95260941D01*
X107542356Y-95269500D01*
X107300000Y-95269500D01*
X107256200Y-95278213D01*
X107230924Y-95283240D01*
X107230922Y-95283241D01*
X107221359Y-95285143D01*
X107154690Y-95329690D01*
X107110143Y-95396359D01*
X107094500Y-95475000D01*
X106205500Y-95475000D01*
X106189857Y-95396359D01*
X106145310Y-95329690D01*
X106078641Y-95285143D01*
X106069078Y-95283241D01*
X106069076Y-95283240D01*
X106043800Y-95278213D01*
X106000000Y-95269500D01*
X104800000Y-95269500D01*
X104756200Y-95278213D01*
X104730924Y-95283240D01*
X104730922Y-95283241D01*
X104721359Y-95285143D01*
X104654690Y-95329690D01*
X104610143Y-95396359D01*
X104594500Y-95475000D01*
X94875500Y-95475000D01*
X94875500Y-91304500D01*
X94894407Y-91246309D01*
X94943907Y-91210345D01*
X94974500Y-91205500D01*
X95300000Y-91205500D01*
X95343800Y-91196787D01*
X95369076Y-91191760D01*
X95369078Y-91191759D01*
X95378641Y-91189857D01*
X95445310Y-91145310D01*
X95489857Y-91078641D01*
X95505500Y-91000000D01*
X95505500Y-89975000D01*
X104594500Y-89975000D01*
X104594500Y-92475000D01*
X104610143Y-92553641D01*
X104654690Y-92620310D01*
X104721359Y-92664857D01*
X104730922Y-92666759D01*
X104730924Y-92666760D01*
X104756200Y-92671787D01*
X104800000Y-92680500D01*
X106000000Y-92680500D01*
X106043800Y-92671787D01*
X106069076Y-92666760D01*
X106069078Y-92666759D01*
X106078641Y-92664857D01*
X106145310Y-92620310D01*
X106189857Y-92553641D01*
X106205500Y-92475000D01*
X106205500Y-89975000D01*
X107094500Y-89975000D01*
X107094500Y-92475000D01*
X107110143Y-92553641D01*
X107154690Y-92620310D01*
X107221359Y-92664857D01*
X107230922Y-92666759D01*
X107230924Y-92666760D01*
X107256200Y-92671787D01*
X107300000Y-92680500D01*
X108500000Y-92680500D01*
X108543800Y-92671787D01*
X108569076Y-92666760D01*
X108569078Y-92666759D01*
X108578641Y-92664857D01*
X108645310Y-92620310D01*
X108689857Y-92553641D01*
X108705500Y-92475000D01*
X108705500Y-89975000D01*
X108689857Y-89896359D01*
X108645310Y-89829690D01*
X108578641Y-89785143D01*
X108569078Y-89783241D01*
X108569076Y-89783240D01*
X108543800Y-89778213D01*
X108500000Y-89769500D01*
X107300000Y-89769500D01*
X107256200Y-89778213D01*
X107230924Y-89783240D01*
X107230922Y-89783241D01*
X107221359Y-89785143D01*
X107154690Y-89829690D01*
X107110143Y-89896359D01*
X107094500Y-89975000D01*
X106205500Y-89975000D01*
X106189857Y-89896359D01*
X106145310Y-89829690D01*
X106078641Y-89785143D01*
X106069078Y-89783241D01*
X106069076Y-89783240D01*
X106043800Y-89778213D01*
X106000000Y-89769500D01*
X104800000Y-89769500D01*
X104756200Y-89778213D01*
X104730924Y-89783240D01*
X104730922Y-89783241D01*
X104721359Y-89785143D01*
X104654690Y-89829690D01*
X104610143Y-89896359D01*
X104594500Y-89975000D01*
X95505500Y-89975000D01*
X95505500Y-89000000D01*
X95489857Y-88921359D01*
X95445310Y-88854690D01*
X95378641Y-88810143D01*
X95369078Y-88808241D01*
X95369076Y-88808240D01*
X95343800Y-88803213D01*
X95300000Y-88794500D01*
X94974500Y-88794500D01*
X94916309Y-88775593D01*
X94880345Y-88726093D01*
X94875500Y-88695500D01*
X94875500Y-88208243D01*
X111142705Y-88208243D01*
X111142705Y-88295142D01*
X111143653Y-88304763D01*
X111156408Y-88368888D01*
X111163727Y-88386557D01*
X111197329Y-88436847D01*
X111210858Y-88450376D01*
X111261148Y-88483978D01*
X111278817Y-88491297D01*
X111342942Y-88504052D01*
X111352563Y-88505000D01*
X111907025Y-88505000D01*
X111919710Y-88500878D01*
X111922705Y-88496757D01*
X111922705Y-88215680D01*
X111920288Y-88208243D01*
X112322705Y-88208243D01*
X112322705Y-88489320D01*
X112326827Y-88502005D01*
X112330948Y-88505000D01*
X112892847Y-88505000D01*
X112902468Y-88504052D01*
X112966593Y-88491297D01*
X112984262Y-88483978D01*
X113034552Y-88450376D01*
X113048081Y-88436847D01*
X113081683Y-88386557D01*
X113089002Y-88368888D01*
X113101757Y-88304763D01*
X113102705Y-88295142D01*
X113102705Y-88215680D01*
X113098583Y-88202995D01*
X113094462Y-88200000D01*
X112338385Y-88200000D01*
X112325700Y-88204122D01*
X112322705Y-88208243D01*
X111920288Y-88208243D01*
X111918583Y-88202995D01*
X111914462Y-88200000D01*
X111158385Y-88200000D01*
X111145700Y-88204122D01*
X111142705Y-88208243D01*
X94875500Y-88208243D01*
X94875500Y-87810422D01*
X116547205Y-87810422D01*
X116547205Y-88180039D01*
X116561372Y-88265153D01*
X116616805Y-88367888D01*
X116702527Y-88447130D01*
X116710010Y-88450438D01*
X116710013Y-88450440D01*
X116767809Y-88475990D01*
X116809296Y-88494331D01*
X116858127Y-88500500D01*
X117098205Y-88500500D01*
X117156396Y-88519407D01*
X117192360Y-88568907D01*
X117197205Y-88599500D01*
X117197205Y-91752472D01*
X117178298Y-91810663D01*
X117172409Y-91818006D01*
X117104874Y-91894476D01*
X117100204Y-91899764D01*
X117039293Y-92029501D01*
X117017243Y-92171119D01*
X117035826Y-92313234D01*
X117038667Y-92319690D01*
X117038667Y-92319691D01*
X117040575Y-92324026D01*
X117093550Y-92444421D01*
X117185773Y-92554133D01*
X117191644Y-92558041D01*
X117191645Y-92558042D01*
X117197217Y-92561751D01*
X117305082Y-92633552D01*
X117311809Y-92635654D01*
X117311812Y-92635655D01*
X117435153Y-92674189D01*
X117435154Y-92674189D01*
X117441885Y-92676292D01*
X117513535Y-92677605D01*
X117578132Y-92678790D01*
X117578134Y-92678790D01*
X117585186Y-92678919D01*
X117591989Y-92677064D01*
X117591991Y-92677064D01*
X117638770Y-92664310D01*
X117723463Y-92641220D01*
X117845602Y-92566226D01*
X117856548Y-92554133D01*
X117937051Y-92465195D01*
X117937051Y-92465194D01*
X117941783Y-92459967D01*
X118004275Y-92330984D01*
X118007262Y-92313234D01*
X118027420Y-92193415D01*
X118027420Y-92193412D01*
X118028054Y-92189645D01*
X118028205Y-92177295D01*
X118007887Y-92035418D01*
X118004624Y-92028240D01*
X117951485Y-91911368D01*
X117951485Y-91911367D01*
X117948565Y-91904946D01*
X117872206Y-91816328D01*
X117848545Y-91759903D01*
X117848205Y-91751704D01*
X117848205Y-90043824D01*
X132994538Y-90043824D01*
X133013121Y-90185939D01*
X133015962Y-90192395D01*
X133015962Y-90192396D01*
X133064708Y-90303178D01*
X133070845Y-90317126D01*
X133075382Y-90322523D01*
X133075383Y-90322525D01*
X133118881Y-90374271D01*
X133163068Y-90426838D01*
X133168939Y-90430746D01*
X133168940Y-90430747D01*
X133180210Y-90438249D01*
X133282377Y-90506257D01*
X133289104Y-90508359D01*
X133289107Y-90508360D01*
X133412448Y-90546894D01*
X133412449Y-90546894D01*
X133419180Y-90548997D01*
X133490831Y-90550311D01*
X133555427Y-90551495D01*
X133555429Y-90551495D01*
X133562481Y-90551624D01*
X133569284Y-90549769D01*
X133569286Y-90549769D01*
X133638407Y-90530924D01*
X133700758Y-90513925D01*
X133822897Y-90438931D01*
X133850837Y-90408063D01*
X133903904Y-90377610D01*
X133924234Y-90375500D01*
X133931715Y-90375500D01*
X133940344Y-90375877D01*
X133978805Y-90379242D01*
X134016342Y-90369184D01*
X134024774Y-90367315D01*
X134054509Y-90362072D01*
X134054510Y-90362072D01*
X134063038Y-90360568D01*
X134070539Y-90356237D01*
X134076017Y-90354243D01*
X134081306Y-90351777D01*
X134089675Y-90349535D01*
X134102490Y-90340562D01*
X134121514Y-90327242D01*
X134128796Y-90322603D01*
X134132529Y-90320448D01*
X134162441Y-90303178D01*
X134187259Y-90273601D01*
X134193093Y-90267234D01*
X134916420Y-89543907D01*
X135650830Y-88809496D01*
X135705347Y-88781719D01*
X135720834Y-88780500D01*
X137025000Y-88780500D01*
X137075318Y-88770491D01*
X137094076Y-88766760D01*
X137094078Y-88766759D01*
X137103641Y-88764857D01*
X137170310Y-88720310D01*
X137181552Y-88703486D01*
X137209438Y-88661751D01*
X137214857Y-88653641D01*
X137230500Y-88575000D01*
X137230500Y-87275000D01*
X137221787Y-87231200D01*
X137216760Y-87205924D01*
X137216759Y-87205922D01*
X137214857Y-87196359D01*
X137170310Y-87129690D01*
X137150744Y-87116616D01*
X137111751Y-87090562D01*
X137103641Y-87085143D01*
X137094078Y-87083241D01*
X137094076Y-87083240D01*
X137068800Y-87078213D01*
X137025000Y-87069500D01*
X135125000Y-87069500D01*
X135081200Y-87078213D01*
X135055924Y-87083240D01*
X135055922Y-87083241D01*
X135046359Y-87085143D01*
X135038249Y-87090562D01*
X134999257Y-87116616D01*
X134979690Y-87129690D01*
X134935143Y-87196359D01*
X134933241Y-87205922D01*
X134933240Y-87205924D01*
X134928213Y-87231200D01*
X134919500Y-87275000D01*
X134919500Y-88575000D01*
X134918103Y-88575000D01*
X134906277Y-88628863D01*
X134890877Y-88648796D01*
X133912176Y-89627497D01*
X133857659Y-89655274D01*
X133797227Y-89645703D01*
X133788325Y-89640568D01*
X133717954Y-89594956D01*
X133717955Y-89594956D01*
X133712033Y-89591118D01*
X133705275Y-89589097D01*
X133705273Y-89589096D01*
X133581479Y-89552074D01*
X133574718Y-89550052D01*
X133488694Y-89549527D01*
X133438448Y-89549220D01*
X133431396Y-89549177D01*
X133424620Y-89551114D01*
X133424617Y-89551114D01*
X133300369Y-89586624D01*
X133300367Y-89586625D01*
X133293589Y-89588562D01*
X133172375Y-89665042D01*
X133077499Y-89772469D01*
X133016588Y-89902206D01*
X132994538Y-90043824D01*
X117848205Y-90043824D01*
X117848205Y-88599500D01*
X117867112Y-88541309D01*
X117916612Y-88505345D01*
X117947205Y-88500500D01*
X118177744Y-88500500D01*
X118262858Y-88486333D01*
X118365593Y-88430900D01*
X118444835Y-88345178D01*
X118448143Y-88337695D01*
X118448145Y-88337692D01*
X118480213Y-88265153D01*
X118492036Y-88238409D01*
X118498205Y-88189578D01*
X118498205Y-87819961D01*
X118484038Y-87734847D01*
X118428605Y-87632112D01*
X118342883Y-87552870D01*
X118335400Y-87549562D01*
X118335397Y-87549560D01*
X118262998Y-87517554D01*
X118236114Y-87505669D01*
X118187283Y-87499500D01*
X116867666Y-87499500D01*
X116782552Y-87513667D01*
X116679817Y-87569100D01*
X116600575Y-87654822D01*
X116597267Y-87662305D01*
X116597265Y-87662308D01*
X116572023Y-87719407D01*
X116553374Y-87761591D01*
X116547205Y-87810422D01*
X94875500Y-87810422D01*
X94875500Y-87704858D01*
X111142705Y-87704858D01*
X111142705Y-87784320D01*
X111146827Y-87797005D01*
X111150948Y-87800000D01*
X111907025Y-87800000D01*
X111919710Y-87795878D01*
X111922705Y-87791757D01*
X111922705Y-87510680D01*
X111920288Y-87503243D01*
X112322705Y-87503243D01*
X112322705Y-87784320D01*
X112326827Y-87797005D01*
X112330948Y-87800000D01*
X113087025Y-87800000D01*
X113099710Y-87795878D01*
X113102705Y-87791757D01*
X113102705Y-87704858D01*
X113101757Y-87695237D01*
X113089002Y-87631112D01*
X113081683Y-87613443D01*
X113048081Y-87563153D01*
X113034552Y-87549624D01*
X112984262Y-87516022D01*
X112966593Y-87508703D01*
X112902468Y-87495948D01*
X112892847Y-87495000D01*
X112338385Y-87495000D01*
X112325700Y-87499122D01*
X112322705Y-87503243D01*
X111920288Y-87503243D01*
X111918583Y-87497995D01*
X111914462Y-87495000D01*
X111352563Y-87495000D01*
X111342942Y-87495948D01*
X111278817Y-87508703D01*
X111261148Y-87516022D01*
X111210858Y-87549624D01*
X111197329Y-87563153D01*
X111163727Y-87613443D01*
X111156408Y-87631112D01*
X111143653Y-87695237D01*
X111142705Y-87704858D01*
X94875500Y-87704858D01*
X94875500Y-86694500D01*
X94894407Y-86636309D01*
X94943907Y-86600345D01*
X94974500Y-86595500D01*
X107213105Y-86595500D01*
X107271296Y-86614407D01*
X107307260Y-86663907D01*
X107311004Y-86679779D01*
X107314636Y-86703935D01*
X107317839Y-86710606D01*
X107317840Y-86710608D01*
X107331113Y-86738249D01*
X107373265Y-86826029D01*
X107465202Y-86925486D01*
X107508267Y-86950500D01*
X107575917Y-86989795D01*
X107575920Y-86989796D01*
X107582319Y-86993513D01*
X107619624Y-87002160D01*
X107693246Y-87019225D01*
X107693249Y-87019225D01*
X107698748Y-87020500D01*
X108283258Y-87020500D01*
X108319697Y-87015022D01*
X108376614Y-87006465D01*
X108376616Y-87006464D01*
X108383935Y-87005364D01*
X108390606Y-87002161D01*
X108390608Y-87002160D01*
X108499361Y-86949937D01*
X108506029Y-86946735D01*
X108605486Y-86854798D01*
X108643124Y-86790000D01*
X108669795Y-86744083D01*
X108669796Y-86744080D01*
X108673513Y-86737681D01*
X108688704Y-86672145D01*
X108720261Y-86619727D01*
X108776603Y-86595869D01*
X108785146Y-86595500D01*
X109294165Y-86595500D01*
X109352356Y-86614407D01*
X109364169Y-86624496D01*
X109686907Y-86947234D01*
X109692741Y-86953601D01*
X109717559Y-86983178D01*
X109725060Y-86987508D01*
X109725059Y-86987508D01*
X109751204Y-87002603D01*
X109758486Y-87007242D01*
X109770790Y-87015856D01*
X109790325Y-87029535D01*
X109798689Y-87031776D01*
X109803974Y-87034241D01*
X109809463Y-87036239D01*
X109816962Y-87040568D01*
X109825491Y-87042072D01*
X109855225Y-87047315D01*
X109863654Y-87049183D01*
X109901194Y-87059242D01*
X109939656Y-87055877D01*
X109948284Y-87055500D01*
X111071746Y-87055500D01*
X111129937Y-87074407D01*
X111157243Y-87109045D01*
X111157848Y-87108641D01*
X111202395Y-87175310D01*
X111269064Y-87219857D01*
X111278627Y-87221759D01*
X111278629Y-87221760D01*
X111303905Y-87226787D01*
X111347705Y-87235500D01*
X112897705Y-87235500D01*
X112941505Y-87226787D01*
X112966781Y-87221760D01*
X112966783Y-87221759D01*
X112976346Y-87219857D01*
X113043015Y-87175310D01*
X113087562Y-87108641D01*
X113103205Y-87030000D01*
X113103205Y-86430000D01*
X113091842Y-86372876D01*
X113089465Y-86360924D01*
X113089464Y-86360922D01*
X113087562Y-86351359D01*
X113056051Y-86304200D01*
X113048434Y-86292800D01*
X113043015Y-86284690D01*
X113032481Y-86277651D01*
X112984456Y-86245562D01*
X112976346Y-86240143D01*
X112966783Y-86238241D01*
X112966781Y-86238240D01*
X112941505Y-86233213D01*
X112897705Y-86224500D01*
X111347705Y-86224500D01*
X111303905Y-86233213D01*
X111278629Y-86238240D01*
X111278627Y-86238241D01*
X111269064Y-86240143D01*
X111260954Y-86245562D01*
X111212930Y-86277651D01*
X111202395Y-86284690D01*
X111196976Y-86292800D01*
X111189359Y-86304200D01*
X111157848Y-86351359D01*
X111156926Y-86350743D01*
X111123475Y-86389911D01*
X111071746Y-86404500D01*
X110105835Y-86404500D01*
X110047644Y-86385593D01*
X110035831Y-86375504D01*
X109713093Y-86052766D01*
X109707258Y-86046398D01*
X109689958Y-86025781D01*
X109682441Y-86016822D01*
X109648795Y-85997396D01*
X109641514Y-85992758D01*
X109616772Y-85975434D01*
X109616771Y-85975433D01*
X109609675Y-85970465D01*
X109601306Y-85968223D01*
X109596017Y-85965757D01*
X109590539Y-85963763D01*
X109583038Y-85959432D01*
X109574510Y-85957928D01*
X109574509Y-85957928D01*
X109544774Y-85952685D01*
X109536342Y-85950816D01*
X109507168Y-85942999D01*
X109507169Y-85942999D01*
X109498805Y-85940758D01*
X109460383Y-85944120D01*
X109460344Y-85944123D01*
X109451715Y-85944500D01*
X108786895Y-85944500D01*
X108728704Y-85925593D01*
X108692740Y-85876093D01*
X108688995Y-85860218D01*
X108685364Y-85836065D01*
X108678473Y-85821713D01*
X108629937Y-85720639D01*
X108626735Y-85713971D01*
X108617009Y-85703449D01*
X108591395Y-85647883D01*
X108603333Y-85587874D01*
X108605273Y-85584995D01*
X108605486Y-85584798D01*
X108643124Y-85520000D01*
X108669795Y-85474083D01*
X108669796Y-85474080D01*
X108673513Y-85467681D01*
X108688704Y-85402145D01*
X108720261Y-85349727D01*
X108776603Y-85325869D01*
X108785146Y-85325500D01*
X109899165Y-85325500D01*
X109957356Y-85344407D01*
X109969169Y-85354496D01*
X110291907Y-85677234D01*
X110297741Y-85683601D01*
X110322559Y-85713178D01*
X110330060Y-85717508D01*
X110330059Y-85717508D01*
X110356204Y-85732603D01*
X110363486Y-85737242D01*
X110374011Y-85744611D01*
X110395325Y-85759535D01*
X110403689Y-85761776D01*
X110408974Y-85764241D01*
X110414463Y-85766239D01*
X110421962Y-85770568D01*
X110430491Y-85772072D01*
X110460225Y-85777315D01*
X110468654Y-85779183D01*
X110506194Y-85789242D01*
X110544656Y-85785877D01*
X110553284Y-85785500D01*
X111071746Y-85785500D01*
X111129937Y-85804407D01*
X111157243Y-85839045D01*
X111157848Y-85838641D01*
X111202395Y-85905310D01*
X111210505Y-85910729D01*
X111218778Y-85916257D01*
X111269064Y-85949857D01*
X111278627Y-85951759D01*
X111278629Y-85951760D01*
X111303905Y-85956787D01*
X111347705Y-85965500D01*
X112897705Y-85965500D01*
X112941505Y-85956787D01*
X112966781Y-85951760D01*
X112966783Y-85951759D01*
X112976346Y-85949857D01*
X113026632Y-85916257D01*
X113034905Y-85910729D01*
X113043015Y-85905310D01*
X113087562Y-85838641D01*
X113088484Y-85839257D01*
X113121935Y-85800089D01*
X113173664Y-85785500D01*
X114063802Y-85785500D01*
X114121993Y-85804407D01*
X114139585Y-85820798D01*
X114148529Y-85831439D01*
X114148532Y-85831441D01*
X114153068Y-85836838D01*
X114158939Y-85840746D01*
X114158940Y-85840747D01*
X114167329Y-85846331D01*
X114272377Y-85916257D01*
X114279104Y-85918359D01*
X114279107Y-85918360D01*
X114402448Y-85956894D01*
X114402449Y-85956894D01*
X114409180Y-85958997D01*
X114480831Y-85960311D01*
X114545427Y-85961495D01*
X114545429Y-85961495D01*
X114552481Y-85961624D01*
X114559284Y-85959769D01*
X114559286Y-85959769D01*
X114606065Y-85947015D01*
X114690758Y-85923925D01*
X114812897Y-85848931D01*
X114821654Y-85839257D01*
X114828730Y-85831439D01*
X114840837Y-85818063D01*
X114893904Y-85787610D01*
X114914234Y-85785500D01*
X115601870Y-85785500D01*
X115660061Y-85804407D01*
X115671874Y-85814496D01*
X116513209Y-86655831D01*
X116540986Y-86710348D01*
X116542205Y-86725835D01*
X116542205Y-87030000D01*
X116557848Y-87108641D01*
X116602395Y-87175310D01*
X116669064Y-87219857D01*
X116678627Y-87221759D01*
X116678629Y-87221760D01*
X116703905Y-87226787D01*
X116747705Y-87235500D01*
X118297705Y-87235500D01*
X118341505Y-87226787D01*
X118366781Y-87221760D01*
X118366783Y-87221759D01*
X118376346Y-87219857D01*
X118443015Y-87175310D01*
X118487562Y-87108641D01*
X118503205Y-87030000D01*
X118503205Y-86430000D01*
X118491842Y-86372876D01*
X118489465Y-86360924D01*
X118489464Y-86360922D01*
X118487562Y-86351359D01*
X118456051Y-86304200D01*
X118448434Y-86292800D01*
X118443015Y-86284690D01*
X118432481Y-86277651D01*
X118384456Y-86245562D01*
X118376346Y-86240143D01*
X118366783Y-86238241D01*
X118366781Y-86238240D01*
X118341505Y-86233213D01*
X118297705Y-86224500D01*
X117043540Y-86224500D01*
X116985349Y-86205593D01*
X116973536Y-86195504D01*
X116912536Y-86134504D01*
X116884759Y-86079987D01*
X116894330Y-86019555D01*
X116937595Y-85976290D01*
X116982540Y-85965500D01*
X118297705Y-85965500D01*
X118341505Y-85956787D01*
X118366781Y-85951760D01*
X118366783Y-85951759D01*
X118376346Y-85949857D01*
X118426632Y-85916257D01*
X118434905Y-85910729D01*
X118443015Y-85905310D01*
X118456343Y-85885364D01*
X118480308Y-85849498D01*
X118528358Y-85811619D01*
X118562623Y-85805500D01*
X120489688Y-85805500D01*
X120547879Y-85824407D01*
X120577018Y-85865192D01*
X120579636Y-85863935D01*
X120624275Y-85956894D01*
X120638265Y-85986029D01*
X120730202Y-86085486D01*
X120773685Y-86110743D01*
X120840917Y-86149795D01*
X120840920Y-86149796D01*
X120847319Y-86153513D01*
X120882860Y-86161751D01*
X120958246Y-86179225D01*
X120958249Y-86179225D01*
X120963748Y-86180500D01*
X121648258Y-86180500D01*
X121687655Y-86174577D01*
X121741614Y-86166465D01*
X121741616Y-86166464D01*
X121748935Y-86165364D01*
X121755606Y-86162161D01*
X121755608Y-86162160D01*
X121864361Y-86109937D01*
X121871029Y-86106735D01*
X121881550Y-86097009D01*
X121937117Y-86071395D01*
X121997126Y-86083333D01*
X122000005Y-86085273D01*
X122000202Y-86085486D01*
X122021316Y-86097750D01*
X122110917Y-86149795D01*
X122110920Y-86149796D01*
X122117319Y-86153513D01*
X122152860Y-86161751D01*
X122228246Y-86179225D01*
X122228249Y-86179225D01*
X122233748Y-86180500D01*
X122918258Y-86180500D01*
X122957655Y-86174577D01*
X123011614Y-86166465D01*
X123011616Y-86166464D01*
X123018935Y-86165364D01*
X123025606Y-86162161D01*
X123025608Y-86162160D01*
X123134361Y-86109937D01*
X123141029Y-86106735D01*
X123240486Y-86014798D01*
X123289332Y-85930704D01*
X123304797Y-85904079D01*
X123304798Y-85904078D01*
X123308513Y-85897681D01*
X123313273Y-85877146D01*
X123344831Y-85824727D01*
X123401174Y-85800869D01*
X123409716Y-85800500D01*
X126889936Y-85800500D01*
X126948127Y-85819407D01*
X126981066Y-85860817D01*
X127012689Y-85935316D01*
X127015534Y-85939440D01*
X127015535Y-85939442D01*
X127119503Y-86090153D01*
X127119507Y-86090157D01*
X127122350Y-86094279D01*
X127125967Y-86097747D01*
X127125969Y-86097750D01*
X127245317Y-86212200D01*
X127261735Y-86227944D01*
X127425151Y-86330853D01*
X127605922Y-86398800D01*
X127610877Y-86399585D01*
X127610878Y-86399585D01*
X127791704Y-86428225D01*
X127791708Y-86428225D01*
X127796663Y-86429010D01*
X127870764Y-86425645D01*
X127984571Y-86420478D01*
X127984576Y-86420477D01*
X127989582Y-86420250D01*
X127994441Y-86419020D01*
X127994444Y-86419020D01*
X128171943Y-86374105D01*
X128176800Y-86372876D01*
X128186297Y-86368285D01*
X128346160Y-86291005D01*
X128346162Y-86291004D01*
X128350669Y-86288825D01*
X128486157Y-86185237D01*
X128500100Y-86174577D01*
X128500101Y-86174576D01*
X128504085Y-86171530D01*
X128630782Y-86025781D01*
X128634291Y-86019555D01*
X128681757Y-85935316D01*
X128725585Y-85857534D01*
X128784620Y-85673660D01*
X128787788Y-85644500D01*
X128796073Y-85568240D01*
X129439060Y-85568240D01*
X129454437Y-85644500D01*
X129473658Y-85739822D01*
X129477232Y-85757549D01*
X129495620Y-85800869D01*
X129542253Y-85910729D01*
X129552689Y-85935316D01*
X129555534Y-85939440D01*
X129555535Y-85939442D01*
X129659503Y-86090153D01*
X129659507Y-86090157D01*
X129662350Y-86094279D01*
X129665967Y-86097747D01*
X129665969Y-86097750D01*
X129785317Y-86212200D01*
X129801735Y-86227944D01*
X129965151Y-86330853D01*
X130145922Y-86398800D01*
X130150877Y-86399585D01*
X130150878Y-86399585D01*
X130331704Y-86428225D01*
X130331708Y-86428225D01*
X130336663Y-86429010D01*
X130410764Y-86425645D01*
X130524571Y-86420478D01*
X130524576Y-86420477D01*
X130529582Y-86420250D01*
X130534441Y-86419020D01*
X130534444Y-86419020D01*
X130711943Y-86374105D01*
X130716800Y-86372876D01*
X130726297Y-86368285D01*
X130886160Y-86291005D01*
X130886162Y-86291004D01*
X130890669Y-86288825D01*
X131026157Y-86185237D01*
X131040100Y-86174577D01*
X131040101Y-86174576D01*
X131044085Y-86171530D01*
X131170782Y-86025781D01*
X131174291Y-86019555D01*
X131221757Y-85935316D01*
X131265585Y-85857534D01*
X131280327Y-85811619D01*
X131285908Y-85794236D01*
X131321699Y-85744611D01*
X131380169Y-85725500D01*
X134820500Y-85725500D01*
X134878691Y-85744407D01*
X134914655Y-85793907D01*
X134919500Y-85824500D01*
X134919500Y-86075000D01*
X134935143Y-86153641D01*
X134979690Y-86220310D01*
X135046359Y-86264857D01*
X135055922Y-86266759D01*
X135055924Y-86266760D01*
X135081200Y-86271787D01*
X135125000Y-86280500D01*
X137025000Y-86280500D01*
X137068800Y-86271787D01*
X137094076Y-86266760D01*
X137094078Y-86266759D01*
X137103641Y-86264857D01*
X137170310Y-86220310D01*
X137214857Y-86153641D01*
X137230500Y-86075000D01*
X137230500Y-85675000D01*
X140219500Y-85675000D01*
X140219500Y-87675000D01*
X140225439Y-87704858D01*
X140233011Y-87742922D01*
X140235143Y-87753641D01*
X140279690Y-87820310D01*
X140346359Y-87864857D01*
X140355922Y-87866759D01*
X140355924Y-87866760D01*
X140381200Y-87871787D01*
X140425000Y-87880500D01*
X141925000Y-87880500D01*
X141968800Y-87871787D01*
X141994076Y-87866760D01*
X141994078Y-87866759D01*
X142003641Y-87864857D01*
X142070310Y-87820310D01*
X142114857Y-87753641D01*
X142116990Y-87742922D01*
X142124561Y-87704858D01*
X142130500Y-87675000D01*
X142130500Y-86914500D01*
X142149407Y-86856309D01*
X142198907Y-86820345D01*
X142229500Y-86815500D01*
X146284041Y-86815500D01*
X146342232Y-86834407D01*
X146369538Y-86869045D01*
X146370143Y-86868641D01*
X146414690Y-86935310D01*
X146481359Y-86979857D01*
X146490922Y-86981759D01*
X146490924Y-86981760D01*
X146516047Y-86986757D01*
X146560000Y-86995500D01*
X148110000Y-86995500D01*
X148153953Y-86986757D01*
X148179076Y-86981760D01*
X148179078Y-86981759D01*
X148188641Y-86979857D01*
X148255310Y-86935310D01*
X148299857Y-86868641D01*
X148315500Y-86790000D01*
X148315500Y-86190000D01*
X148299857Y-86111359D01*
X148255310Y-86044690D01*
X148188641Y-86000143D01*
X148179078Y-85998241D01*
X148179076Y-85998240D01*
X148151515Y-85992758D01*
X148110000Y-85984500D01*
X146560000Y-85984500D01*
X146518485Y-85992758D01*
X146490924Y-85998240D01*
X146490922Y-85998241D01*
X146481359Y-86000143D01*
X146414690Y-86044690D01*
X146370143Y-86111359D01*
X146369221Y-86110743D01*
X146335770Y-86149911D01*
X146284041Y-86164500D01*
X142229500Y-86164500D01*
X142171309Y-86145593D01*
X142135345Y-86096093D01*
X142130500Y-86065500D01*
X142130500Y-85675000D01*
X142118348Y-85613907D01*
X142116760Y-85605924D01*
X142116759Y-85605922D01*
X142114857Y-85596359D01*
X142070310Y-85529690D01*
X142048538Y-85515142D01*
X142011751Y-85490562D01*
X142003641Y-85485143D01*
X141994078Y-85483241D01*
X141994076Y-85483240D01*
X141968800Y-85478213D01*
X141925000Y-85469500D01*
X140425000Y-85469500D01*
X140381200Y-85478213D01*
X140355924Y-85483240D01*
X140355922Y-85483241D01*
X140346359Y-85485143D01*
X140338249Y-85490562D01*
X140301463Y-85515142D01*
X140279690Y-85529690D01*
X140235143Y-85596359D01*
X140233241Y-85605922D01*
X140233240Y-85605924D01*
X140231652Y-85613907D01*
X140219500Y-85675000D01*
X137230500Y-85675000D01*
X137230500Y-84920000D01*
X146354500Y-84920000D01*
X146354500Y-85520000D01*
X146363097Y-85563220D01*
X146367218Y-85583935D01*
X146370143Y-85598641D01*
X146414690Y-85665310D01*
X146422800Y-85670729D01*
X146437108Y-85680289D01*
X146481359Y-85709857D01*
X146490922Y-85711759D01*
X146490924Y-85711760D01*
X146516200Y-85716787D01*
X146560000Y-85725500D01*
X148110000Y-85725500D01*
X148153800Y-85716787D01*
X148179076Y-85711760D01*
X148179078Y-85711759D01*
X148188641Y-85709857D01*
X148232892Y-85680289D01*
X148247200Y-85670729D01*
X148255310Y-85665310D01*
X148299857Y-85598641D01*
X148300779Y-85599257D01*
X148334230Y-85560089D01*
X148385959Y-85545500D01*
X149625500Y-85545500D01*
X149683691Y-85564407D01*
X149719655Y-85613907D01*
X149724500Y-85644500D01*
X149724500Y-86125177D01*
X149705593Y-86183368D01*
X149699704Y-86190711D01*
X149632541Y-86266760D01*
X149627499Y-86272469D01*
X149566588Y-86402206D01*
X149544538Y-86543824D01*
X149545453Y-86550822D01*
X149554663Y-86621252D01*
X149563121Y-86685939D01*
X149565962Y-86692395D01*
X149565962Y-86692396D01*
X149606772Y-86785142D01*
X149620845Y-86817126D01*
X149625382Y-86822523D01*
X149625383Y-86822525D01*
X149701283Y-86912818D01*
X149724253Y-86969528D01*
X149724500Y-86976520D01*
X149724500Y-87174167D01*
X149705593Y-87232358D01*
X149695503Y-87244171D01*
X149534169Y-87405504D01*
X149479653Y-87433281D01*
X149464166Y-87434500D01*
X148385959Y-87434500D01*
X148327768Y-87415593D01*
X148300462Y-87380955D01*
X148299857Y-87381359D01*
X148294719Y-87373669D01*
X148294717Y-87373666D01*
X148255310Y-87314690D01*
X148188641Y-87270143D01*
X148179078Y-87268241D01*
X148179076Y-87268240D01*
X148153800Y-87263213D01*
X148110000Y-87254500D01*
X146560000Y-87254500D01*
X146516200Y-87263213D01*
X146490924Y-87268240D01*
X146490922Y-87268241D01*
X146481359Y-87270143D01*
X146414690Y-87314690D01*
X146370143Y-87381359D01*
X146354500Y-87460000D01*
X146354500Y-88060000D01*
X146363423Y-88104858D01*
X146365791Y-88116760D01*
X146370143Y-88138641D01*
X146414690Y-88205310D01*
X146422800Y-88210729D01*
X146430210Y-88215680D01*
X146481359Y-88249857D01*
X146490922Y-88251759D01*
X146490924Y-88251760D01*
X146516200Y-88256787D01*
X146560000Y-88265500D01*
X148110000Y-88265500D01*
X148153800Y-88256787D01*
X148179076Y-88251760D01*
X148179078Y-88251759D01*
X148188641Y-88249857D01*
X148239790Y-88215680D01*
X148247200Y-88210729D01*
X148255310Y-88205310D01*
X148299857Y-88138641D01*
X148300779Y-88139257D01*
X148334230Y-88100089D01*
X148385959Y-88085500D01*
X149621715Y-88085500D01*
X149630344Y-88085877D01*
X149668805Y-88089242D01*
X149706342Y-88079184D01*
X149714774Y-88077315D01*
X149744509Y-88072072D01*
X149744510Y-88072072D01*
X149753038Y-88070568D01*
X149760539Y-88066237D01*
X149766017Y-88064243D01*
X149771306Y-88061777D01*
X149779675Y-88059535D01*
X149786772Y-88054566D01*
X149811514Y-88037242D01*
X149818796Y-88032603D01*
X149844941Y-88017508D01*
X149844940Y-88017508D01*
X149852441Y-88013178D01*
X149877259Y-87983600D01*
X149883095Y-87977231D01*
X150267227Y-87593099D01*
X150273595Y-87587264D01*
X150288082Y-87575108D01*
X150303178Y-87562441D01*
X150322613Y-87528779D01*
X150327250Y-87521500D01*
X150344567Y-87496769D01*
X150349535Y-87489674D01*
X150351776Y-87481311D01*
X150354240Y-87476027D01*
X150356238Y-87470538D01*
X150360568Y-87463038D01*
X150361104Y-87460000D01*
X151754500Y-87460000D01*
X151754500Y-88060000D01*
X151763423Y-88104858D01*
X151765791Y-88116760D01*
X151770143Y-88138641D01*
X151814690Y-88205310D01*
X151822800Y-88210729D01*
X151830210Y-88215680D01*
X151881359Y-88249857D01*
X151890922Y-88251759D01*
X151890924Y-88251760D01*
X151916200Y-88256787D01*
X151960000Y-88265500D01*
X152739165Y-88265500D01*
X152797356Y-88284407D01*
X152809169Y-88294496D01*
X153495504Y-88980831D01*
X153523281Y-89035348D01*
X153524500Y-89050835D01*
X153524500Y-91915500D01*
X153505593Y-91973691D01*
X153456093Y-92009655D01*
X153425500Y-92014500D01*
X152790000Y-92014500D01*
X152746675Y-92023118D01*
X152720924Y-92028240D01*
X152720922Y-92028241D01*
X152711359Y-92030143D01*
X152644690Y-92074690D01*
X152600143Y-92141359D01*
X152584500Y-92220000D01*
X152584500Y-96730000D01*
X152600143Y-96808641D01*
X152644690Y-96875310D01*
X152711359Y-96919857D01*
X152720922Y-96921759D01*
X152720924Y-96921760D01*
X152746200Y-96926787D01*
X152790000Y-96935500D01*
X154910000Y-96935500D01*
X154953800Y-96926787D01*
X154979076Y-96921760D01*
X154979078Y-96921759D01*
X154988641Y-96919857D01*
X155055310Y-96875310D01*
X155099857Y-96808641D01*
X155115500Y-96730000D01*
X155115500Y-92220000D01*
X155099857Y-92141359D01*
X155055310Y-92074690D01*
X154988641Y-92030143D01*
X154979078Y-92028241D01*
X154979076Y-92028240D01*
X154953325Y-92023118D01*
X154910000Y-92014500D01*
X154274500Y-92014500D01*
X154216309Y-91995593D01*
X154180345Y-91946093D01*
X154175500Y-91915500D01*
X154175500Y-88893285D01*
X154175877Y-88884656D01*
X154178487Y-88854822D01*
X154179242Y-88846195D01*
X154169582Y-88810143D01*
X154169184Y-88808658D01*
X154167315Y-88800226D01*
X154162072Y-88770491D01*
X154162072Y-88770490D01*
X154160568Y-88761962D01*
X154156237Y-88754461D01*
X154154243Y-88748983D01*
X154151777Y-88743694D01*
X154149535Y-88735325D01*
X154133343Y-88712200D01*
X154127242Y-88703486D01*
X154122603Y-88696204D01*
X154107508Y-88670059D01*
X154103178Y-88662559D01*
X154073601Y-88637741D01*
X154067234Y-88631907D01*
X153706883Y-88271556D01*
X153679106Y-88217039D01*
X153688677Y-88156607D01*
X153694400Y-88146843D01*
X153694438Y-88146751D01*
X153699857Y-88138641D01*
X153704210Y-88116760D01*
X153706577Y-88104858D01*
X153715500Y-88060000D01*
X153715500Y-87799500D01*
X153734407Y-87741309D01*
X153783907Y-87705345D01*
X153814500Y-87700500D01*
X160175500Y-87700500D01*
X160233691Y-87719407D01*
X160269655Y-87768907D01*
X160274500Y-87799500D01*
X160274500Y-91306715D01*
X160274123Y-91315344D01*
X160270758Y-91353805D01*
X160272999Y-91362168D01*
X160280816Y-91391342D01*
X160282685Y-91399774D01*
X160289432Y-91438038D01*
X160293763Y-91445539D01*
X160295757Y-91451017D01*
X160298223Y-91456306D01*
X160300465Y-91464675D01*
X160305433Y-91471771D01*
X160305434Y-91471772D01*
X160322758Y-91496514D01*
X160327396Y-91503795D01*
X160346822Y-91537441D01*
X160365720Y-91553298D01*
X160376398Y-91562258D01*
X160382766Y-91568093D01*
X162270504Y-93455831D01*
X162298281Y-93510348D01*
X162299500Y-93525835D01*
X162299500Y-94849688D01*
X162280593Y-94907879D01*
X162239808Y-94937018D01*
X162241065Y-94939636D01*
X162223885Y-94947886D01*
X162118971Y-94998265D01*
X162019514Y-95090202D01*
X162015797Y-95096602D01*
X161955205Y-95200917D01*
X161955204Y-95200920D01*
X161951487Y-95207319D01*
X161949815Y-95214533D01*
X161938657Y-95262673D01*
X161924500Y-95323748D01*
X161924500Y-96008258D01*
X161939636Y-96108935D01*
X161942839Y-96115606D01*
X161942840Y-96115608D01*
X161958915Y-96149083D01*
X161998265Y-96231029D01*
X162003287Y-96236461D01*
X162003287Y-96236462D01*
X162007991Y-96241551D01*
X162033605Y-96297117D01*
X162021667Y-96357126D01*
X162019727Y-96360005D01*
X162019514Y-96360202D01*
X162019013Y-96361065D01*
X161955205Y-96470917D01*
X161955204Y-96470920D01*
X161951487Y-96477319D01*
X161924500Y-96593748D01*
X161924500Y-97278258D01*
X161939636Y-97378935D01*
X161942839Y-97385606D01*
X161942840Y-97385608D01*
X161958915Y-97419083D01*
X161998265Y-97501029D01*
X162090202Y-97600486D01*
X162207319Y-97668513D01*
X162220723Y-97671620D01*
X162222854Y-97672114D01*
X162275273Y-97703672D01*
X162299131Y-97760014D01*
X162299500Y-97768557D01*
X162299500Y-98531996D01*
X162280593Y-98590187D01*
X162229612Y-98626619D01*
X162223381Y-98628536D01*
X162216065Y-98629636D01*
X162093971Y-98688265D01*
X161994514Y-98780202D01*
X161980959Y-98803539D01*
X161930205Y-98890917D01*
X161930204Y-98890920D01*
X161926487Y-98897319D01*
X161924815Y-98904533D01*
X161901561Y-99004858D01*
X161899500Y-99013748D01*
X161899500Y-99698258D01*
X161904244Y-99729815D01*
X161907520Y-99751600D01*
X161914636Y-99798935D01*
X161917839Y-99805606D01*
X161917840Y-99805608D01*
X161948267Y-99868971D01*
X161973265Y-99921029D01*
X161978287Y-99926461D01*
X161978287Y-99926462D01*
X161982991Y-99931551D01*
X162008605Y-99987117D01*
X161996667Y-100047126D01*
X161994727Y-100050005D01*
X161994514Y-100050202D01*
X161994013Y-100051065D01*
X161930205Y-100160917D01*
X161930204Y-100160920D01*
X161926487Y-100167319D01*
X161899500Y-100283748D01*
X161899500Y-100968258D01*
X161903542Y-100995142D01*
X161909619Y-101035562D01*
X161914636Y-101068935D01*
X161917839Y-101075606D01*
X161917840Y-101075608D01*
X161949414Y-101141359D01*
X161973265Y-101191029D01*
X162065202Y-101290486D01*
X162120928Y-101322854D01*
X162150855Y-101340237D01*
X162182319Y-101358513D01*
X162195723Y-101361620D01*
X162197854Y-101362114D01*
X162250273Y-101393672D01*
X162274131Y-101450014D01*
X162274500Y-101458557D01*
X162274500Y-102575177D01*
X162255593Y-102633368D01*
X162249704Y-102640711D01*
X162182169Y-102717181D01*
X162177499Y-102722469D01*
X162116588Y-102852206D01*
X162094538Y-102993824D01*
X162113121Y-103135939D01*
X162115962Y-103142395D01*
X162115962Y-103142396D01*
X162117870Y-103146731D01*
X162170845Y-103267126D01*
X162263068Y-103376838D01*
X162268939Y-103380746D01*
X162268940Y-103380747D01*
X162301581Y-103402474D01*
X162382377Y-103456257D01*
X162389104Y-103458359D01*
X162389107Y-103458360D01*
X162512448Y-103496894D01*
X162512449Y-103496894D01*
X162519180Y-103498997D01*
X162590830Y-103500310D01*
X162655427Y-103501495D01*
X162655429Y-103501495D01*
X162662481Y-103501624D01*
X162669284Y-103499769D01*
X162669286Y-103499769D01*
X162717746Y-103486557D01*
X162800758Y-103463925D01*
X162922897Y-103388931D01*
X163019078Y-103282672D01*
X163081570Y-103153689D01*
X163084557Y-103135939D01*
X163104715Y-103016120D01*
X163104715Y-103016117D01*
X163105349Y-103012350D01*
X163105500Y-103000000D01*
X163085182Y-102858123D01*
X163025860Y-102727651D01*
X162949501Y-102639033D01*
X162925840Y-102582608D01*
X162925500Y-102574409D01*
X162925500Y-101460312D01*
X162944407Y-101402121D01*
X162985192Y-101372982D01*
X162983935Y-101370364D01*
X163099361Y-101314937D01*
X163106029Y-101311735D01*
X163205486Y-101219798D01*
X163245491Y-101150924D01*
X163269795Y-101109083D01*
X163269796Y-101109080D01*
X163273513Y-101102681D01*
X163288289Y-101038935D01*
X163299225Y-100991754D01*
X163299225Y-100991751D01*
X163300500Y-100986252D01*
X163300500Y-100301742D01*
X163285364Y-100201065D01*
X163272624Y-100174533D01*
X163229937Y-100085639D01*
X163226735Y-100078971D01*
X163217009Y-100068449D01*
X163191395Y-100012883D01*
X163203333Y-99952874D01*
X163205273Y-99949995D01*
X163205486Y-99949798D01*
X163252434Y-99868971D01*
X163269795Y-99839083D01*
X163269796Y-99839080D01*
X163273513Y-99832681D01*
X163287736Y-99771321D01*
X163299225Y-99721754D01*
X163299225Y-99721751D01*
X163300500Y-99716252D01*
X163300500Y-99031742D01*
X163285364Y-98931065D01*
X163280704Y-98921359D01*
X163229937Y-98815639D01*
X163226735Y-98808971D01*
X163134798Y-98709514D01*
X163017681Y-98641487D01*
X163012344Y-98640250D01*
X162965912Y-98601838D01*
X162950500Y-98548791D01*
X162950500Y-97770312D01*
X162969407Y-97712121D01*
X163010192Y-97682982D01*
X163008935Y-97680364D01*
X163124361Y-97624937D01*
X163131029Y-97621735D01*
X163230486Y-97529798D01*
X163259585Y-97479700D01*
X163294795Y-97419083D01*
X163294796Y-97419080D01*
X163298513Y-97412681D01*
X163325500Y-97296252D01*
X163325500Y-96611742D01*
X163310364Y-96511065D01*
X163297624Y-96484533D01*
X163254937Y-96395639D01*
X163251735Y-96388971D01*
X163242009Y-96378449D01*
X163216395Y-96322883D01*
X163228333Y-96262874D01*
X163230273Y-96259995D01*
X163230486Y-96259798D01*
X163251299Y-96223966D01*
X163294795Y-96149083D01*
X163294796Y-96149080D01*
X163298513Y-96142681D01*
X163325500Y-96026252D01*
X163325500Y-95341742D01*
X163320022Y-95305303D01*
X163311465Y-95248386D01*
X163311464Y-95248384D01*
X163310364Y-95241065D01*
X163297624Y-95214533D01*
X163254937Y-95125639D01*
X163251735Y-95118971D01*
X163159798Y-95019514D01*
X163042681Y-94951487D01*
X163027146Y-94947886D01*
X162974727Y-94916328D01*
X162950869Y-94859986D01*
X162950500Y-94851443D01*
X162950500Y-93368284D01*
X162950877Y-93359656D01*
X162953487Y-93329821D01*
X162954242Y-93321194D01*
X162944184Y-93283658D01*
X162942316Y-93275230D01*
X162937072Y-93245490D01*
X162937072Y-93245489D01*
X162935568Y-93236962D01*
X162931239Y-93229463D01*
X162929248Y-93223994D01*
X162926776Y-93218694D01*
X162924534Y-93210325D01*
X162902248Y-93178497D01*
X162897608Y-93171214D01*
X162882507Y-93145058D01*
X162878178Y-93137559D01*
X162848601Y-93112741D01*
X162842234Y-93106907D01*
X161726038Y-91990711D01*
X161698261Y-91936194D01*
X161707832Y-91875762D01*
X161751097Y-91832497D01*
X161815356Y-91823609D01*
X161828040Y-91826132D01*
X161850000Y-91830500D01*
X163650000Y-91830500D01*
X163693800Y-91821787D01*
X163719076Y-91816760D01*
X163719078Y-91816759D01*
X163728641Y-91814857D01*
X163795310Y-91770310D01*
X163839857Y-91703641D01*
X163855500Y-91625000D01*
X163855500Y-91499500D01*
X163874407Y-91441309D01*
X163923907Y-91405345D01*
X163954500Y-91400500D01*
X167745500Y-91400500D01*
X167803691Y-91419407D01*
X167839655Y-91468907D01*
X167844500Y-91499500D01*
X167844500Y-91625000D01*
X167860143Y-91703641D01*
X167904690Y-91770310D01*
X167971359Y-91814857D01*
X167980922Y-91816759D01*
X167980924Y-91816760D01*
X168006200Y-91821787D01*
X168050000Y-91830500D01*
X169850000Y-91830500D01*
X169893800Y-91821787D01*
X169919076Y-91816760D01*
X169919078Y-91816759D01*
X169928641Y-91814857D01*
X169995310Y-91770310D01*
X170039857Y-91703641D01*
X170055500Y-91625000D01*
X170055500Y-90525000D01*
X170046787Y-90481200D01*
X170041760Y-90455924D01*
X170041759Y-90455922D01*
X170039857Y-90446359D01*
X170011346Y-90403689D01*
X170000729Y-90387800D01*
X169995310Y-90379690D01*
X169928641Y-90335143D01*
X169919078Y-90333241D01*
X169919076Y-90333240D01*
X169893800Y-90328213D01*
X169850000Y-90319500D01*
X168050000Y-90319500D01*
X168006200Y-90328213D01*
X167980924Y-90333240D01*
X167980922Y-90333241D01*
X167971359Y-90335143D01*
X167904690Y-90379690D01*
X167899271Y-90387800D01*
X167888654Y-90403689D01*
X167860143Y-90446359D01*
X167858241Y-90455922D01*
X167858240Y-90455924D01*
X167853213Y-90481200D01*
X167844500Y-90525000D01*
X167844500Y-90650500D01*
X167825593Y-90708691D01*
X167776093Y-90744655D01*
X167745500Y-90749500D01*
X166224500Y-90749500D01*
X166166309Y-90730593D01*
X166130345Y-90681093D01*
X166125500Y-90650500D01*
X166125500Y-90542137D01*
X166135406Y-90498971D01*
X166178494Y-90410038D01*
X166181570Y-90403689D01*
X166182957Y-90395448D01*
X166204715Y-90266120D01*
X166204715Y-90266117D01*
X166205349Y-90262350D01*
X166205500Y-90250000D01*
X166185182Y-90108123D01*
X166125860Y-89977651D01*
X166032303Y-89869074D01*
X165912033Y-89791118D01*
X165905275Y-89789097D01*
X165905273Y-89789096D01*
X165781479Y-89752074D01*
X165774718Y-89750052D01*
X165688694Y-89749527D01*
X165638448Y-89749220D01*
X165631396Y-89749177D01*
X165624620Y-89751114D01*
X165624617Y-89751114D01*
X165500369Y-89786624D01*
X165500367Y-89786625D01*
X165493589Y-89788562D01*
X165372375Y-89865042D01*
X165277499Y-89972469D01*
X165216588Y-90102206D01*
X165194538Y-90243824D01*
X165213121Y-90385939D01*
X165215962Y-90392395D01*
X165215962Y-90392396D01*
X165262857Y-90498971D01*
X165270845Y-90517126D01*
X165275382Y-90522523D01*
X165275383Y-90522525D01*
X165329411Y-90586798D01*
X165352381Y-90643507D01*
X165337631Y-90702888D01*
X165290795Y-90742259D01*
X165253628Y-90749500D01*
X163954500Y-90749500D01*
X163896309Y-90730593D01*
X163860345Y-90681093D01*
X163855500Y-90650500D01*
X163855500Y-90525000D01*
X163846787Y-90481200D01*
X163841760Y-90455924D01*
X163841759Y-90455922D01*
X163839857Y-90446359D01*
X163811346Y-90403689D01*
X163800729Y-90387800D01*
X163795310Y-90379690D01*
X163728641Y-90335143D01*
X163719078Y-90333241D01*
X163719076Y-90333240D01*
X163693800Y-90328213D01*
X163650000Y-90319500D01*
X161850000Y-90319500D01*
X161806200Y-90328213D01*
X161780924Y-90333240D01*
X161780922Y-90333241D01*
X161771359Y-90335143D01*
X161704690Y-90379690D01*
X161699271Y-90387800D01*
X161688654Y-90403689D01*
X161660143Y-90446359D01*
X161658241Y-90455922D01*
X161658240Y-90455924D01*
X161653213Y-90481200D01*
X161644500Y-90525000D01*
X161644500Y-91625000D01*
X161645448Y-91629764D01*
X161651391Y-91659644D01*
X161644199Y-91720406D01*
X161602666Y-91765335D01*
X161542656Y-91777272D01*
X161484289Y-91748962D01*
X160954496Y-91219169D01*
X160926719Y-91164652D01*
X160925500Y-91149165D01*
X160925500Y-87799500D01*
X160944407Y-87741309D01*
X160993907Y-87705345D01*
X161024500Y-87700500D01*
X161545500Y-87700500D01*
X161603691Y-87719407D01*
X161639655Y-87768907D01*
X161644500Y-87799500D01*
X161644500Y-87925000D01*
X161649328Y-87949271D01*
X161656157Y-87983600D01*
X161660143Y-88003641D01*
X161704690Y-88070310D01*
X161771359Y-88114857D01*
X161780922Y-88116759D01*
X161780924Y-88116760D01*
X161806200Y-88121787D01*
X161850000Y-88130500D01*
X163650000Y-88130500D01*
X163693800Y-88121787D01*
X163719076Y-88116760D01*
X163719078Y-88116759D01*
X163728641Y-88114857D01*
X163795310Y-88070310D01*
X163839857Y-88003641D01*
X163843844Y-87983600D01*
X163850672Y-87949271D01*
X163855500Y-87925000D01*
X163855500Y-87799500D01*
X163874407Y-87741309D01*
X163923907Y-87705345D01*
X163954500Y-87700500D01*
X167745500Y-87700500D01*
X167803691Y-87719407D01*
X167839655Y-87768907D01*
X167844500Y-87799500D01*
X167844500Y-87925000D01*
X167849328Y-87949271D01*
X167856157Y-87983600D01*
X167860143Y-88003641D01*
X167904690Y-88070310D01*
X167971359Y-88114857D01*
X167980922Y-88116759D01*
X167980924Y-88116760D01*
X168006200Y-88121787D01*
X168050000Y-88130500D01*
X169850000Y-88130500D01*
X169893800Y-88121787D01*
X169919076Y-88116760D01*
X169919078Y-88116759D01*
X169928641Y-88114857D01*
X169995310Y-88070310D01*
X170039857Y-88003641D01*
X170043844Y-87983600D01*
X170050672Y-87949271D01*
X170055500Y-87925000D01*
X170055500Y-86825000D01*
X170039857Y-86746359D01*
X170007707Y-86698243D01*
X170000729Y-86687800D01*
X169995310Y-86679690D01*
X169928641Y-86635143D01*
X169919078Y-86633241D01*
X169919076Y-86633240D01*
X169893800Y-86628213D01*
X169850000Y-86619500D01*
X168050000Y-86619500D01*
X168006200Y-86628213D01*
X167980924Y-86633240D01*
X167980922Y-86633241D01*
X167971359Y-86635143D01*
X167904690Y-86679690D01*
X167899271Y-86687800D01*
X167892293Y-86698243D01*
X167860143Y-86746359D01*
X167844500Y-86825000D01*
X167844500Y-86950500D01*
X167825593Y-87008691D01*
X167776093Y-87044655D01*
X167745500Y-87049500D01*
X163954500Y-87049500D01*
X163896309Y-87030593D01*
X163860345Y-86981093D01*
X163855500Y-86950500D01*
X163855500Y-86825000D01*
X163839857Y-86746359D01*
X163807707Y-86698243D01*
X163800729Y-86687800D01*
X163795310Y-86679690D01*
X163728641Y-86635143D01*
X163719078Y-86633241D01*
X163719076Y-86633240D01*
X163693800Y-86628213D01*
X163650000Y-86619500D01*
X161850000Y-86619500D01*
X161806200Y-86628213D01*
X161780924Y-86633240D01*
X161780922Y-86633241D01*
X161771359Y-86635143D01*
X161704690Y-86679690D01*
X161699271Y-86687800D01*
X161692293Y-86698243D01*
X161660143Y-86746359D01*
X161644500Y-86825000D01*
X161644500Y-86950500D01*
X161625593Y-87008691D01*
X161576093Y-87044655D01*
X161545500Y-87049500D01*
X153763638Y-87049500D01*
X153705447Y-87030593D01*
X153669483Y-86981093D01*
X153669483Y-86919907D01*
X153681322Y-86895500D01*
X153693977Y-86876560D01*
X153701297Y-86858888D01*
X153714052Y-86794763D01*
X153715000Y-86785142D01*
X153715000Y-86705680D01*
X153710878Y-86692995D01*
X153706757Y-86690000D01*
X152950680Y-86690000D01*
X152937995Y-86694122D01*
X152935000Y-86698243D01*
X152935000Y-86979320D01*
X152945370Y-87011236D01*
X152945369Y-87072421D01*
X152914910Y-87117578D01*
X152907559Y-87121822D01*
X152894152Y-87137800D01*
X152882742Y-87151398D01*
X152876907Y-87157766D01*
X152809169Y-87225504D01*
X152754652Y-87253281D01*
X152739165Y-87254500D01*
X151960000Y-87254500D01*
X151916200Y-87263213D01*
X151890924Y-87268240D01*
X151890922Y-87268241D01*
X151881359Y-87270143D01*
X151814690Y-87314690D01*
X151770143Y-87381359D01*
X151754500Y-87460000D01*
X150361104Y-87460000D01*
X150367315Y-87424771D01*
X150369185Y-87416340D01*
X150377001Y-87387172D01*
X150379243Y-87378805D01*
X150375877Y-87340332D01*
X150375500Y-87331703D01*
X150375500Y-86974206D01*
X150394407Y-86916015D01*
X150401103Y-86907769D01*
X150412209Y-86895500D01*
X150447683Y-86856309D01*
X150464346Y-86837900D01*
X150464346Y-86837899D01*
X150469078Y-86832672D01*
X150531570Y-86703689D01*
X150532487Y-86698243D01*
X151755000Y-86698243D01*
X151755000Y-86785142D01*
X151755948Y-86794763D01*
X151768703Y-86858888D01*
X151776022Y-86876557D01*
X151809624Y-86926847D01*
X151823153Y-86940376D01*
X151873443Y-86973978D01*
X151891112Y-86981297D01*
X151955237Y-86994052D01*
X151964858Y-86995000D01*
X152519320Y-86995000D01*
X152532005Y-86990878D01*
X152535000Y-86986757D01*
X152535000Y-86705680D01*
X152530878Y-86692995D01*
X152526757Y-86690000D01*
X151770680Y-86690000D01*
X151757995Y-86694122D01*
X151755000Y-86698243D01*
X150532487Y-86698243D01*
X150532761Y-86696615D01*
X150554715Y-86566120D01*
X150554715Y-86566117D01*
X150555349Y-86562350D01*
X150555500Y-86550000D01*
X150535182Y-86408123D01*
X150530944Y-86398800D01*
X150478780Y-86284073D01*
X150478780Y-86284072D01*
X150475860Y-86277651D01*
X150404520Y-86194858D01*
X151755000Y-86194858D01*
X151755000Y-86274320D01*
X151759122Y-86287005D01*
X151763243Y-86290000D01*
X152519320Y-86290000D01*
X152532005Y-86285878D01*
X152535000Y-86281757D01*
X152535000Y-86000680D01*
X152532583Y-85993243D01*
X152935000Y-85993243D01*
X152935000Y-86274320D01*
X152939122Y-86287005D01*
X152943243Y-86290000D01*
X153699320Y-86290000D01*
X153712005Y-86285878D01*
X153715000Y-86281757D01*
X153715000Y-86194858D01*
X153714052Y-86185237D01*
X153701297Y-86121112D01*
X153693978Y-86103443D01*
X153660376Y-86053153D01*
X153646847Y-86039624D01*
X153596557Y-86006022D01*
X153578888Y-85998703D01*
X153514763Y-85985948D01*
X153505142Y-85985000D01*
X152950680Y-85985000D01*
X152937995Y-85989122D01*
X152935000Y-85993243D01*
X152532583Y-85993243D01*
X152530878Y-85987995D01*
X152526757Y-85985000D01*
X151964858Y-85985000D01*
X151955237Y-85985948D01*
X151891112Y-85998703D01*
X151873443Y-86006022D01*
X151823153Y-86039624D01*
X151809624Y-86053153D01*
X151776022Y-86103443D01*
X151768703Y-86121112D01*
X151755948Y-86185237D01*
X151755000Y-86194858D01*
X150404520Y-86194858D01*
X150399501Y-86189033D01*
X150375840Y-86132608D01*
X150375500Y-86124409D01*
X150375500Y-85393285D01*
X150375877Y-85384656D01*
X150378487Y-85354822D01*
X150379242Y-85346195D01*
X150369184Y-85308658D01*
X150367315Y-85300226D01*
X150362072Y-85270491D01*
X150362072Y-85270490D01*
X150360568Y-85261962D01*
X150356237Y-85254461D01*
X150354243Y-85248983D01*
X150351777Y-85243694D01*
X150349535Y-85235325D01*
X150344566Y-85228228D01*
X150327242Y-85203486D01*
X150322603Y-85196204D01*
X150307508Y-85170059D01*
X150303178Y-85162559D01*
X150273601Y-85137741D01*
X150267234Y-85131907D01*
X150138093Y-85002766D01*
X150132258Y-84996398D01*
X150107441Y-84966822D01*
X150073795Y-84947396D01*
X150066514Y-84942758D01*
X150041772Y-84925434D01*
X150041771Y-84925433D01*
X150034675Y-84920465D01*
X150032939Y-84920000D01*
X151754500Y-84920000D01*
X151754500Y-85520000D01*
X151763097Y-85563220D01*
X151767218Y-85583935D01*
X151770143Y-85598641D01*
X151814690Y-85665310D01*
X151822800Y-85670729D01*
X151837108Y-85680289D01*
X151881359Y-85709857D01*
X151890922Y-85711759D01*
X151890924Y-85711760D01*
X151916200Y-85716787D01*
X151960000Y-85725500D01*
X153510000Y-85725500D01*
X153553800Y-85716787D01*
X153579076Y-85711760D01*
X153579078Y-85711759D01*
X153588641Y-85709857D01*
X153632892Y-85680289D01*
X153647200Y-85670729D01*
X153655310Y-85665310D01*
X153699857Y-85598641D01*
X153700779Y-85599257D01*
X153734230Y-85560089D01*
X153785959Y-85545500D01*
X156433896Y-85545500D01*
X156492087Y-85564407D01*
X156523140Y-85601645D01*
X156558365Y-85675000D01*
X156573265Y-85706029D01*
X156665202Y-85805486D01*
X156709883Y-85831439D01*
X156775917Y-85869795D01*
X156775920Y-85869796D01*
X156782319Y-85873513D01*
X156793450Y-85876093D01*
X156893246Y-85899225D01*
X156893249Y-85899225D01*
X156898748Y-85900500D01*
X157583258Y-85900500D01*
X157619697Y-85895022D01*
X157676614Y-85886465D01*
X157676616Y-85886464D01*
X157683935Y-85885364D01*
X157690606Y-85882161D01*
X157690608Y-85882160D01*
X157799361Y-85829937D01*
X157806029Y-85826735D01*
X157812452Y-85820798D01*
X157816551Y-85817009D01*
X157872117Y-85791395D01*
X157932126Y-85803333D01*
X157935005Y-85805273D01*
X157935202Y-85805486D01*
X157956857Y-85818064D01*
X158045917Y-85869795D01*
X158045920Y-85869796D01*
X158052319Y-85873513D01*
X158063450Y-85876093D01*
X158163246Y-85899225D01*
X158163249Y-85899225D01*
X158168748Y-85900500D01*
X158853258Y-85900500D01*
X158889697Y-85895022D01*
X158946614Y-85886465D01*
X158946616Y-85886464D01*
X158953935Y-85885364D01*
X158960606Y-85882161D01*
X158960608Y-85882160D01*
X159069361Y-85829937D01*
X159076029Y-85826735D01*
X159175486Y-85734798D01*
X159208922Y-85677234D01*
X159239795Y-85624083D01*
X159239796Y-85624080D01*
X159243513Y-85617681D01*
X159255861Y-85564407D01*
X159269225Y-85506754D01*
X159269225Y-85506751D01*
X159270500Y-85501252D01*
X159270500Y-84916742D01*
X159260565Y-84850657D01*
X159256465Y-84823386D01*
X159256464Y-84823384D01*
X159255364Y-84816065D01*
X159246613Y-84797840D01*
X159199937Y-84700639D01*
X159196735Y-84693971D01*
X159104798Y-84594514D01*
X159043787Y-84559076D01*
X158994083Y-84530205D01*
X158994080Y-84530204D01*
X158987681Y-84526487D01*
X158922145Y-84511296D01*
X158869727Y-84479739D01*
X158845869Y-84423397D01*
X158845500Y-84414854D01*
X158845500Y-82352111D01*
X158864407Y-82293920D01*
X158871102Y-82285675D01*
X158914346Y-82237900D01*
X158914346Y-82237899D01*
X158919078Y-82232672D01*
X158981570Y-82103689D01*
X158984557Y-82085939D01*
X159004715Y-81966120D01*
X159004715Y-81966117D01*
X159005349Y-81962350D01*
X159005500Y-81950000D01*
X158985182Y-81808123D01*
X158970920Y-81776754D01*
X158928780Y-81684073D01*
X158928780Y-81684072D01*
X158925860Y-81677651D01*
X158832303Y-81569074D01*
X158712033Y-81491118D01*
X158705275Y-81489097D01*
X158705273Y-81489096D01*
X158581479Y-81452074D01*
X158574718Y-81450052D01*
X158488694Y-81449527D01*
X158438448Y-81449220D01*
X158431396Y-81449177D01*
X158424620Y-81451114D01*
X158424617Y-81451114D01*
X158300369Y-81486624D01*
X158300367Y-81486625D01*
X158293589Y-81488562D01*
X158172375Y-81565042D01*
X158077499Y-81672469D01*
X158016588Y-81802206D01*
X157994538Y-81943824D01*
X158013121Y-82085939D01*
X158015962Y-82092395D01*
X158015962Y-82092396D01*
X158053925Y-82178672D01*
X158070845Y-82217126D01*
X158075382Y-82222523D01*
X158075383Y-82222525D01*
X158135397Y-82293920D01*
X158163068Y-82326838D01*
X158163103Y-82326861D01*
X158192264Y-82376963D01*
X158194500Y-82397885D01*
X158194500Y-84413105D01*
X158175593Y-84471296D01*
X158126093Y-84507260D01*
X158110221Y-84511004D01*
X158086065Y-84514636D01*
X158079394Y-84517839D01*
X158079392Y-84517840D01*
X157970639Y-84570063D01*
X157963971Y-84573265D01*
X157958539Y-84578287D01*
X157958538Y-84578287D01*
X157953449Y-84582991D01*
X157897883Y-84608605D01*
X157837874Y-84596667D01*
X157834995Y-84594727D01*
X157834798Y-84594514D01*
X157791733Y-84569500D01*
X157724083Y-84530205D01*
X157724080Y-84530204D01*
X157717681Y-84526487D01*
X157661803Y-84513535D01*
X157606754Y-84500775D01*
X157606751Y-84500775D01*
X157601252Y-84499500D01*
X156916742Y-84499500D01*
X156880303Y-84504978D01*
X156823386Y-84513535D01*
X156823384Y-84513536D01*
X156816065Y-84514636D01*
X156809394Y-84517839D01*
X156809392Y-84517840D01*
X156700639Y-84570063D01*
X156693971Y-84573265D01*
X156594514Y-84665202D01*
X156574032Y-84700465D01*
X156530205Y-84775917D01*
X156530204Y-84775920D01*
X156526487Y-84782319D01*
X156524815Y-84789531D01*
X156524815Y-84789532D01*
X156518250Y-84817855D01*
X156486691Y-84870274D01*
X156430348Y-84894131D01*
X156421807Y-84894500D01*
X153785959Y-84894500D01*
X153727768Y-84875593D01*
X153700462Y-84840955D01*
X153699857Y-84841359D01*
X153694719Y-84833669D01*
X153694717Y-84833666D01*
X153655310Y-84774690D01*
X153588641Y-84730143D01*
X153579078Y-84728241D01*
X153579076Y-84728240D01*
X153544753Y-84721413D01*
X153510000Y-84714500D01*
X151960000Y-84714500D01*
X151925247Y-84721413D01*
X151890924Y-84728240D01*
X151890922Y-84728241D01*
X151881359Y-84730143D01*
X151814690Y-84774690D01*
X151770143Y-84841359D01*
X151768241Y-84850922D01*
X151768240Y-84850924D01*
X151765840Y-84862991D01*
X151754500Y-84920000D01*
X150032939Y-84920000D01*
X150026306Y-84918223D01*
X150021017Y-84915757D01*
X150015539Y-84913763D01*
X150008038Y-84909432D01*
X149999510Y-84907928D01*
X149999509Y-84907928D01*
X149969774Y-84902685D01*
X149961342Y-84900816D01*
X149932168Y-84892999D01*
X149932169Y-84892999D01*
X149923805Y-84890758D01*
X149885383Y-84894120D01*
X149885344Y-84894123D01*
X149876715Y-84894500D01*
X148385959Y-84894500D01*
X148327768Y-84875593D01*
X148300462Y-84840955D01*
X148299857Y-84841359D01*
X148294719Y-84833669D01*
X148294717Y-84833666D01*
X148255310Y-84774690D01*
X148188641Y-84730143D01*
X148179078Y-84728241D01*
X148179076Y-84728240D01*
X148144753Y-84721413D01*
X148110000Y-84714500D01*
X146560000Y-84714500D01*
X146525247Y-84721413D01*
X146490924Y-84728240D01*
X146490922Y-84728241D01*
X146481359Y-84730143D01*
X146414690Y-84774690D01*
X146370143Y-84841359D01*
X146368241Y-84850922D01*
X146368240Y-84850924D01*
X146365840Y-84862991D01*
X146354500Y-84920000D01*
X137230500Y-84920000D01*
X137230500Y-84775000D01*
X137214857Y-84696359D01*
X137170310Y-84629690D01*
X137103641Y-84585143D01*
X137094078Y-84583241D01*
X137094076Y-84583240D01*
X137060477Y-84576557D01*
X137025000Y-84569500D01*
X135125000Y-84569500D01*
X135089523Y-84576557D01*
X135055924Y-84583240D01*
X135055922Y-84583241D01*
X135046359Y-84585143D01*
X134979690Y-84629690D01*
X134935143Y-84696359D01*
X134919500Y-84775000D01*
X134919500Y-85025500D01*
X134900593Y-85083691D01*
X134851093Y-85119655D01*
X134820500Y-85124500D01*
X131340912Y-85124500D01*
X131282721Y-85105593D01*
X131254325Y-85073496D01*
X131177042Y-84934074D01*
X131174608Y-84929683D01*
X131110395Y-84854765D01*
X131052197Y-84786864D01*
X131052195Y-84786862D01*
X131048931Y-84783054D01*
X130974389Y-84725233D01*
X130900298Y-84667761D01*
X130900293Y-84667758D01*
X130896338Y-84664690D01*
X130723061Y-84579427D01*
X130608242Y-84549519D01*
X130541036Y-84532013D01*
X130541032Y-84532012D01*
X130536178Y-84530748D01*
X130531166Y-84530485D01*
X130531164Y-84530485D01*
X130463134Y-84526920D01*
X130343324Y-84520641D01*
X130152377Y-84549519D01*
X129971136Y-84616202D01*
X129966878Y-84618842D01*
X129966876Y-84618843D01*
X129811270Y-84715323D01*
X129807006Y-84717967D01*
X129666691Y-84850657D01*
X129663817Y-84854762D01*
X129663814Y-84854765D01*
X129564642Y-84996398D01*
X129555923Y-85008850D01*
X129553934Y-85013446D01*
X129553933Y-85013448D01*
X129518988Y-85094202D01*
X129479226Y-85186086D01*
X129439734Y-85375123D01*
X129439717Y-85380136D01*
X129439716Y-85380141D01*
X129439554Y-85426614D01*
X129439060Y-85568240D01*
X128796073Y-85568240D01*
X128805197Y-85484251D01*
X128805197Y-85484246D01*
X128805477Y-85481671D01*
X128805500Y-85475000D01*
X128792775Y-85349727D01*
X128786491Y-85287857D01*
X128786490Y-85287853D01*
X128785984Y-85282870D01*
X128728234Y-85098589D01*
X128644427Y-84947397D01*
X128637042Y-84934074D01*
X128634608Y-84929683D01*
X128570395Y-84854765D01*
X128512197Y-84786864D01*
X128512195Y-84786862D01*
X128508931Y-84783054D01*
X128434389Y-84725233D01*
X128360298Y-84667761D01*
X128360293Y-84667758D01*
X128356338Y-84664690D01*
X128183061Y-84579427D01*
X128068242Y-84549519D01*
X128001036Y-84532013D01*
X128001032Y-84532012D01*
X127996178Y-84530748D01*
X127991166Y-84530485D01*
X127991164Y-84530485D01*
X127923134Y-84526920D01*
X127803324Y-84520641D01*
X127612377Y-84549519D01*
X127431136Y-84616202D01*
X127426878Y-84618842D01*
X127426876Y-84618843D01*
X127271270Y-84715323D01*
X127267006Y-84717967D01*
X127126691Y-84850657D01*
X127123817Y-84854762D01*
X127123814Y-84854765D01*
X127024642Y-84996398D01*
X127015923Y-85008850D01*
X126983224Y-85084414D01*
X126980885Y-85089818D01*
X126940422Y-85135713D01*
X126890027Y-85149500D01*
X123408307Y-85149500D01*
X123350116Y-85130593D01*
X123319063Y-85093355D01*
X123264937Y-84980639D01*
X123261735Y-84973971D01*
X123169798Y-84874514D01*
X123112022Y-84840955D01*
X123059083Y-84810205D01*
X123059080Y-84810204D01*
X123052681Y-84806487D01*
X122979533Y-84789532D01*
X122941754Y-84780775D01*
X122941751Y-84780775D01*
X122936252Y-84779500D01*
X122251742Y-84779500D01*
X122228103Y-84783054D01*
X122158386Y-84793535D01*
X122158384Y-84793536D01*
X122151065Y-84794636D01*
X122144394Y-84797839D01*
X122144392Y-84797840D01*
X122070654Y-84833249D01*
X122028971Y-84853265D01*
X122023539Y-84858287D01*
X122023538Y-84858287D01*
X122018449Y-84862991D01*
X121962883Y-84888605D01*
X121902874Y-84876667D01*
X121899995Y-84874727D01*
X121899798Y-84874514D01*
X121842022Y-84840955D01*
X121789083Y-84810205D01*
X121789080Y-84810204D01*
X121782681Y-84806487D01*
X121709533Y-84789532D01*
X121671754Y-84780775D01*
X121671751Y-84780775D01*
X121666252Y-84779500D01*
X120981742Y-84779500D01*
X120958103Y-84783054D01*
X120888386Y-84793535D01*
X120888384Y-84793536D01*
X120881065Y-84794636D01*
X120874394Y-84797839D01*
X120874392Y-84797840D01*
X120800654Y-84833249D01*
X120758971Y-84853265D01*
X120659514Y-84945202D01*
X120591487Y-85062319D01*
X120588953Y-85073253D01*
X120587886Y-85077854D01*
X120556328Y-85130273D01*
X120499986Y-85154131D01*
X120491443Y-85154500D01*
X118581949Y-85154500D01*
X118523758Y-85135593D01*
X118490486Y-85093387D01*
X118489464Y-85090919D01*
X118487562Y-85081359D01*
X118479658Y-85069529D01*
X118448434Y-85022800D01*
X118443015Y-85014690D01*
X118376346Y-84970143D01*
X118366783Y-84968241D01*
X118366781Y-84968240D01*
X118341505Y-84963213D01*
X118297705Y-84954500D01*
X116747705Y-84954500D01*
X116703905Y-84963213D01*
X116678629Y-84968240D01*
X116678627Y-84968241D01*
X116669064Y-84970143D01*
X116602395Y-85014690D01*
X116557848Y-85081359D01*
X116555946Y-85090922D01*
X116555945Y-85090924D01*
X116554115Y-85100124D01*
X116542205Y-85160000D01*
X116542205Y-85525165D01*
X116523298Y-85583356D01*
X116473798Y-85619320D01*
X116412612Y-85619320D01*
X116373201Y-85595169D01*
X116020798Y-85242766D01*
X116014963Y-85236398D01*
X116014063Y-85235325D01*
X115990146Y-85206822D01*
X115956500Y-85187396D01*
X115949219Y-85182758D01*
X115924477Y-85165434D01*
X115924476Y-85165433D01*
X115917380Y-85160465D01*
X115909011Y-85158223D01*
X115903722Y-85155757D01*
X115898244Y-85153763D01*
X115890743Y-85149432D01*
X115882215Y-85147928D01*
X115882214Y-85147928D01*
X115852479Y-85142685D01*
X115844047Y-85140816D01*
X115814873Y-85132999D01*
X115814874Y-85132999D01*
X115806510Y-85130758D01*
X115768088Y-85134120D01*
X115768049Y-85134123D01*
X115759420Y-85134500D01*
X114915439Y-85134500D01*
X114857248Y-85115593D01*
X114840446Y-85100129D01*
X114822303Y-85079074D01*
X114702033Y-85001118D01*
X114695275Y-84999097D01*
X114695273Y-84999096D01*
X114571479Y-84962074D01*
X114564718Y-84960052D01*
X114478694Y-84959527D01*
X114428448Y-84959220D01*
X114421396Y-84959177D01*
X114414620Y-84961114D01*
X114414617Y-84961114D01*
X114290369Y-84996624D01*
X114290367Y-84996625D01*
X114283589Y-84998562D01*
X114162375Y-85075042D01*
X114157708Y-85080326D01*
X114157706Y-85080328D01*
X114139420Y-85101034D01*
X114086729Y-85132134D01*
X114065216Y-85134500D01*
X113173664Y-85134500D01*
X113115473Y-85115593D01*
X113088167Y-85080955D01*
X113087562Y-85081359D01*
X113082424Y-85073669D01*
X113082422Y-85073666D01*
X113043015Y-85014690D01*
X112976346Y-84970143D01*
X112966783Y-84968241D01*
X112966781Y-84968240D01*
X112941505Y-84963213D01*
X112897705Y-84954500D01*
X111347705Y-84954500D01*
X111303905Y-84963213D01*
X111278629Y-84968240D01*
X111278627Y-84968241D01*
X111269064Y-84970143D01*
X111202395Y-85014690D01*
X111157848Y-85081359D01*
X111156926Y-85080743D01*
X111123475Y-85119911D01*
X111071746Y-85134500D01*
X110710835Y-85134500D01*
X110652644Y-85115593D01*
X110640831Y-85105504D01*
X110318093Y-84782766D01*
X110312258Y-84776398D01*
X110306278Y-84769271D01*
X110287441Y-84746822D01*
X110253795Y-84727396D01*
X110246514Y-84722758D01*
X110221772Y-84705434D01*
X110221771Y-84705433D01*
X110214675Y-84700465D01*
X110206306Y-84698223D01*
X110201017Y-84695757D01*
X110195539Y-84693763D01*
X110188038Y-84689432D01*
X110179510Y-84687928D01*
X110179509Y-84687928D01*
X110149774Y-84682685D01*
X110141342Y-84680816D01*
X110112168Y-84672999D01*
X110112169Y-84672999D01*
X110103805Y-84670758D01*
X110067001Y-84673978D01*
X110065344Y-84674123D01*
X110056715Y-84674500D01*
X108786895Y-84674500D01*
X108728704Y-84655593D01*
X108692740Y-84606093D01*
X108688995Y-84590218D01*
X108687946Y-84583240D01*
X108685364Y-84566065D01*
X108672624Y-84539533D01*
X108629937Y-84450639D01*
X108626735Y-84443971D01*
X108534798Y-84344514D01*
X108449860Y-84295178D01*
X108424083Y-84280205D01*
X108424080Y-84280204D01*
X108417681Y-84276487D01*
X108361803Y-84263535D01*
X108306754Y-84250775D01*
X108306751Y-84250775D01*
X108301252Y-84249500D01*
X107716742Y-84249500D01*
X107681735Y-84254763D01*
X107623386Y-84263535D01*
X107623384Y-84263536D01*
X107616065Y-84264636D01*
X107609394Y-84267839D01*
X107609392Y-84267840D01*
X107500639Y-84320063D01*
X107493971Y-84323265D01*
X107394514Y-84415202D01*
X107380959Y-84438539D01*
X107330205Y-84525917D01*
X107330204Y-84525920D01*
X107326487Y-84532319D01*
X107324815Y-84539533D01*
X107301359Y-84640729D01*
X107299500Y-84648748D01*
X107299500Y-85333258D01*
X107300050Y-85336915D01*
X107308525Y-85393285D01*
X107314636Y-85433935D01*
X107317839Y-85440606D01*
X107317840Y-85440608D01*
X107368209Y-85545500D01*
X107373265Y-85556029D01*
X107378287Y-85561461D01*
X107378287Y-85561462D01*
X107382991Y-85566551D01*
X107408605Y-85622117D01*
X107396667Y-85682126D01*
X107394727Y-85685005D01*
X107394514Y-85685202D01*
X107394013Y-85686065D01*
X107330205Y-85795917D01*
X107330204Y-85795920D01*
X107326487Y-85802319D01*
X107315552Y-85849498D01*
X107311297Y-85867854D01*
X107279739Y-85920273D01*
X107223397Y-85944131D01*
X107214854Y-85944500D01*
X94974500Y-85944500D01*
X94916309Y-85925593D01*
X94880345Y-85876093D01*
X94875500Y-85845500D01*
X94875500Y-83890000D01*
X111142205Y-83890000D01*
X111142205Y-84490000D01*
X111157848Y-84568641D01*
X111202395Y-84635310D01*
X111269064Y-84679857D01*
X111278627Y-84681759D01*
X111278629Y-84681760D01*
X111303752Y-84686757D01*
X111347705Y-84695500D01*
X112897705Y-84695500D01*
X112941658Y-84686757D01*
X112966781Y-84681760D01*
X112966783Y-84681759D01*
X112976346Y-84679857D01*
X113043015Y-84635310D01*
X113087562Y-84568641D01*
X113103205Y-84490000D01*
X113103205Y-84398243D01*
X116542705Y-84398243D01*
X116542705Y-84485142D01*
X116543653Y-84494763D01*
X116556408Y-84558888D01*
X116563727Y-84576557D01*
X116597329Y-84626847D01*
X116610858Y-84640376D01*
X116661148Y-84673978D01*
X116678817Y-84681297D01*
X116742942Y-84694052D01*
X116752563Y-84695000D01*
X117307025Y-84695000D01*
X117319710Y-84690878D01*
X117322705Y-84686757D01*
X117322705Y-84405680D01*
X117320288Y-84398243D01*
X117722705Y-84398243D01*
X117722705Y-84679320D01*
X117726827Y-84692005D01*
X117730948Y-84695000D01*
X118292847Y-84695000D01*
X118302468Y-84694052D01*
X118366593Y-84681297D01*
X118384262Y-84673978D01*
X118434552Y-84640376D01*
X118448081Y-84626847D01*
X118481683Y-84576557D01*
X118489002Y-84558888D01*
X118501757Y-84494763D01*
X118502705Y-84485142D01*
X118502705Y-84405680D01*
X118498583Y-84392995D01*
X118494462Y-84390000D01*
X117738385Y-84390000D01*
X117725700Y-84394122D01*
X117722705Y-84398243D01*
X117320288Y-84398243D01*
X117318583Y-84392995D01*
X117314462Y-84390000D01*
X116558385Y-84390000D01*
X116545700Y-84394122D01*
X116542705Y-84398243D01*
X113103205Y-84398243D01*
X113103205Y-83894858D01*
X116542705Y-83894858D01*
X116542705Y-83974320D01*
X116546827Y-83987005D01*
X116550948Y-83990000D01*
X117307025Y-83990000D01*
X117319710Y-83985878D01*
X117322705Y-83981757D01*
X117322705Y-83700680D01*
X117320288Y-83693243D01*
X117722705Y-83693243D01*
X117722705Y-83974320D01*
X117726827Y-83987005D01*
X117730948Y-83990000D01*
X118487025Y-83990000D01*
X118499710Y-83985878D01*
X118502705Y-83981757D01*
X118502705Y-83894858D01*
X118501757Y-83885237D01*
X118489002Y-83821112D01*
X118481683Y-83803443D01*
X118452938Y-83760422D01*
X146359500Y-83760422D01*
X146359500Y-84130039D01*
X146373667Y-84215153D01*
X146429100Y-84317888D01*
X146435108Y-84323441D01*
X146435108Y-84323442D01*
X146453882Y-84340797D01*
X146514822Y-84397130D01*
X146522305Y-84400438D01*
X146522308Y-84400440D01*
X146570178Y-84421602D01*
X146621591Y-84444331D01*
X146670422Y-84450500D01*
X147990039Y-84450500D01*
X148075153Y-84436333D01*
X148177888Y-84380900D01*
X148257130Y-84295178D01*
X148260438Y-84287695D01*
X148260440Y-84287692D01*
X148292508Y-84215153D01*
X148304331Y-84188409D01*
X148310500Y-84139578D01*
X148310500Y-83769961D01*
X148296333Y-83684847D01*
X148277531Y-83650000D01*
X151754500Y-83650000D01*
X151754500Y-84250000D01*
X151758049Y-84267840D01*
X151766572Y-84310687D01*
X151770143Y-84328641D01*
X151775562Y-84336751D01*
X151805062Y-84380900D01*
X151814690Y-84395310D01*
X151881359Y-84439857D01*
X151890922Y-84441759D01*
X151890924Y-84441760D01*
X151908390Y-84445234D01*
X151960000Y-84455500D01*
X153510000Y-84455500D01*
X153561610Y-84445234D01*
X153579076Y-84441760D01*
X153579078Y-84441759D01*
X153588641Y-84439857D01*
X153655310Y-84395310D01*
X153664939Y-84380900D01*
X153694438Y-84336751D01*
X153699857Y-84328641D01*
X153703429Y-84310687D01*
X153711951Y-84267840D01*
X153715500Y-84250000D01*
X153715500Y-83650000D01*
X153705318Y-83598812D01*
X153701760Y-83580924D01*
X153701759Y-83580922D01*
X153699857Y-83571359D01*
X153668953Y-83525108D01*
X153660729Y-83512800D01*
X153655310Y-83504690D01*
X153588641Y-83460143D01*
X153579078Y-83458241D01*
X153579076Y-83458240D01*
X153553800Y-83453213D01*
X153510000Y-83444500D01*
X151960000Y-83444500D01*
X151916200Y-83453213D01*
X151890924Y-83458240D01*
X151890922Y-83458241D01*
X151881359Y-83460143D01*
X151814690Y-83504690D01*
X151809271Y-83512800D01*
X151801047Y-83525108D01*
X151770143Y-83571359D01*
X151768241Y-83580922D01*
X151768240Y-83580924D01*
X151764682Y-83598812D01*
X151754500Y-83650000D01*
X148277531Y-83650000D01*
X148240900Y-83582112D01*
X148220495Y-83563249D01*
X148209671Y-83553243D01*
X148155178Y-83502870D01*
X148147695Y-83499562D01*
X148147692Y-83499560D01*
X148070787Y-83465562D01*
X148048409Y-83455669D01*
X147999578Y-83449500D01*
X147759500Y-83449500D01*
X147701309Y-83430593D01*
X147665345Y-83381093D01*
X147660500Y-83350500D01*
X147660500Y-81493505D01*
X147679407Y-81435314D01*
X147716645Y-81404261D01*
X147819361Y-81354937D01*
X147826029Y-81351735D01*
X147836550Y-81342009D01*
X147892117Y-81316395D01*
X147952126Y-81328333D01*
X147955005Y-81330273D01*
X147955202Y-81330486D01*
X147982591Y-81346395D01*
X148065917Y-81394795D01*
X148065920Y-81394796D01*
X148072319Y-81398513D01*
X148109624Y-81407160D01*
X148183246Y-81424225D01*
X148183249Y-81424225D01*
X148188748Y-81425500D01*
X148873258Y-81425500D01*
X148909697Y-81420022D01*
X148966614Y-81411465D01*
X148966616Y-81411464D01*
X148973935Y-81410364D01*
X148980606Y-81407161D01*
X148980608Y-81407160D01*
X149089361Y-81354937D01*
X149096029Y-81351735D01*
X149195486Y-81259798D01*
X149251622Y-81163153D01*
X149259797Y-81149079D01*
X149259798Y-81149078D01*
X149263513Y-81142681D01*
X149267114Y-81127146D01*
X149298672Y-81074727D01*
X149355014Y-81050869D01*
X149363557Y-81050500D01*
X150681111Y-81050500D01*
X150739302Y-81069407D01*
X150775266Y-81118907D01*
X150777375Y-81127845D01*
X150778536Y-81131620D01*
X150779636Y-81138935D01*
X150782837Y-81145602D01*
X150782838Y-81145604D01*
X150827651Y-81238925D01*
X150838265Y-81261029D01*
X150930202Y-81360486D01*
X150980300Y-81389585D01*
X151040917Y-81424795D01*
X151040920Y-81424796D01*
X151047319Y-81428513D01*
X151076660Y-81435314D01*
X151158246Y-81454225D01*
X151158249Y-81454225D01*
X151163748Y-81455500D01*
X151848258Y-81455500D01*
X151884781Y-81450009D01*
X151941614Y-81441465D01*
X151941616Y-81441464D01*
X151948935Y-81440364D01*
X151955606Y-81437161D01*
X151955608Y-81437160D01*
X152064361Y-81384937D01*
X152071029Y-81381735D01*
X152081550Y-81372009D01*
X152137117Y-81346395D01*
X152197126Y-81358333D01*
X152200005Y-81360273D01*
X152200202Y-81360486D01*
X152228139Y-81376713D01*
X152310917Y-81424795D01*
X152310920Y-81424796D01*
X152317319Y-81428513D01*
X152346660Y-81435314D01*
X152428246Y-81454225D01*
X152428249Y-81454225D01*
X152433748Y-81455500D01*
X153118258Y-81455500D01*
X153154781Y-81450009D01*
X153211614Y-81441465D01*
X153211616Y-81441464D01*
X153218935Y-81440364D01*
X153225606Y-81437161D01*
X153225608Y-81437160D01*
X153334361Y-81384937D01*
X153341029Y-81381735D01*
X153440486Y-81289798D01*
X153508513Y-81172681D01*
X153512114Y-81157146D01*
X153543672Y-81104727D01*
X153600014Y-81080869D01*
X153608557Y-81080500D01*
X162981990Y-81080500D01*
X163040181Y-81099407D01*
X163057773Y-81115798D01*
X163067312Y-81127146D01*
X163088068Y-81151838D01*
X163093939Y-81155746D01*
X163093940Y-81155747D01*
X163105066Y-81163153D01*
X163207377Y-81231257D01*
X163214104Y-81233359D01*
X163214107Y-81233360D01*
X163337448Y-81271894D01*
X163337449Y-81271894D01*
X163344180Y-81273997D01*
X163415831Y-81275311D01*
X163480427Y-81276495D01*
X163480429Y-81276495D01*
X163487481Y-81276624D01*
X163494284Y-81274769D01*
X163494286Y-81274769D01*
X163549197Y-81259798D01*
X163625758Y-81238925D01*
X163747897Y-81163931D01*
X163752632Y-81158700D01*
X163839346Y-81062900D01*
X163839346Y-81062899D01*
X163844078Y-81057672D01*
X163906570Y-80928689D01*
X163910596Y-80904763D01*
X163929715Y-80791120D01*
X163929715Y-80791117D01*
X163930349Y-80787350D01*
X163930500Y-80775000D01*
X163910182Y-80633123D01*
X163902538Y-80616309D01*
X163853780Y-80509073D01*
X163853780Y-80509072D01*
X163850860Y-80502651D01*
X163757303Y-80394074D01*
X163637033Y-80316118D01*
X163630275Y-80314097D01*
X163630273Y-80314096D01*
X163506479Y-80277074D01*
X163499718Y-80275052D01*
X163413694Y-80274527D01*
X163363448Y-80274220D01*
X163356396Y-80274177D01*
X163349620Y-80276114D01*
X163349617Y-80276114D01*
X163225369Y-80311624D01*
X163225367Y-80311625D01*
X163218589Y-80313562D01*
X163097375Y-80390042D01*
X163092081Y-80396036D01*
X163091408Y-80396434D01*
X163087336Y-80399899D01*
X163086734Y-80399192D01*
X163039390Y-80427135D01*
X163017879Y-80429500D01*
X153610312Y-80429500D01*
X153552121Y-80410593D01*
X153522982Y-80369808D01*
X153520364Y-80371065D01*
X153464937Y-80255639D01*
X153461735Y-80248971D01*
X153369798Y-80149514D01*
X153298311Y-80107991D01*
X153259083Y-80085205D01*
X153259080Y-80085204D01*
X153252681Y-80081487D01*
X153196803Y-80068535D01*
X153141754Y-80055775D01*
X153141751Y-80055775D01*
X153136252Y-80054500D01*
X152451742Y-80054500D01*
X152415303Y-80059978D01*
X152358386Y-80068535D01*
X152358384Y-80068536D01*
X152351065Y-80069636D01*
X152344394Y-80072839D01*
X152344392Y-80072840D01*
X152235639Y-80125063D01*
X152228971Y-80128265D01*
X152223539Y-80133287D01*
X152223538Y-80133287D01*
X152218449Y-80137991D01*
X152162883Y-80163605D01*
X152102874Y-80151667D01*
X152099995Y-80149727D01*
X152099798Y-80149514D01*
X152028311Y-80107991D01*
X151989083Y-80085205D01*
X151989080Y-80085204D01*
X151982681Y-80081487D01*
X151926803Y-80068535D01*
X151871754Y-80055775D01*
X151871751Y-80055775D01*
X151866252Y-80054500D01*
X151181742Y-80054500D01*
X151145303Y-80059978D01*
X151088386Y-80068535D01*
X151088384Y-80068536D01*
X151081065Y-80069636D01*
X151074394Y-80072839D01*
X151074392Y-80072840D01*
X150965639Y-80125063D01*
X150958971Y-80128265D01*
X150859514Y-80220202D01*
X150791487Y-80337319D01*
X150791089Y-80339034D01*
X150753820Y-80384087D01*
X150700771Y-80399500D01*
X149365312Y-80399500D01*
X149307121Y-80380593D01*
X149277982Y-80339808D01*
X149275364Y-80341065D01*
X149219937Y-80225639D01*
X149216735Y-80218971D01*
X149124798Y-80119514D01*
X149037963Y-80069076D01*
X149014083Y-80055205D01*
X149014080Y-80055204D01*
X149007681Y-80051487D01*
X148951803Y-80038535D01*
X148896754Y-80025775D01*
X148896751Y-80025775D01*
X148891252Y-80024500D01*
X148206742Y-80024500D01*
X148170303Y-80029978D01*
X148113386Y-80038535D01*
X148113384Y-80038536D01*
X148106065Y-80039636D01*
X148099394Y-80042839D01*
X148099392Y-80042840D01*
X148022393Y-80079815D01*
X147983971Y-80098265D01*
X147978539Y-80103287D01*
X147978538Y-80103287D01*
X147973449Y-80107991D01*
X147917883Y-80133605D01*
X147857874Y-80121667D01*
X147854995Y-80119727D01*
X147854798Y-80119514D01*
X147812703Y-80095063D01*
X147744083Y-80055205D01*
X147744080Y-80055204D01*
X147737681Y-80051487D01*
X147681803Y-80038535D01*
X147626754Y-80025775D01*
X147626751Y-80025775D01*
X147621252Y-80024500D01*
X146936742Y-80024500D01*
X146900303Y-80029978D01*
X146843386Y-80038535D01*
X146843384Y-80038536D01*
X146836065Y-80039636D01*
X146829394Y-80042839D01*
X146829392Y-80042840D01*
X146752393Y-80079815D01*
X146713971Y-80098265D01*
X146614514Y-80190202D01*
X146604920Y-80206719D01*
X146550205Y-80300917D01*
X146550204Y-80300920D01*
X146546487Y-80307319D01*
X146544168Y-80317325D01*
X146525924Y-80396035D01*
X146519500Y-80423748D01*
X146519500Y-81008258D01*
X146520050Y-81011915D01*
X146533204Y-81099407D01*
X146534636Y-81108935D01*
X146537839Y-81115606D01*
X146537840Y-81115608D01*
X146568319Y-81179079D01*
X146593265Y-81231029D01*
X146685202Y-81330486D01*
X146727494Y-81355051D01*
X146795917Y-81394795D01*
X146795920Y-81394796D01*
X146802319Y-81398513D01*
X146918748Y-81425500D01*
X146922414Y-81425500D01*
X146977418Y-81450598D01*
X147007522Y-81503866D01*
X147009500Y-81523557D01*
X147009500Y-83350500D01*
X146990593Y-83408691D01*
X146941093Y-83444655D01*
X146910500Y-83449500D01*
X146679961Y-83449500D01*
X146594847Y-83463667D01*
X146492112Y-83519100D01*
X146412870Y-83604822D01*
X146409562Y-83612305D01*
X146409560Y-83612308D01*
X146395003Y-83645237D01*
X146365669Y-83711591D01*
X146359500Y-83760422D01*
X118452938Y-83760422D01*
X118448081Y-83753153D01*
X118434552Y-83739624D01*
X118384262Y-83706022D01*
X118366593Y-83698703D01*
X118302468Y-83685948D01*
X118292847Y-83685000D01*
X117738385Y-83685000D01*
X117725700Y-83689122D01*
X117722705Y-83693243D01*
X117320288Y-83693243D01*
X117318583Y-83687995D01*
X117314462Y-83685000D01*
X116752563Y-83685000D01*
X116742942Y-83685948D01*
X116678817Y-83698703D01*
X116661148Y-83706022D01*
X116610858Y-83739624D01*
X116597329Y-83753153D01*
X116563727Y-83803443D01*
X116556408Y-83821112D01*
X116543653Y-83885237D01*
X116542705Y-83894858D01*
X113103205Y-83894858D01*
X113103205Y-83890000D01*
X113087562Y-83811359D01*
X113043015Y-83744690D01*
X112976346Y-83700143D01*
X112966783Y-83698241D01*
X112966781Y-83698240D01*
X112940044Y-83692922D01*
X112897705Y-83684500D01*
X112449500Y-83684500D01*
X112391309Y-83665593D01*
X112355345Y-83616093D01*
X112350500Y-83585500D01*
X112350500Y-82245312D01*
X112369407Y-82187121D01*
X112410192Y-82157982D01*
X112408935Y-82155364D01*
X112524361Y-82099937D01*
X112531029Y-82096735D01*
X112630486Y-82004798D01*
X112665903Y-81943824D01*
X112694795Y-81894083D01*
X112694796Y-81894080D01*
X112698513Y-81887681D01*
X112725500Y-81771252D01*
X112725500Y-81086742D01*
X112718052Y-81037200D01*
X112711465Y-80993386D01*
X112711464Y-80993384D01*
X112710364Y-80986065D01*
X112697624Y-80959533D01*
X112654937Y-80870639D01*
X112651735Y-80863971D01*
X112642009Y-80853449D01*
X112616395Y-80797883D01*
X112628333Y-80737874D01*
X112630273Y-80734995D01*
X112630486Y-80734798D01*
X112689544Y-80633123D01*
X112694795Y-80624083D01*
X112694796Y-80624080D01*
X112698513Y-80617681D01*
X112719476Y-80527242D01*
X112724225Y-80506754D01*
X112724225Y-80506751D01*
X112725500Y-80501252D01*
X112725500Y-79816742D01*
X112710364Y-79716065D01*
X112697624Y-79689533D01*
X112654937Y-79600639D01*
X112651735Y-79593971D01*
X112559798Y-79494514D01*
X112442681Y-79426487D01*
X112427146Y-79422886D01*
X112374727Y-79391328D01*
X112350869Y-79334986D01*
X112350500Y-79326443D01*
X112350500Y-77267137D01*
X112360406Y-77223971D01*
X112403494Y-77135038D01*
X112406570Y-77128689D01*
X112409557Y-77110939D01*
X112429715Y-76991120D01*
X112429715Y-76991117D01*
X112430349Y-76987350D01*
X112430500Y-76975000D01*
X112410182Y-76833123D01*
X112350860Y-76702651D01*
X112257303Y-76594074D01*
X112137033Y-76516118D01*
X112130275Y-76514097D01*
X112130273Y-76514096D01*
X112006479Y-76477074D01*
X111999718Y-76475052D01*
X111913694Y-76474527D01*
X111863448Y-76474220D01*
X111856396Y-76474177D01*
X111849620Y-76476114D01*
X111849617Y-76476114D01*
X111725369Y-76511624D01*
X111725367Y-76511625D01*
X111718589Y-76513562D01*
X111597375Y-76590042D01*
X111502499Y-76697469D01*
X111441588Y-76827206D01*
X111419538Y-76968824D01*
X111438121Y-77110939D01*
X111440962Y-77117395D01*
X111440962Y-77117396D01*
X111487857Y-77223971D01*
X111495845Y-77242126D01*
X111588068Y-77351838D01*
X111655359Y-77396631D01*
X111693321Y-77444613D01*
X111699500Y-77479041D01*
X111699500Y-79324688D01*
X111680593Y-79382879D01*
X111639808Y-79412018D01*
X111641065Y-79414636D01*
X111623885Y-79422886D01*
X111518971Y-79473265D01*
X111419514Y-79565202D01*
X111415797Y-79571602D01*
X111355205Y-79675917D01*
X111355204Y-79675920D01*
X111351487Y-79682319D01*
X111324500Y-79798748D01*
X111324500Y-80483258D01*
X111328146Y-80507508D01*
X111338425Y-80575877D01*
X111339636Y-80583935D01*
X111342839Y-80590606D01*
X111342840Y-80590608D01*
X111363256Y-80633123D01*
X111398265Y-80706029D01*
X111403287Y-80711461D01*
X111403287Y-80711462D01*
X111407991Y-80716551D01*
X111433605Y-80772117D01*
X111421667Y-80832126D01*
X111419727Y-80835005D01*
X111419514Y-80835202D01*
X111419013Y-80836065D01*
X111355205Y-80945917D01*
X111355204Y-80945920D01*
X111351487Y-80952319D01*
X111349815Y-80959533D01*
X111325856Y-81062900D01*
X111324500Y-81068748D01*
X111324500Y-81753258D01*
X111329978Y-81789697D01*
X111332749Y-81808123D01*
X111339636Y-81853935D01*
X111342839Y-81860606D01*
X111342840Y-81860608D01*
X111391696Y-81962350D01*
X111398265Y-81976029D01*
X111490202Y-82075486D01*
X111607319Y-82143513D01*
X111620723Y-82146620D01*
X111622854Y-82147114D01*
X111675273Y-82178672D01*
X111699131Y-82235014D01*
X111699500Y-82243557D01*
X111699500Y-83585500D01*
X111680593Y-83643691D01*
X111631093Y-83679655D01*
X111600500Y-83684500D01*
X111347705Y-83684500D01*
X111305366Y-83692922D01*
X111278629Y-83698240D01*
X111278627Y-83698241D01*
X111269064Y-83700143D01*
X111202395Y-83744690D01*
X111157848Y-83811359D01*
X111142205Y-83890000D01*
X94875500Y-83890000D01*
X94875500Y-80304500D01*
X94894407Y-80246309D01*
X94943907Y-80210345D01*
X94974500Y-80205500D01*
X95300000Y-80205500D01*
X95344732Y-80196602D01*
X95369076Y-80191760D01*
X95369078Y-80191759D01*
X95378641Y-80189857D01*
X95445310Y-80145310D01*
X95489857Y-80078641D01*
X95491868Y-80068535D01*
X95500517Y-80025050D01*
X95505500Y-80000000D01*
X95505500Y-78000000D01*
X95489857Y-77921359D01*
X95445310Y-77854690D01*
X95378641Y-77810143D01*
X95369078Y-77808241D01*
X95369076Y-77808240D01*
X95343800Y-77803213D01*
X95300000Y-77794500D01*
X94974500Y-77794500D01*
X94916309Y-77775593D01*
X94880345Y-77726093D01*
X94875500Y-77695500D01*
X94875500Y-68304500D01*
X94894407Y-68246309D01*
X94943907Y-68210345D01*
X94974500Y-68205500D01*
X95300000Y-68205500D01*
X95343800Y-68196787D01*
X95369076Y-68191760D01*
X95369078Y-68191759D01*
X95378641Y-68189857D01*
X95445310Y-68145310D01*
X95489857Y-68078641D01*
X95505500Y-68000000D01*
X95505500Y-66000000D01*
X95489857Y-65921359D01*
X95445310Y-65854690D01*
X95378641Y-65810143D01*
X95369078Y-65808241D01*
X95369076Y-65808240D01*
X95343800Y-65803213D01*
X95300000Y-65794500D01*
X94974500Y-65794500D01*
X94916309Y-65775593D01*
X94880345Y-65726093D01*
X94875500Y-65695500D01*
X94875500Y-59304500D01*
X94894407Y-59246309D01*
X94943907Y-59210345D01*
X94974500Y-59205500D01*
X95300000Y-59205500D01*
X95343800Y-59196787D01*
X95369076Y-59191760D01*
X95369078Y-59191759D01*
X95378641Y-59189857D01*
X95445310Y-59145310D01*
X95489857Y-59078641D01*
X95505500Y-59000000D01*
X95505500Y-57000000D01*
X95489857Y-56921359D01*
X95445310Y-56854690D01*
X95419135Y-56837200D01*
X95386751Y-56815562D01*
X95378641Y-56810143D01*
X95369078Y-56808241D01*
X95369076Y-56808240D01*
X95343800Y-56803213D01*
X95300000Y-56794500D01*
X94974500Y-56794500D01*
X94916309Y-56775593D01*
X94880345Y-56726093D01*
X94875500Y-56695500D01*
X94875500Y-46304500D01*
X94894407Y-46246309D01*
X94943907Y-46210345D01*
X94974500Y-46205500D01*
X95300000Y-46205500D01*
X95343800Y-46196787D01*
X95369076Y-46191760D01*
X95369078Y-46191759D01*
X95378641Y-46189857D01*
X95445310Y-46145310D01*
X95489857Y-46078641D01*
X95505500Y-46000000D01*
X95505500Y-44000000D01*
X95489857Y-43921359D01*
X95445310Y-43854690D01*
X95378641Y-43810143D01*
X95369078Y-43808241D01*
X95369076Y-43808240D01*
X95343800Y-43803213D01*
X95300000Y-43794500D01*
X93800000Y-43794500D01*
X93756200Y-43803213D01*
X93730924Y-43808240D01*
X93730922Y-43808241D01*
X93721359Y-43810143D01*
X93654690Y-43854690D01*
X93610143Y-43921359D01*
X93594500Y-44000000D01*
X93594500Y-45454165D01*
X93575593Y-45512356D01*
X93565504Y-45524169D01*
X93194169Y-45895504D01*
X93139652Y-45923281D01*
X93124165Y-45924500D01*
X90704500Y-45924500D01*
X90646309Y-45905593D01*
X90610345Y-45856093D01*
X90605500Y-45825500D01*
X90605500Y-45600000D01*
X90589857Y-45521359D01*
X90545310Y-45454690D01*
X90478641Y-45410143D01*
X90469078Y-45408241D01*
X90469076Y-45408240D01*
X90443800Y-45403213D01*
X90400000Y-45394500D01*
X88500000Y-45394500D01*
X88456200Y-45403213D01*
X88430924Y-45408240D01*
X88430922Y-45408241D01*
X88421359Y-45410143D01*
X88354690Y-45454690D01*
X88310143Y-45521359D01*
X88294500Y-45600000D01*
X74370000Y-45600000D01*
X74370000Y-43600000D01*
X75794500Y-43600000D01*
X75794500Y-44700000D01*
X75810143Y-44778641D01*
X75854690Y-44845310D01*
X75921359Y-44889857D01*
X75930922Y-44891759D01*
X75930924Y-44891760D01*
X75956200Y-44896787D01*
X76000000Y-44905500D01*
X77800000Y-44905500D01*
X77843800Y-44896787D01*
X77869076Y-44891760D01*
X77869078Y-44891759D01*
X77878641Y-44889857D01*
X77945310Y-44845310D01*
X77989857Y-44778641D01*
X78005500Y-44700000D01*
X78005500Y-44574500D01*
X78024407Y-44516309D01*
X78073907Y-44480345D01*
X78104500Y-44475500D01*
X81895500Y-44475500D01*
X81953691Y-44494407D01*
X81989655Y-44543907D01*
X81994500Y-44574500D01*
X81994500Y-44700000D01*
X82010143Y-44778641D01*
X82054690Y-44845310D01*
X82121359Y-44889857D01*
X82130922Y-44891759D01*
X82130924Y-44891760D01*
X82156200Y-44896787D01*
X82200000Y-44905500D01*
X84000000Y-44905500D01*
X84043800Y-44896787D01*
X84069076Y-44891760D01*
X84069078Y-44891759D01*
X84078641Y-44889857D01*
X84145310Y-44845310D01*
X84189857Y-44778641D01*
X84205500Y-44700000D01*
X84205500Y-44174500D01*
X84224407Y-44116309D01*
X84273907Y-44080345D01*
X84304500Y-44075500D01*
X88195500Y-44075500D01*
X88253691Y-44094407D01*
X88289655Y-44143907D01*
X88294500Y-44174500D01*
X88294500Y-44400000D01*
X88310143Y-44478641D01*
X88354690Y-44545310D01*
X88421359Y-44589857D01*
X88430922Y-44591759D01*
X88430924Y-44591760D01*
X88456200Y-44596787D01*
X88500000Y-44605500D01*
X90400000Y-44605500D01*
X90443800Y-44596787D01*
X90469076Y-44591760D01*
X90469078Y-44591759D01*
X90478641Y-44589857D01*
X90545310Y-44545310D01*
X90589857Y-44478641D01*
X90605500Y-44400000D01*
X90605500Y-43100000D01*
X90589857Y-43021359D01*
X90545310Y-42954690D01*
X90478641Y-42910143D01*
X90469078Y-42908241D01*
X90469076Y-42908240D01*
X90443800Y-42903213D01*
X90400000Y-42894500D01*
X88500000Y-42894500D01*
X88456200Y-42903213D01*
X88430924Y-42908240D01*
X88430922Y-42908241D01*
X88421359Y-42910143D01*
X88354690Y-42954690D01*
X88310143Y-43021359D01*
X88294500Y-43100000D01*
X88294500Y-43325500D01*
X88275593Y-43383691D01*
X88226093Y-43419655D01*
X88195500Y-43424500D01*
X84128024Y-43424500D01*
X84090138Y-43416964D01*
X84086748Y-43415560D01*
X84078641Y-43410143D01*
X84000000Y-43394500D01*
X82200000Y-43394500D01*
X82156200Y-43403213D01*
X82130924Y-43408240D01*
X82130922Y-43408241D01*
X82121359Y-43410143D01*
X82054690Y-43454690D01*
X82010143Y-43521359D01*
X81994500Y-43600000D01*
X81994500Y-43725500D01*
X81975593Y-43783691D01*
X81926093Y-43819655D01*
X81895500Y-43824500D01*
X78104500Y-43824500D01*
X78046309Y-43805593D01*
X78010345Y-43756093D01*
X78005500Y-43725500D01*
X78005500Y-43600000D01*
X77989857Y-43521359D01*
X77945310Y-43454690D01*
X77878641Y-43410143D01*
X77869078Y-43408241D01*
X77869076Y-43408240D01*
X77843800Y-43403213D01*
X77800000Y-43394500D01*
X76000000Y-43394500D01*
X75956200Y-43403213D01*
X75930924Y-43408240D01*
X75930922Y-43408241D01*
X75921359Y-43410143D01*
X75854690Y-43454690D01*
X75810143Y-43521359D01*
X75794500Y-43600000D01*
X74370000Y-43600000D01*
X74370000Y-35849000D01*
X74388907Y-35790809D01*
X74438407Y-35754845D01*
X74469000Y-35750000D01*
X173871000Y-35750000D01*
X173929191Y-35768907D01*
G37*
%TD.AperFunction*%
%TD*%
M02*
