%TF.GenerationSoftware,KiCad,Pcbnew,(5.99.0-10355-gafe0c79a1e)*%
%TF.CreationDate,2021-05-03T14:32:18+02:00*%
%TF.ProjectId,orgel,6f726765-6c2e-46b6-9963-61645f706362,rev?*%
%TF.SameCoordinates,Original*%
%TF.FileFunction,Copper,L2,Bot*%
%TF.FilePolarity,Positive*%
%FSLAX46Y46*%
G04 Gerber Fmt 4.6, Leading zero omitted, Abs format (unit mm)*
G04 Created by KiCad (PCBNEW (5.99.0-10355-gafe0c79a1e)) date 2021-05-03 14:32:18*
%MOMM*%
%LPD*%
G01*
G04 APERTURE LIST*
%TA.AperFunction,ComponentPad*%
%ADD10C,1.500000*%
%TD*%
%TA.AperFunction,ComponentPad*%
%ADD11R,2.000000X2.000000*%
%TD*%
%TA.AperFunction,ComponentPad*%
%ADD12C,2.000000*%
%TD*%
%TA.AperFunction,ViaPad*%
%ADD13C,0.600000*%
%TD*%
%TA.AperFunction,Conductor*%
%ADD14C,0.250000*%
%TD*%
G04 APERTURE END LIST*
D10*
%TO.P,CON1,1*%
%TO.N,/synth/osc_out*%
X127850000Y-85475000D03*
%TO.P,CON1,2*%
%TO.N,/audio amp/SYNTH_IN*%
X130390000Y-85475000D03*
%TD*%
D11*
%TO.P,J2,1,Pin_1*%
%TO.N,GND*%
X85630000Y-128700000D03*
D12*
%TO.P,J2,2,Pin_2*%
%TO.N,VCC*%
X85630000Y-123700000D03*
%TD*%
%TO.P,J1,1,Pin_1*%
%TO.N,Net-(C9-Pad2)*%
X165900000Y-111190000D03*
%TO.P,J1,2,Pin_2*%
%TO.N,GND*%
X165900000Y-116190000D03*
%TD*%
D13*
%TO.N,GND*%
X150050000Y-86550000D03*
X117522705Y-92177295D03*
X133500000Y-90050000D03*
X162600000Y-103000000D03*
X108250000Y-101725000D03*
X111925000Y-76975000D03*
X158500000Y-81950000D03*
%TO.N,Net-(C6-Pad2)*%
X165700000Y-90250000D03*
X163425000Y-80775000D03*
%TO.N,Net-(R1-Pad2)*%
X109350000Y-88800000D03*
X114490000Y-85460000D03*
%TD*%
D14*
%TO.N,Net-(C6-Pad2)*%
X165700000Y-90250000D02*
X165700000Y-82725000D01*
X165700000Y-82725000D02*
X163750000Y-80775000D01*
X163750000Y-80775000D02*
X163425000Y-80775000D01*
%TO.N,Net-(R1-Pad2)*%
X114490000Y-88360000D02*
X114490000Y-85460000D01*
X109350000Y-88800000D02*
X114050000Y-88800000D01*
X114050000Y-88800000D02*
X114490000Y-88360000D01*
%TD*%
%TA.AperFunction,Conductor*%
%TO.N,GND*%
G36*
X173929191Y-35768907D02*
G01*
X173965155Y-35818407D01*
X173970000Y-35849000D01*
X173970000Y-135251000D01*
X173951093Y-135309191D01*
X173901593Y-135345155D01*
X173871000Y-135350000D01*
X74469000Y-135350000D01*
X74410809Y-135331093D01*
X74374845Y-135281593D01*
X74370000Y-135251000D01*
X74370000Y-128908243D01*
X84425000Y-128908243D01*
X84425000Y-129695142D01*
X84425948Y-129704763D01*
X84438703Y-129768888D01*
X84446022Y-129786557D01*
X84479624Y-129836847D01*
X84493153Y-129850376D01*
X84543443Y-129883978D01*
X84561112Y-129891297D01*
X84625237Y-129904052D01*
X84634858Y-129905000D01*
X85414320Y-129905000D01*
X85427005Y-129900878D01*
X85430000Y-129896757D01*
X85430000Y-128915680D01*
X85427583Y-128908243D01*
X85830000Y-128908243D01*
X85830000Y-129889320D01*
X85834122Y-129902005D01*
X85838243Y-129905000D01*
X86625142Y-129905000D01*
X86634763Y-129904052D01*
X86698888Y-129891297D01*
X86716557Y-129883978D01*
X86766847Y-129850376D01*
X86780376Y-129836847D01*
X86813978Y-129786557D01*
X86821297Y-129768888D01*
X86834052Y-129704763D01*
X86835000Y-129695142D01*
X86835000Y-128915680D01*
X86830878Y-128902995D01*
X86826757Y-128900000D01*
X85845680Y-128900000D01*
X85832995Y-128904122D01*
X85830000Y-128908243D01*
X85427583Y-128908243D01*
X85425878Y-128902995D01*
X85421757Y-128900000D01*
X84440680Y-128900000D01*
X84427995Y-128904122D01*
X84425000Y-128908243D01*
X74370000Y-128908243D01*
X74370000Y-127704858D01*
X84425000Y-127704858D01*
X84425000Y-128484320D01*
X84429122Y-128497005D01*
X84433243Y-128500000D01*
X85414320Y-128500000D01*
X85427005Y-128495878D01*
X85430000Y-128491757D01*
X85430000Y-127510680D01*
X85427583Y-127503243D01*
X85830000Y-127503243D01*
X85830000Y-128484320D01*
X85834122Y-128497005D01*
X85838243Y-128500000D01*
X86819320Y-128500000D01*
X86832005Y-128495878D01*
X86835000Y-128491757D01*
X86835000Y-127704858D01*
X86834052Y-127695237D01*
X86821297Y-127631112D01*
X86813978Y-127613443D01*
X86780376Y-127563153D01*
X86766847Y-127549624D01*
X86716557Y-127516022D01*
X86698888Y-127508703D01*
X86634763Y-127495948D01*
X86625142Y-127495000D01*
X85845680Y-127495000D01*
X85832995Y-127499122D01*
X85830000Y-127503243D01*
X85427583Y-127503243D01*
X85425878Y-127497995D01*
X85421757Y-127495000D01*
X84634858Y-127495000D01*
X84625237Y-127495948D01*
X84561112Y-127508703D01*
X84543443Y-127516022D01*
X84493153Y-127549624D01*
X84479624Y-127563153D01*
X84446022Y-127613443D01*
X84438703Y-127631112D01*
X84425948Y-127695237D01*
X84425000Y-127704858D01*
X74370000Y-127704858D01*
X74370000Y-123668444D01*
X84424913Y-123668444D01*
X84439342Y-123888582D01*
X84493646Y-124102404D01*
X84586006Y-124302750D01*
X84713331Y-124482910D01*
X84871354Y-124636849D01*
X85054785Y-124759414D01*
X85257480Y-124846499D01*
X85472651Y-124895187D01*
X85582871Y-124899518D01*
X85688558Y-124903670D01*
X85688559Y-124903670D01*
X85693091Y-124903848D01*
X85802255Y-124888020D01*
X85906924Y-124872844D01*
X85906928Y-124872843D01*
X85911418Y-124872192D01*
X85928960Y-124866237D01*
X86116024Y-124802738D01*
X86116027Y-124802736D01*
X86120321Y-124801279D01*
X86312803Y-124693484D01*
X86482417Y-124552417D01*
X86623484Y-124382803D01*
X86731279Y-124190321D01*
X86802192Y-123981418D01*
X86815016Y-123892977D01*
X86833428Y-123765990D01*
X86833428Y-123765984D01*
X86833848Y-123763091D01*
X86835500Y-123700000D01*
X86833017Y-123672971D01*
X86815729Y-123484833D01*
X86815314Y-123480315D01*
X86755431Y-123267987D01*
X86657858Y-123070128D01*
X86525861Y-122893363D01*
X86363862Y-122743613D01*
X86338685Y-122727727D01*
X86181123Y-122628313D01*
X86177286Y-122625892D01*
X85972380Y-122544143D01*
X85756009Y-122501104D01*
X85647318Y-122499681D01*
X85539958Y-122498275D01*
X85539953Y-122498275D01*
X85535418Y-122498216D01*
X85530945Y-122498985D01*
X85530940Y-122498985D01*
X85423033Y-122517527D01*
X85317994Y-122535576D01*
X85111019Y-122611933D01*
X84921425Y-122724730D01*
X84918010Y-122727725D01*
X84918007Y-122727727D01*
X84899893Y-122743613D01*
X84755561Y-122870189D01*
X84618983Y-123043438D01*
X84616870Y-123047453D01*
X84616870Y-123047454D01*
X84602796Y-123074205D01*
X84516263Y-123238675D01*
X84450843Y-123449362D01*
X84424913Y-123668444D01*
X74370000Y-123668444D01*
X74370000Y-117169200D01*
X165209472Y-117169200D01*
X165209479Y-117169245D01*
X165215002Y-117175460D01*
X165321246Y-117246451D01*
X165329201Y-117250769D01*
X165523456Y-117334228D01*
X165532067Y-117337026D01*
X165738290Y-117383690D01*
X165747249Y-117384869D01*
X165958532Y-117393171D01*
X165967559Y-117392697D01*
X166176808Y-117362358D01*
X166185599Y-117360247D01*
X166385821Y-117292281D01*
X166394079Y-117288604D01*
X166578552Y-117185294D01*
X166585660Y-117180409D01*
X166592710Y-117169236D01*
X166592525Y-117166405D01*
X166590523Y-117163366D01*
X165911086Y-116483929D01*
X165899203Y-116477875D01*
X165894172Y-116478671D01*
X165215526Y-117157317D01*
X165209472Y-117169200D01*
X74370000Y-117169200D01*
X74370000Y-116162984D01*
X164695710Y-116162984D01*
X164709539Y-116373978D01*
X164710952Y-116382899D01*
X164762999Y-116587835D01*
X164766019Y-116596363D01*
X164854538Y-116788376D01*
X164859059Y-116796207D01*
X164912905Y-116872397D01*
X164923592Y-116880377D01*
X164924341Y-116880387D01*
X164930472Y-116876685D01*
X165606071Y-116201086D01*
X165611313Y-116190797D01*
X166187875Y-116190797D01*
X166188671Y-116195828D01*
X166869405Y-116876562D01*
X166881288Y-116882616D01*
X166884089Y-116882173D01*
X166886936Y-116879898D01*
X166890164Y-116876017D01*
X166895294Y-116868552D01*
X166998604Y-116684079D01*
X167002281Y-116675821D01*
X167070247Y-116475599D01*
X167072358Y-116466808D01*
X167102929Y-116255964D01*
X167103426Y-116250140D01*
X167104924Y-116192914D01*
X167104734Y-116187101D01*
X167085237Y-115974924D01*
X167083590Y-115966038D01*
X167026196Y-115762536D01*
X167022955Y-115754093D01*
X166929442Y-115564466D01*
X166924712Y-115556748D01*
X166887660Y-115507129D01*
X166876768Y-115499431D01*
X166875319Y-115499450D01*
X166870226Y-115502617D01*
X166193929Y-116178914D01*
X166187875Y-116190797D01*
X165611313Y-116190797D01*
X165612125Y-116189203D01*
X165611329Y-116184172D01*
X164931991Y-115504834D01*
X164920108Y-115498780D01*
X164917991Y-115499115D01*
X164914261Y-115502176D01*
X164892212Y-115530145D01*
X164887288Y-115537728D01*
X164788835Y-115724855D01*
X164785381Y-115733195D01*
X164722679Y-115935127D01*
X164720798Y-115943977D01*
X164695946Y-116153952D01*
X164695710Y-116162984D01*
X74370000Y-116162984D01*
X74370000Y-115210468D01*
X165207131Y-115210468D01*
X165211827Y-115218984D01*
X165888914Y-115896071D01*
X165900797Y-115902125D01*
X165905828Y-115901329D01*
X166585432Y-115221725D01*
X166591310Y-115210187D01*
X166585217Y-115203509D01*
X166450896Y-115118758D01*
X166442843Y-115114655D01*
X166246451Y-115036303D01*
X166237792Y-115033738D01*
X166030411Y-114992487D01*
X166021418Y-114991542D01*
X165809997Y-114988774D01*
X165800979Y-114989484D01*
X165592595Y-115025291D01*
X165583868Y-115027629D01*
X165385493Y-115100814D01*
X165377331Y-115104707D01*
X165215388Y-115201053D01*
X165207131Y-115210468D01*
X74370000Y-115210468D01*
X74370000Y-111158444D01*
X164694913Y-111158444D01*
X164709342Y-111378582D01*
X164763646Y-111592404D01*
X164856006Y-111792750D01*
X164983331Y-111972910D01*
X165141354Y-112126849D01*
X165324785Y-112249414D01*
X165527480Y-112336499D01*
X165742651Y-112385187D01*
X165852871Y-112389518D01*
X165958558Y-112393670D01*
X165958559Y-112393670D01*
X165963091Y-112393848D01*
X166072254Y-112378020D01*
X166176924Y-112362844D01*
X166176928Y-112362843D01*
X166181418Y-112362192D01*
X166198960Y-112356237D01*
X166386024Y-112292738D01*
X166386027Y-112292736D01*
X166390321Y-112291279D01*
X166582803Y-112183484D01*
X166752417Y-112042417D01*
X166893484Y-111872803D01*
X167001279Y-111680321D01*
X167072192Y-111471418D01*
X167085016Y-111382977D01*
X167103428Y-111255990D01*
X167103428Y-111255984D01*
X167103848Y-111253091D01*
X167105500Y-111190000D01*
X167103017Y-111162971D01*
X167085729Y-110974833D01*
X167085314Y-110970315D01*
X167025431Y-110757987D01*
X166927858Y-110560128D01*
X166795861Y-110383363D01*
X166633862Y-110233613D01*
X166608685Y-110217727D01*
X166451123Y-110118313D01*
X166447286Y-110115892D01*
X166242380Y-110034143D01*
X166026009Y-109991104D01*
X165917318Y-109989681D01*
X165809958Y-109988275D01*
X165809953Y-109988275D01*
X165805418Y-109988216D01*
X165800945Y-109988985D01*
X165800940Y-109988985D01*
X165693033Y-110007527D01*
X165587994Y-110025576D01*
X165381019Y-110101933D01*
X165191425Y-110214730D01*
X165188010Y-110217725D01*
X165188007Y-110217727D01*
X165169893Y-110233613D01*
X165025561Y-110360189D01*
X164888983Y-110533438D01*
X164886870Y-110537453D01*
X164886870Y-110537454D01*
X164872796Y-110564205D01*
X164786263Y-110728675D01*
X164720843Y-110939362D01*
X164694913Y-111158444D01*
X74370000Y-111158444D01*
X74370000Y-88793824D01*
X108844538Y-88793824D01*
X108863121Y-88935939D01*
X108865962Y-88942395D01*
X108865962Y-88942396D01*
X108914708Y-89053178D01*
X108920845Y-89067126D01*
X108925382Y-89072523D01*
X108925383Y-89072525D01*
X108969914Y-89125500D01*
X109013068Y-89176838D01*
X109018939Y-89180746D01*
X109018940Y-89180747D01*
X109031235Y-89188931D01*
X109132377Y-89256257D01*
X109139104Y-89258359D01*
X109139107Y-89258360D01*
X109262448Y-89296894D01*
X109262449Y-89296894D01*
X109269180Y-89298997D01*
X109340830Y-89300310D01*
X109405427Y-89301495D01*
X109405429Y-89301495D01*
X109412481Y-89301624D01*
X109419284Y-89299769D01*
X109419286Y-89299769D01*
X109466065Y-89287015D01*
X109550758Y-89263925D01*
X109672897Y-89188931D01*
X109700837Y-89158063D01*
X109753904Y-89127610D01*
X109774234Y-89125500D01*
X114031715Y-89125500D01*
X114040344Y-89125877D01*
X114078805Y-89129242D01*
X114116342Y-89119184D01*
X114124774Y-89117315D01*
X114154509Y-89112072D01*
X114154510Y-89112072D01*
X114163038Y-89110568D01*
X114170539Y-89106237D01*
X114176017Y-89104243D01*
X114181306Y-89101777D01*
X114189675Y-89099535D01*
X114196772Y-89094566D01*
X114221514Y-89077242D01*
X114228796Y-89072603D01*
X114228931Y-89072525D01*
X114262441Y-89053178D01*
X114287259Y-89023601D01*
X114293093Y-89017234D01*
X114707234Y-88603093D01*
X114713602Y-88597258D01*
X114743178Y-88572441D01*
X114762604Y-88538795D01*
X114767242Y-88531514D01*
X114784566Y-88506772D01*
X114784567Y-88506771D01*
X114789535Y-88499675D01*
X114791777Y-88491306D01*
X114794243Y-88486017D01*
X114796237Y-88480539D01*
X114800568Y-88473038D01*
X114807315Y-88434774D01*
X114809184Y-88426342D01*
X114817001Y-88397168D01*
X114819242Y-88388805D01*
X114815877Y-88350344D01*
X114815500Y-88341715D01*
X114815500Y-85884206D01*
X114834407Y-85826015D01*
X114841103Y-85817769D01*
X114904346Y-85747900D01*
X114904346Y-85747899D01*
X114909078Y-85742672D01*
X114971570Y-85613689D01*
X114974557Y-85595939D01*
X114979217Y-85568240D01*
X126899060Y-85568240D01*
X126917932Y-85661833D01*
X126931098Y-85727126D01*
X126937232Y-85757549D01*
X127012689Y-85935316D01*
X127015534Y-85939440D01*
X127015535Y-85939442D01*
X127119503Y-86090153D01*
X127119507Y-86090157D01*
X127122350Y-86094279D01*
X127125967Y-86097747D01*
X127125969Y-86097750D01*
X127206084Y-86174577D01*
X127261735Y-86227944D01*
X127425151Y-86330853D01*
X127605922Y-86398800D01*
X127610877Y-86399585D01*
X127610878Y-86399585D01*
X127791704Y-86428225D01*
X127791708Y-86428225D01*
X127796663Y-86429010D01*
X127870764Y-86425645D01*
X127984571Y-86420478D01*
X127984576Y-86420477D01*
X127989582Y-86420250D01*
X127994441Y-86419020D01*
X127994444Y-86419020D01*
X128171943Y-86374105D01*
X128176800Y-86372876D01*
X128181310Y-86370696D01*
X128346160Y-86291005D01*
X128346162Y-86291004D01*
X128350669Y-86288825D01*
X128504085Y-86171530D01*
X128630782Y-86025781D01*
X128725585Y-85857534D01*
X128784620Y-85673660D01*
X128792362Y-85602396D01*
X128796073Y-85568240D01*
X129439060Y-85568240D01*
X129457932Y-85661833D01*
X129471098Y-85727126D01*
X129477232Y-85757549D01*
X129552689Y-85935316D01*
X129555534Y-85939440D01*
X129555535Y-85939442D01*
X129659503Y-86090153D01*
X129659507Y-86090157D01*
X129662350Y-86094279D01*
X129665967Y-86097747D01*
X129665969Y-86097750D01*
X129746084Y-86174577D01*
X129801735Y-86227944D01*
X129965151Y-86330853D01*
X130145922Y-86398800D01*
X130150877Y-86399585D01*
X130150878Y-86399585D01*
X130331704Y-86428225D01*
X130331708Y-86428225D01*
X130336663Y-86429010D01*
X130410764Y-86425645D01*
X130524571Y-86420478D01*
X130524576Y-86420477D01*
X130529582Y-86420250D01*
X130534441Y-86419020D01*
X130534444Y-86419020D01*
X130711943Y-86374105D01*
X130716800Y-86372876D01*
X130721310Y-86370696D01*
X130886160Y-86291005D01*
X130886162Y-86291004D01*
X130890669Y-86288825D01*
X131044085Y-86171530D01*
X131170782Y-86025781D01*
X131265585Y-85857534D01*
X131324620Y-85673660D01*
X131332362Y-85602396D01*
X131345197Y-85484251D01*
X131345197Y-85484246D01*
X131345477Y-85481671D01*
X131345500Y-85475000D01*
X131328913Y-85311702D01*
X131326491Y-85287857D01*
X131326490Y-85287853D01*
X131325984Y-85282870D01*
X131268234Y-85098589D01*
X131174608Y-84929683D01*
X131106874Y-84850657D01*
X131052197Y-84786864D01*
X131052195Y-84786862D01*
X131048931Y-84783054D01*
X131021169Y-84761520D01*
X130900298Y-84667761D01*
X130900293Y-84667758D01*
X130896338Y-84664690D01*
X130723061Y-84579427D01*
X130608242Y-84549519D01*
X130541036Y-84532013D01*
X130541032Y-84532012D01*
X130536178Y-84530748D01*
X130531166Y-84530485D01*
X130531164Y-84530485D01*
X130463134Y-84526920D01*
X130343324Y-84520641D01*
X130152377Y-84549519D01*
X129971136Y-84616202D01*
X129966878Y-84618842D01*
X129966876Y-84618843D01*
X129892933Y-84664690D01*
X129807006Y-84717967D01*
X129666691Y-84850657D01*
X129663817Y-84854762D01*
X129663814Y-84854765D01*
X129590704Y-84959177D01*
X129555923Y-85008850D01*
X129553934Y-85013446D01*
X129553933Y-85013448D01*
X129527279Y-85075042D01*
X129479226Y-85186086D01*
X129439734Y-85375123D01*
X129439060Y-85568240D01*
X128796073Y-85568240D01*
X128805197Y-85484251D01*
X128805197Y-85484246D01*
X128805477Y-85481671D01*
X128805500Y-85475000D01*
X128788913Y-85311702D01*
X128786491Y-85287857D01*
X128786490Y-85287853D01*
X128785984Y-85282870D01*
X128728234Y-85098589D01*
X128634608Y-84929683D01*
X128566874Y-84850657D01*
X128512197Y-84786864D01*
X128512195Y-84786862D01*
X128508931Y-84783054D01*
X128481169Y-84761520D01*
X128360298Y-84667761D01*
X128360293Y-84667758D01*
X128356338Y-84664690D01*
X128183061Y-84579427D01*
X128068242Y-84549519D01*
X128001036Y-84532013D01*
X128001032Y-84532012D01*
X127996178Y-84530748D01*
X127991166Y-84530485D01*
X127991164Y-84530485D01*
X127923134Y-84526920D01*
X127803324Y-84520641D01*
X127612377Y-84549519D01*
X127431136Y-84616202D01*
X127426878Y-84618842D01*
X127426876Y-84618843D01*
X127352933Y-84664690D01*
X127267006Y-84717967D01*
X127126691Y-84850657D01*
X127123817Y-84854762D01*
X127123814Y-84854765D01*
X127050704Y-84959177D01*
X127015923Y-85008850D01*
X127013934Y-85013446D01*
X127013933Y-85013448D01*
X126987279Y-85075042D01*
X126939226Y-85186086D01*
X126899734Y-85375123D01*
X126899060Y-85568240D01*
X114979217Y-85568240D01*
X114994715Y-85476120D01*
X114994715Y-85476117D01*
X114995349Y-85472350D01*
X114995500Y-85460000D01*
X114975182Y-85318123D01*
X114959154Y-85282870D01*
X114918780Y-85194073D01*
X114918780Y-85194072D01*
X114915860Y-85187651D01*
X114822303Y-85079074D01*
X114702033Y-85001118D01*
X114695275Y-84999097D01*
X114695273Y-84999096D01*
X114571479Y-84962074D01*
X114564718Y-84960052D01*
X114478694Y-84959527D01*
X114428448Y-84959220D01*
X114421396Y-84959177D01*
X114414620Y-84961114D01*
X114414617Y-84961114D01*
X114290369Y-84996624D01*
X114290367Y-84996625D01*
X114283589Y-84998562D01*
X114162375Y-85075042D01*
X114067499Y-85182469D01*
X114006588Y-85312206D01*
X113984538Y-85453824D01*
X114003121Y-85595939D01*
X114005962Y-85602395D01*
X114005962Y-85602396D01*
X114007870Y-85606731D01*
X114060845Y-85727126D01*
X114065382Y-85732523D01*
X114065383Y-85732525D01*
X114141283Y-85822818D01*
X114164253Y-85879528D01*
X114164500Y-85886520D01*
X114164500Y-88184165D01*
X114145593Y-88242356D01*
X114135504Y-88254169D01*
X113944169Y-88445504D01*
X113889652Y-88473281D01*
X113874165Y-88474500D01*
X109775439Y-88474500D01*
X109717248Y-88455593D01*
X109700446Y-88440129D01*
X109682303Y-88419074D01*
X109562033Y-88341118D01*
X109555275Y-88339097D01*
X109555273Y-88339096D01*
X109431479Y-88302074D01*
X109424718Y-88300052D01*
X109338694Y-88299527D01*
X109288448Y-88299220D01*
X109281396Y-88299177D01*
X109274620Y-88301114D01*
X109274617Y-88301114D01*
X109150369Y-88336624D01*
X109150367Y-88336625D01*
X109143589Y-88338562D01*
X109022375Y-88415042D01*
X108927499Y-88522469D01*
X108866588Y-88652206D01*
X108844538Y-88793824D01*
X74370000Y-88793824D01*
X74370000Y-80768824D01*
X162919538Y-80768824D01*
X162938121Y-80910939D01*
X162995845Y-81042126D01*
X163088068Y-81151838D01*
X163207377Y-81231257D01*
X163214104Y-81233359D01*
X163214107Y-81233360D01*
X163337448Y-81271894D01*
X163337449Y-81271894D01*
X163344180Y-81273997D01*
X163415831Y-81275311D01*
X163480427Y-81276495D01*
X163480429Y-81276495D01*
X163487481Y-81276624D01*
X163494284Y-81274769D01*
X163494286Y-81274769D01*
X163541065Y-81262015D01*
X163625758Y-81238925D01*
X163631766Y-81235236D01*
X163631771Y-81235234D01*
X163638400Y-81231164D01*
X163697883Y-81216831D01*
X163754430Y-81240199D01*
X163760201Y-81245528D01*
X165345504Y-82830831D01*
X165373281Y-82885348D01*
X165374500Y-82900835D01*
X165374500Y-89825177D01*
X165355593Y-89883368D01*
X165349704Y-89890711D01*
X165282169Y-89967181D01*
X165277499Y-89972469D01*
X165216588Y-90102206D01*
X165194538Y-90243824D01*
X165213121Y-90385939D01*
X165215962Y-90392395D01*
X165215962Y-90392396D01*
X165217870Y-90396731D01*
X165270845Y-90517126D01*
X165363068Y-90626838D01*
X165368939Y-90630746D01*
X165368940Y-90630747D01*
X165381235Y-90638931D01*
X165482377Y-90706257D01*
X165489104Y-90708359D01*
X165489107Y-90708360D01*
X165612448Y-90746894D01*
X165612449Y-90746894D01*
X165619180Y-90748997D01*
X165690831Y-90750311D01*
X165755427Y-90751495D01*
X165755429Y-90751495D01*
X165762481Y-90751624D01*
X165769284Y-90749769D01*
X165769286Y-90749769D01*
X165816065Y-90737015D01*
X165900758Y-90713925D01*
X166022897Y-90638931D01*
X166119078Y-90532672D01*
X166181570Y-90403689D01*
X166184557Y-90385939D01*
X166204715Y-90266120D01*
X166204715Y-90266117D01*
X166205349Y-90262350D01*
X166205500Y-90250000D01*
X166185182Y-90108123D01*
X166125860Y-89977651D01*
X166049501Y-89889033D01*
X166025840Y-89832608D01*
X166025500Y-89824409D01*
X166025500Y-82743284D01*
X166025877Y-82734656D01*
X166028487Y-82704821D01*
X166029242Y-82696194D01*
X166019184Y-82658658D01*
X166017316Y-82650230D01*
X166012072Y-82620490D01*
X166012072Y-82620489D01*
X166010568Y-82611962D01*
X166006239Y-82604463D01*
X166004248Y-82598994D01*
X166001776Y-82593694D01*
X165999534Y-82585325D01*
X165977248Y-82553497D01*
X165972608Y-82546214D01*
X165957507Y-82520058D01*
X165953178Y-82512559D01*
X165923601Y-82487741D01*
X165917234Y-82481907D01*
X163993093Y-80557766D01*
X163987258Y-80551398D01*
X163962441Y-80521822D01*
X163928795Y-80502396D01*
X163921514Y-80497758D01*
X163896772Y-80480434D01*
X163896771Y-80480433D01*
X163889675Y-80475465D01*
X163881306Y-80473223D01*
X163876017Y-80470757D01*
X163870539Y-80468763D01*
X163863038Y-80464432D01*
X163844612Y-80461183D01*
X163786804Y-80428312D01*
X163757303Y-80394074D01*
X163637033Y-80316118D01*
X163630275Y-80314097D01*
X163630273Y-80314096D01*
X163506479Y-80277074D01*
X163499718Y-80275052D01*
X163413694Y-80274527D01*
X163363448Y-80274220D01*
X163356396Y-80274177D01*
X163349620Y-80276114D01*
X163349617Y-80276114D01*
X163225369Y-80311624D01*
X163225367Y-80311625D01*
X163218589Y-80313562D01*
X163097375Y-80390042D01*
X163002499Y-80497469D01*
X162941588Y-80627206D01*
X162919538Y-80768824D01*
X74370000Y-80768824D01*
X74370000Y-35849000D01*
X74388907Y-35790809D01*
X74438407Y-35754845D01*
X74469000Y-35750000D01*
X173871000Y-35750000D01*
X173929191Y-35768907D01*
G37*
%TD.AperFunction*%
%TD*%
M02*
