%TF.GenerationSoftware,KiCad,Pcbnew,(5.99.0-10355-gafe0c79a1e)*%
%TF.CreationDate,2021-05-03T14:32:18+02:00*%
%TF.ProjectId,orgel,6f726765-6c2e-46b6-9963-61645f706362,rev?*%
%TF.SameCoordinates,Original*%
%TF.FileFunction,Soldermask,Top*%
%TF.FilePolarity,Negative*%
%FSLAX46Y46*%
G04 Gerber Fmt 4.6, Leading zero omitted, Abs format (unit mm)*
G04 Created by KiCad (PCBNEW (5.99.0-10355-gafe0c79a1e)) date 2021-05-03 14:32:18*
%MOMM*%
%LPD*%
G01*
G04 APERTURE LIST*
G04 Aperture macros list*
%AMRoundRect*
0 Rectangle with rounded corners*
0 $1 Rounding radius*
0 $2 $3 $4 $5 $6 $7 $8 $9 X,Y pos of 4 corners*
0 Add a 4 corners polygon primitive as box body*
4,1,4,$2,$3,$4,$5,$6,$7,$8,$9,$2,$3,0*
0 Add four circle primitives for the rounded corners*
1,1,$1+$1,$2,$3*
1,1,$1+$1,$4,$5*
1,1,$1+$1,$6,$7*
1,1,$1+$1,$8,$9*
0 Add four rect primitives between the rounded corners*
20,1,$1+$1,$2,$3,$4,$5,0*
20,1,$1+$1,$4,$5,$6,$7,0*
20,1,$1+$1,$6,$7,$8,$9,0*
20,1,$1+$1,$8,$9,$2,$3,0*%
G04 Aperture macros list end*
%ADD10R,1.900000X1.300000*%
%ADD11R,1.500000X2.000000*%
%ADD12R,1.200000X2.500000*%
%ADD13R,2.120000X4.510000*%
%ADD14R,1.800000X1.100000*%
%ADD15RoundRect,0.250000X-0.300000X0.250000X-0.300000X-0.250000X0.300000X-0.250000X0.300000X0.250000X0*%
%ADD16RoundRect,0.250000X0.300000X-0.250000X0.300000X0.250000X-0.300000X0.250000X-0.300000X-0.250000X0*%
%ADD17RoundRect,0.250000X-0.250000X-0.300000X0.250000X-0.300000X0.250000X0.300000X-0.250000X0.300000X0*%
%ADD18RoundRect,0.150000X0.625000X0.150000X-0.625000X0.150000X-0.625000X-0.150000X0.625000X-0.150000X0*%
%ADD19R,1.550000X0.600000*%
%ADD20RoundRect,0.250000X0.250000X0.300000X-0.250000X0.300000X-0.250000X-0.300000X0.250000X-0.300000X0*%
%ADD21C,1.500000*%
%ADD22RoundRect,0.150000X-0.625000X-0.150000X0.625000X-0.150000X0.625000X0.150000X-0.625000X0.150000X0*%
%ADD23R,2.000000X2.000000*%
%ADD24C,2.000000*%
G04 APERTURE END LIST*
D10*
%TO.C,RV1*%
X89450000Y-107750000D03*
D11*
X94550000Y-109000000D03*
D10*
X89450000Y-110250000D03*
%TD*%
D12*
%TO.C,SW7*%
X110400000Y-91225000D03*
X107900000Y-91225000D03*
X105400000Y-91225000D03*
X105400000Y-96725000D03*
X107900000Y-96725000D03*
X110400000Y-96725000D03*
%TD*%
D13*
%TO.C,C9*%
X153850000Y-94475000D03*
X153850000Y-103475000D03*
%TD*%
D14*
%TO.C,SW2*%
X83100000Y-102850000D03*
X76900000Y-102850000D03*
X76900000Y-99150000D03*
X83100000Y-99150000D03*
%TD*%
D15*
%TO.C,R2*%
X148540000Y-80725000D03*
X147270000Y-80725000D03*
%TD*%
D14*
%TO.C,SW1*%
X83100000Y-111850000D03*
X76900000Y-111850000D03*
X83100000Y-108150000D03*
X76900000Y-108150000D03*
%TD*%
D10*
%TO.C,RV6*%
X89450000Y-56750000D03*
D11*
X94550000Y-58000000D03*
D10*
X89450000Y-59250000D03*
%TD*%
D16*
%TO.C,C8*%
X157250000Y-85200000D03*
X158520000Y-85200000D03*
%TD*%
D10*
%TO.C,RV3*%
X89450000Y-88750000D03*
D11*
X94550000Y-90000000D03*
D10*
X89450000Y-91250000D03*
%TD*%
D14*
%TO.C,SW5*%
X83100000Y-69850000D03*
X76900000Y-69850000D03*
X76900000Y-66150000D03*
X83100000Y-66150000D03*
%TD*%
D17*
%TO.C,R3*%
X162600000Y-99365000D03*
X162600000Y-100635000D03*
%TD*%
D14*
%TO.C,SW8*%
X83100000Y-47850000D03*
X76900000Y-47850000D03*
X83100000Y-44150000D03*
X76900000Y-44150000D03*
%TD*%
D18*
%TO.C,U1*%
X117522705Y-88000000D03*
D19*
X117522705Y-86730000D03*
X117522705Y-85460000D03*
X117522705Y-84190000D03*
X112122705Y-84190000D03*
X112122705Y-85460000D03*
X112122705Y-86730000D03*
X112122705Y-88000000D03*
%TD*%
D20*
%TO.C,C7*%
X162625000Y-96945000D03*
X162625000Y-95675000D03*
%TD*%
D10*
%TO.C,RV4*%
X89450000Y-77750000D03*
D11*
X94550000Y-79000000D03*
D10*
X89450000Y-80250000D03*
%TD*%
D21*
%TO.C,CON1*%
X127850000Y-85475000D03*
X130390000Y-85475000D03*
%TD*%
D14*
%TO.C,SW6*%
X76900000Y-59850000D03*
X83100000Y-59850000D03*
X83100000Y-56150000D03*
X76900000Y-56150000D03*
%TD*%
D17*
%TO.C,C11*%
X89835000Y-125470000D03*
X89835000Y-126740000D03*
%TD*%
D16*
%TO.C,C6*%
X151515000Y-80755000D03*
X152785000Y-80755000D03*
%TD*%
D22*
%TO.C,U2*%
X147335000Y-83950000D03*
D19*
X147335000Y-85220000D03*
X147335000Y-86490000D03*
X147335000Y-87760000D03*
X152735000Y-87760000D03*
X152735000Y-86490000D03*
X152735000Y-85220000D03*
X152735000Y-83950000D03*
%TD*%
D14*
%TO.C,SW4*%
X83100000Y-81850000D03*
X76900000Y-81850000D03*
X83100000Y-78150000D03*
X76900000Y-78150000D03*
%TD*%
D16*
%TO.C,C4*%
X121315000Y-85480000D03*
X122585000Y-85480000D03*
%TD*%
D10*
%TO.C,RV9*%
X136075000Y-85425000D03*
D11*
X141175000Y-86675000D03*
D10*
X136075000Y-87925000D03*
%TD*%
D23*
%TO.C,J2*%
X85630000Y-128700000D03*
D24*
X85630000Y-123700000D03*
%TD*%
D10*
%TO.C,RV2*%
X89450000Y-98750000D03*
D11*
X94550000Y-100000000D03*
D10*
X89450000Y-101250000D03*
%TD*%
D24*
%TO.C,J1*%
X165900000Y-111190000D03*
X165900000Y-116190000D03*
%TD*%
D20*
%TO.C,C3*%
X112025000Y-81420000D03*
X112025000Y-80150000D03*
%TD*%
D14*
%TO.C,SW10*%
X162750000Y-87375000D03*
X168950000Y-87375000D03*
X162750000Y-91075000D03*
X168950000Y-91075000D03*
%TD*%
D17*
%TO.C,C2*%
X105425000Y-100425000D03*
X105425000Y-101695000D03*
%TD*%
D13*
%TO.C,C5*%
X101925000Y-120975000D03*
X101925000Y-129975000D03*
%TD*%
D10*
%TO.C,RV5*%
X89450000Y-65750000D03*
D11*
X94550000Y-67000000D03*
D10*
X89450000Y-68250000D03*
%TD*%
D20*
%TO.C,R1*%
X108000000Y-86270000D03*
X108000000Y-85000000D03*
%TD*%
D10*
%TO.C,RV7*%
X89450000Y-43750000D03*
D11*
X94550000Y-45000000D03*
D10*
X89450000Y-46250000D03*
%TD*%
D17*
%TO.C,C1*%
X110825000Y-100455000D03*
X110825000Y-101725000D03*
%TD*%
%TO.C,C10*%
X92755000Y-125510000D03*
X92755000Y-126780000D03*
%TD*%
D14*
%TO.C,SW3*%
X83100000Y-92850000D03*
X76900000Y-92850000D03*
X83100000Y-89150000D03*
X76900000Y-89150000D03*
%TD*%
M02*
